<svg width="760" height="180" viewBox="0 0 760 180" xmlns="http://www.w3.org/2000/svg" style="background:#121212; border-radius: 8px; font-family: monospace;">

  <defs>
    <!-- Trans Flag Gradient -->
    <linearGradient id="transGradient" x1="0" y1="0" x2="0" y2="1">
      <stop offset="0%" stop-color="#55CDFC"/>
      <stop offset="33%" stop-color="#F7A8B8"/>
      <stop offset="66%" stop-color="#FFFFFF"/>
      <stop offset="100%" stop-color="#F7A8B8"/>
    </linearGradient>

    <!-- Blood Red Gradient for outlines -->
    <linearGradient id="bloodGradient" x1="0" y1="0" x2="1" y2="1">
      <stop offset="0%" stop-color="#8B0000"/>
      <stop offset="100%" stop-color="#450000"/>
    </linearGradient>

    <!-- UK Flag Pattern -->
    <pattern id="ukFlag" x="0" y="0" width="40" height="40" patternUnits="userSpaceOnUse">
      <rect width="40" height="40" fill="#00247d"/>
      <path d="M0 0 L40 40 M40 0 L0 40" stroke="#fff" stroke-width="5"/>
      <path d="M0 18 L40 18 M20 0 L20 40" stroke="#cf142b" stroke-width="10"/>
      <path d="M0 15 L40 25 M15 0 L25 40" stroke="#fff" stroke-width="6"/>
      <path d="M0 16 L40 24 M16 0 L24 40" stroke="#cf142b" stroke-width="4"/>
    </pattern>

    <!-- Fracture mask for UK flag cracks -->
    <mask id="fractureMask">
      <rect width="100%" height="100%" fill="white"/>
      <!-- Cracks flickering -->
      <path d="M50 0 L60 180" stroke="black" stroke-width="4" opacity="0.3">
        <animate attributeName="opacity" values="0.3;0;0.3" dur="6s" repeatCount="indefinite"/>
      </path>
      <path d="M120 0 L130 180" stroke="black" stroke-width="3" opacity="0.2">
        <animate attributeName="opacity" values="0.2;0;0.2" dur="8s" repeatCount="indefinite" begin="2s"/>
      </path>
      <path d="M200 0 L210 180" stroke="black" stroke-width="5" opacity="0.25">
        <animate attributeName="opacity" values="0.25;0;0.25" dur="5s" repeatCount="indefinite" begin="4s"/>
      </path>
      <path d="M280 0 L290 180" stroke="black" stroke-width="3" opacity="0.15">
        <animate attributeName="opacity" values="0.15;0;0.15" dur="7s" repeatCount="indefinite" begin="1s"/>
      </path>
    </mask>

    <!-- Glitch text filter -->
    <filter id="glitchFilter" x="-10%" y="-10%" width="120%" height="120%">
      <feColorMatrix in="SourceGraphic" type="matrix"
        values="1 0 0 0 0
                0 1 0 0 0
                0 0 1 0 0
                0 0 0 20 -10"/>
      <feOffset dx="2" dy="0" result="off1"/>
      <feOffset dx="-2" dy="0" result="off2"/>
      <feMerge>
        <feMergeNode in="off1"/>
        <feMergeNode in="off2"/>
        <feMergeNode in="SourceGraphic"/>
      </feMerge>
    </filter>
  </defs>
<rect width="760" height="180" fill="#121212"/>
<polygon points="10.694161863916865,10.923466696653268 32.534829765743545,10.453996722481119 31.915159333123015,33.573794985469576 11.35223070297057,33.60957147724259" fill="#1c1c1c" stroke="url(#bloodGradient)" stroke-width="1.5"/>
<polygon points="12.26453193165421,37.47093750925925 33.396392297856686,38.19534811110989 33.576166060677295,59.76144622991971 11.181205953374725,59.39925881787368" fill="#1c1c1c" stroke="url(#bloodGradient)" stroke-width="1.5"/>
<polygon points="10.60633301235604,64.69963553869206 30.702990272065186,64.32189476287277 33.91181056152954,85.08028860311532 10.053500100296631,82.42615014895513" fill="#1c1c1c" stroke="url(#bloodGradient)" stroke-width="1.5"/>
<polygon points="12.798330310653533,89.120190248477 30.730874566242132,91.20636770173985 31.782473796584398,109.12718818675121 11.17509851859744,111.3419920337069" fill="#1c1c1c" stroke="url(#bloodGradient)" stroke-width="1.5"/>
<polygon points="12.049564281865322,116.41705230348364 30.718916872993947,114.82267748001873 33.15395233932055,137.31932349553824 10.840013025632183,135.0432521509879" fill="#1c1c1c" stroke="url(#bloodGradient)" stroke-width="1.5"/>
<polygon points="10.507535659770555,140.77783235483685 33.47758884850465,140.00108321412822 33.89027356007645,163.4194029503839 10.424005828369692,161.74180162701558" fill="#1c1c1c" stroke="url(#bloodGradient)" stroke-width="1.5"/>
<polygon points="11.616553124510865,168.909868097488 33.13035509282647,167.11816089795917 30.823758736283185,187.61953648330643 13.511734162691344,188.55250697609222" fill="#1c1c1c" stroke="url(#bloodGradient)" stroke-width="1.5"/>
<polygon points="36.22785196500358,12.58246978768516 57.83875826906376,10.226136073103334 59.6942231899246,33.63297590663348 37.98793852828449,31.832350231632372" fill="#1c1c1c" stroke="url(#bloodGradient)" stroke-width="1.5"/>
<polygon points="39.04135326088316,39.23553061426721 57.29441542924948,36.914172965852956 57.88633256843874,59.096474251256254 36.830335919037395,59.34510526570143" fill="#1c1c1c" stroke="url(#bloodGradient)" stroke-width="1.5"/>
<polygon points="39.046311293365804,64.02299992018241 57.015385646095034,63.32843891123906 58.31425867485378,83.26866711225986 38.794796755558025,85.51321290304338" fill="#1c1c1c" stroke="url(#bloodGradient)" stroke-width="1.5"/>
<polygon points="37.711667181984986,91.12153361988086 57.245880573182994,90.91342822787911 57.61036435106767,109.41383474573924 39.25760935676692,111.61223828002105" fill="#1c1c1c" stroke="url(#bloodGradient)" stroke-width="1.5"/>
<polygon points="39.534882414854756,114.91736081567414 57.2847605542826,114.68603168575909 56.513414086442594,134.9682077127046 36.291175549269994,137.85483078557158" fill="#1c1c1c" stroke="url(#bloodGradient)" stroke-width="1.5"/>
<polygon points="38.23472363959222,141.51048364609545 59.15642474845277,143.35343621781968 58.805118582197366,161.11921247673055 38.32704730781875,163.29639462363937" fill="#1c1c1c" stroke="url(#bloodGradient)" stroke-width="1.5"/>
<polygon points="37.77147842624685,169.2648614836273 56.79018139873607,166.26398048776622 58.95110361041768,187.64373474143773 37.650023572653396,189.93987610125345" fill="#1c1c1c" stroke="url(#bloodGradient)" stroke-width="1.5"/>
<polygon points="62.008288430738695,10.217404861902931 84.53618618704326,11.754210661861286 83.75338707439758,31.616351621805805 63.321236600247644,33.934131838431085" fill="#1c1c1c" stroke="url(#bloodGradient)" stroke-width="1.5"/>
<polygon points="63.030764368328036,37.48163644275018 82.59244921723898,36.30734019382667 84.50403266003848,59.122236475285526 63.763728878729566,59.36502652775417" fill="#1c1c1c" stroke="url(#bloodGradient)" stroke-width="1.5"/>
<polygon points="62.57426834731961,65.20489046893232 82.76054546370256,65.15457387364896 83.20262604802814,85.16829113765473 63.91833496740107,84.61225302798144" fill="#55CDFC" stroke="url(#bloodGradient)" stroke-width="1.5"/>
<polygon points="64.20275212109166,88.3946327185272 84.74927227005873,89.79221182319523 82.9016567777163,110.99598955988711 64.83574223055018,108.41764745928722" fill="#55CDFC" stroke="url(#bloodGradient)" stroke-width="1.5"/>
<polygon points="62.676166021719524,116.75936695918088 83.30656592085599,115.61218530269427 82.92936287760507,136.64892978364082 64.80716626282006,134.75863955886305" fill="#1c1c1c" stroke="url(#bloodGradient)" stroke-width="1.5"/>
<polygon points="64.77682528669388,143.52839268016442 84.67442553326632,143.49833456275607 85.00850110645088,161.7066365704182 64.58271464782234,163.76395444123102" fill="#1c1c1c" stroke="url(#bloodGradient)" stroke-width="1.5"/>
<polygon points="64.83136963246463,166.9807742351934 85.45892519968163,168.9676345451359 83.9273290353548,188.5018119569937 62.46742270580765,189.2901671274997" fill="#1c1c1c" stroke="url(#bloodGradient)" stroke-width="1.5"/>
<polygon points="89.99325321144619,12.758831994845181 111.13355531312072,11.616146607389977 108.59680687617889,30.7478286912346 89.05206467437606,33.4217871828026" fill="#1c1c1c" stroke="url(#bloodGradient)" stroke-width="1.5"/>
<polygon points="90.00326248920476,39.45997208885879 110.42014626090038,36.8642711438951 109.3345073957292,58.098287187898215 91.55450148472019,59.50361265571057" fill="#1c1c1c" stroke="url(#bloodGradient)" stroke-width="1.5"/>
<polygon points="89.02727900940806,64.84059609206147 111.14512302316822,63.13553170298393 111.72936704276836,84.89874975750956 90.2421124849557,82.50457689926519" fill="#55CDFC" stroke="url(#bloodGradient)" stroke-width="1.5"/>
<polygon points="90.93971205463215,88.56859941829343 108.83779182889312,88.8921752314606 109.9444076669192,111.71453497379707 90.93913431510755,111.17058801698526" fill="#1c1c1c" stroke="url(#bloodGradient)" stroke-width="1.5"/>
<polygon points="88.82754680406724,116.91847163681066 110.49629885597324,114.30930448573206 108.53647914748012,134.55159626994444 91.37144915222856,137.76960208973617" fill="#1c1c1c" stroke="url(#bloodGradient)" stroke-width="1.5"/>
<polygon points="90.01474513809205,141.9794488286735 109.29165478431062,142.2706946057466 109.97989667046961,160.70487242172564 88.16549505587946,163.47138391061267" fill="#1c1c1c" stroke="url(#bloodGradient)" stroke-width="1.5"/>
<polygon points="88.82366050385174,166.42163897062832 110.4709682147187,166.34330018506367 109.7429108874989,187.8158037540376 88.20432175993426,186.51929547994104" fill="#1c1c1c" stroke="url(#bloodGradient)" stroke-width="1.5"/>
<polygon points="114.87676296275333,10.333323851583227 136.7755649345438,13.080918143960501 135.1086691233155,31.18202706158201 117.41170762526521,31.02834547923024" fill="#1c1c1c" stroke="url(#bloodGradient)" stroke-width="1.5"/>
<polygon points="117.072145121098,38.07571890067923 134.79018945189497,38.20222016671776 136.53931526706623,57.30240014026008 117.05790152797069,59.72757791770066" fill="#1c1c1c" stroke="url(#bloodGradient)" stroke-width="1.5"/>
<polygon points="114.5931243360122,64.19285892090804 135.27416477487844,62.341746155565964 134.44276679440068,85.44734702639057 117.36071915020199,84.843741919129" fill="#1c1c1c" stroke="url(#bloodGradient)" stroke-width="1.5"/>
<polygon points="117.2644532196441,91.35776705662802 135.11539801770118,90.82813574127918 137.31287332253382,108.83886085126906 116.91582732681024,108.91932589550007" fill="#1c1c1c" stroke="url(#bloodGradient)" stroke-width="1.5"/>
<polygon points="116.97386187607974,114.57675130201712 137.3931187457802,117.16586532502467 137.83684025732188,135.5772025349457 114.12868109468842,135.30800624302748" fill="#1c1c1c" stroke="url(#bloodGradient)" stroke-width="1.5"/>
<polygon points="116.40306019820436,143.10438475976358 135.77337087763038,142.47968719170123 137.03657909658835,163.30533328293905 115.67982287836851,163.84172378928804" fill="#1c1c1c" stroke="url(#bloodGradient)" stroke-width="1.5"/>
<polygon points="115.2855017368223,166.1373245316134 137.20142809199152,168.3092671988773 135.26141766006108,186.9669319997728 115.97038876441316,188.34289256902073" fill="#1c1c1c" stroke="url(#bloodGradient)" stroke-width="1.5"/>
<polygon points="142.26698132174772,11.30917786840912 161.56036639886514,12.545223351092432 161.92129207310225,33.88190375983577 140.93884347177766,31.373089148889303" fill="#1c1c1c" stroke="url(#bloodGradient)" stroke-width="1.5"/>
<polygon points="142.64868065846852,37.13000965366047 160.4629795156829,38.936513964002096 163.75955552817567,58.50939102583607 140.68614995657643,56.4788772706196" fill="#1c1c1c" stroke="url(#bloodGradient)" stroke-width="1.5"/>
<polygon points="142.7472983050273,62.345405492080474 160.98080809258238,63.05303333620803 160.87205193859245,83.06115625350776 142.4606026000858,82.55969634658432" fill="#1c1c1c" stroke="url(#bloodGradient)" stroke-width="1.5"/>
<polygon points="142.87679559239973,90.1630469175325 161.83899878483672,89.49496391934093 162.4425091970211,111.06234038040013 141.86418275551554,109.87314716109444" fill="#1c1c1c" stroke="url(#bloodGradient)" stroke-width="1.5"/>
<polygon points="142.63352269833598,115.34732227648638 161.4579274738563,115.97702553952209 160.40508041243143,134.68469713319408 140.31977811341528,136.79277520518752" fill="#1c1c1c" stroke="url(#bloodGradient)" stroke-width="1.5"/>
<polygon points="141.9025702592075,140.3003267126371 160.99007041958723,143.20949017457448 161.76747097587685,161.09014323561976 140.77604177577444,162.54193718101564" fill="#1c1c1c" stroke="url(#bloodGradient)" stroke-width="1.5"/>
<polygon points="140.47257237321404,168.24460032711096 163.93658196652444,168.7131644359683 161.48217329036638,189.85633510194108 142.02468809727495,189.3772100944689" fill="#1c1c1c" stroke="url(#bloodGradient)" stroke-width="1.5"/>
<polygon points="166.3483604712704,12.260051451263898 187.73198323792576,13.23506074695132 187.0870641328526,31.70527768838836 166.04302925601235,30.740497087097125" fill="#1c1c1c" stroke="url(#bloodGradient)" stroke-width="1.5"/>
<polygon points="167.25129030312544,36.77807044006917 187.96778206964046,39.06940004419496 189.4867640546527,58.78206611021795 169.51643032138097,58.273526070858644" fill="#1c1c1c" stroke="url(#bloodGradient)" stroke-width="1.5"/>
<polygon points="169.28791721783213,63.289357521868006 186.84642458478953,64.9695025294485 188.5976075248019,84.78308524657997 167.9449704996279,83.25540446650923" fill="#1c1c1c" stroke="url(#bloodGradient)" stroke-width="1.5"/>
<polygon points="168.03917401351381,91.09810915023245 187.3067797882299,90.052873922085 187.44589860534705,110.69542526049918 166.64785766632312,108.77236631775874" fill="#1c1c1c" stroke="url(#bloodGradient)" stroke-width="1.5"/>
<polygon points="168.12485386151045,115.55760946262072 189.63438964461633,115.31351087041405 188.85600348639875,136.33432525159807 166.7828372755117,134.99603380143753" fill="#1c1c1c" stroke="url(#bloodGradient)" stroke-width="1.5"/>
<polygon points="168.33290355325613,141.25402161850826 187.38209950962928,140.26485545641256 188.81481080603317,162.67860946831146 168.55426967678363,163.8496645938539" fill="#1c1c1c" stroke="url(#bloodGradient)" stroke-width="1.5"/>
<polygon points="167.4819238532594,167.22430393427658 186.78717843686974,168.84510427759338 187.31785254077465,187.70601484363848 167.65231946409185,187.20691530279552" fill="#1c1c1c" stroke="url(#bloodGradient)" stroke-width="1.5"/>
<polygon points="193.95344777131245,10.90496360912979 214.46856222878912,10.398342882172923 213.85298570825552,31.474246504426965 194.0918710112019,31.560642678364378" fill="#1c1c1c" stroke="url(#bloodGradient)" stroke-width="1.5"/>
<polygon points="192.5052720034691,38.16165665698001 214.52969592035106,38.5156915848674 214.44808557821003,57.13212200071943 192.45191253159578,57.89022524719779" fill="#1c1c1c" stroke="url(#bloodGradient)" stroke-width="1.5"/>
<polygon points="192.16156972201767,63.91308368462481 214.17978987342624,64.22659894539265 215.72578423349975,85.77157938374111 195.0308107128396,84.42137291584307" fill="#1c1c1c" stroke="url(#bloodGradient)" stroke-width="1.5"/>
<polygon points="195.08767768721876,88.67188842980569 212.74114305017585,90.01720840918026 215.89080644111354,109.98188790068002 193.26290323101753,109.52018172313345" fill="#1c1c1c" stroke="url(#bloodGradient)" stroke-width="1.5"/>
<polygon points="192.65582618733558,117.52234914471227 215.56821808259562,115.68527809007227 215.48646112733854,135.50151076414838 194.84000459978887,134.52465209748155" fill="#1c1c1c" stroke="url(#bloodGradient)" stroke-width="1.5"/>
<polygon points="194.02785845509902,141.41866241166093 215.6387901616669,140.81211850214927 212.51754734103343,161.50881641034997 192.43839798702516,162.47235461025602" fill="#1c1c1c" stroke="url(#bloodGradient)" stroke-width="1.5"/>
<polygon points="194.3787249416086,168.19727307110918 215.9684712912544,168.43737105367083 215.58137553780688,188.37953901866211 195.23300494623572,188.58976061209782" fill="#1c1c1c" stroke="url(#bloodGradient)" stroke-width="1.5"/>
<polygon points="219.27163646374242,12.261922543830208 240.53073672479425,12.820367670355786 241.4262379270011,32.98028436027692 219.69155039047357,33.24607523977179" fill="#1c1c1c" stroke="url(#bloodGradient)" stroke-width="1.5"/>
<polygon points="220.30854893808782,38.82546830850459 239.21734433429117,38.082274645949816 238.5898966908521,58.48072469876754 220.16423798875243,58.719372789759845" fill="#1c1c1c" stroke="url(#bloodGradient)" stroke-width="1.5"/>
<polygon points="219.43228444468744,62.84091630823212 238.91286989708237,65.17675729078502 239.52129617422193,84.8343844835638 219.32119811660553,85.34030312564667" fill="#1c1c1c" stroke="url(#bloodGradient)" stroke-width="1.5"/>
<polygon points="218.88267177284143,91.07052069271194 238.47276463196275,89.69655013561946 240.52279165846048,111.16746542462802 220.66261298263734,110.40806733633569" fill="#1c1c1c" stroke="url(#bloodGradient)" stroke-width="1.5"/>
<polygon points="220.05894404917598,116.13481970301888 241.44890726966912,116.15180203799872 239.97765122617477,136.93947285214756 218.75298659701312,135.82321104900709" fill="#1c1c1c" stroke="url(#bloodGradient)" stroke-width="1.5"/>
<polygon points="218.28321583689817,142.2104801510645 241.61919946032407,142.7055975661243 240.00818800676862,162.81839375947334 218.4657057163259,163.6546433042313" fill="#1c1c1c" stroke="url(#bloodGradient)" stroke-width="1.5"/>
<polygon points="218.40394975217518,166.43633751659723 240.98146597548822,167.02807917929778 240.15677244262042,187.6565061654606 220.12195679207917,188.58622508138984" fill="#1c1c1c" stroke="url(#bloodGradient)" stroke-width="1.5"/>
<polygon points="247.5990902173529,10.45660241024994 267.7685975404451,11.21225135773473 264.4748178652798,31.808402970192226 245.75656457142813,31.09941146578209" fill="#1c1c1c" stroke="url(#bloodGradient)" stroke-width="1.5"/>
<polygon points="246.55453314669379,38.41262702892816 267.4779072724626,39.02339773677444 267.04890383697835,57.47600692075435 244.83518958867816,58.79263521210787" fill="#1c1c1c" stroke="url(#bloodGradient)" stroke-width="1.5"/>
<polygon points="244.62222325029026,62.08332335284109 267.764195108075,64.0936952382576 264.860446299865,85.1630703476913 244.417646969294,84.78498101475824" fill="#1c1c1c" stroke="url(#bloodGradient)" stroke-width="1.5"/>
<polygon points="247.1948918789697,89.59326037857198 267.2121443751571,88.42684302620073 267.6663713095575,110.3121380327149 246.340341429495,109.55803045887475" fill="#1c1c1c" stroke="url(#bloodGradient)" stroke-width="1.5"/>
<polygon points="244.39921530875435,117.28552723445162 267.01772884411787,114.51281370082506 265.1556900003246,136.45770341747084 245.11717434778234,137.98271278084437" fill="#1c1c1c" stroke="url(#bloodGradient)" stroke-width="1.5"/>
<polygon points="247.44969404100823,142.0070877703286 265.7934505402869,142.27915440543245 267.8832289732225,161.07275360557963 246.19517061270395,161.4243691049876" fill="#1c1c1c" stroke="url(#bloodGradient)" stroke-width="1.5"/>
<polygon points="246.73526908003075,167.76431848098363 265.36049904106574,168.75412698649845 265.8719066423895,189.19908748561977 244.57129358035016,189.10979277344452" fill="#1c1c1c" stroke="url(#bloodGradient)" stroke-width="1.5"/>
<polygon points="273.5995394782949,10.337526541677741 291.9514907760081,12.914247678839951 290.84419366290143,31.12651648612065 273.1324368735762,32.54498466757312" fill="#1c1c1c" stroke="url(#bloodGradient)" stroke-width="1.5"/>
<polygon points="271.18654786880836,37.738201167613795 292.12034497320064,38.800019884586305 291.49537084286965,56.665390808624124 272.07420793443885,58.41272275400768" fill="#1c1c1c" stroke="url(#bloodGradient)" stroke-width="1.5"/>
<polygon points="270.634421699832,63.17349486858225 290.8070273145209,62.32030152614127 292.5639416123665,85.63159004407864 270.9228370747182,84.0700391100538" fill="#1c1c1c" stroke="url(#bloodGradient)" stroke-width="1.5"/>
<polygon points="272.9168147694442,88.30197095510077 293.748610583773,91.5870202466628 291.7485308754826,110.12618567125503 270.80150804755584,110.34562001012561" fill="#1c1c1c" stroke="url(#bloodGradient)" stroke-width="1.5"/>
<polygon points="270.2264116420176,114.42461792677166 290.92676489470074,116.07137361014082 292.37120551862427,136.60893022602383 270.09753460112483,135.20655414021292" fill="#1c1c1c" stroke="url(#bloodGradient)" stroke-width="1.5"/>
<polygon points="271.65491125081303,140.94079873586963 292.60278139325106,143.0823838619379 292.45360357714065,163.2901962915929 273.1913702803659,160.9760414951375" fill="#1c1c1c" stroke="url(#bloodGradient)" stroke-width="1.5"/>
<polygon points="272.2893609197552,166.39811938812235 290.80383237374156,168.52142208490937 293.26562774066514,189.165180796862 270.33537830685066,189.49418942716656" fill="#1c1c1c" stroke="url(#bloodGradient)" stroke-width="1.5"/>
<polygon points="296.91087322757295,10.145759139284532 317.7769479049397,11.012203809858423 319.55133390607546,31.5533528974064 297.9708048909934,33.82156221402773" fill="#1c1c1c" stroke="url(#bloodGradient)" stroke-width="1.5"/>
<polygon points="297.94677864947664,37.522709762823396 318.33071388808565,37.5734543856444 318.9881186806167,59.108522948051494 298.81403022797866,58.16663655673527" fill="#1c1c1c" stroke="url(#bloodGradient)" stroke-width="1.5"/>
<polygon points="296.8538052645637,63.714085960280215 317.7302920330763,63.64011574038737 316.8683965013964,83.89032577932805 297.6182411717036,84.43493767431426" fill="#1c1c1c" stroke="url(#bloodGradient)" stroke-width="1.5"/>
<polygon points="297.6566837585418,90.95705045967388 317.6693809472375,89.04039336112353 317.02375811356245,110.31799963192736 298.97211953152157,110.9533861927372" fill="#1c1c1c" stroke="url(#bloodGradient)" stroke-width="1.5"/>
<polygon points="297.9524005746424,116.79505578172659 318.67750226797483,115.67273795009493 319.12091690109446,135.04865487084172 296.5722768797238,136.05173716190203" fill="#1c1c1c" stroke="url(#bloodGradient)" stroke-width="1.5"/>
<polygon points="296.645442726994,140.13158903715583 317.2759704564905,143.3996755604957 317.05453887414086,161.15993079184068 297.0441772417712,160.60539221588863" fill="#1c1c1c" stroke="url(#bloodGradient)" stroke-width="1.5"/>
<polygon points="299.19983087147716,166.57416706310585 319.24252443563546,168.85620362882574 316.7238271340367,189.12736577738232 298.6320574694911,187.3444533330475" fill="#55CDFC" stroke="url(#bloodGradient)" stroke-width="1.5"/>
<polygon points="322.9683694057483,11.281487213914705 345.792350215655,12.108316600378078 344.9414403282309,32.01419916441424 322.1272529265641,30.561263658424345" fill="#1c1c1c" stroke="url(#bloodGradient)" stroke-width="1.5"/>
<polygon points="323.97858853246265,36.56784266590517 344.74635095936867,37.583093837013195 343.150861502335,58.1905774087251 324.76808757895446,58.35575944388552" fill="#1c1c1c" stroke="url(#bloodGradient)" stroke-width="1.5"/>
<polygon points="322.2137414796822,63.30548784125279 345.8258270569802,65.0353068237954 345.86592310000964,83.84750740504596 324.52329613039194,83.10565876269352" fill="#1c1c1c" stroke="url(#bloodGradient)" stroke-width="1.5"/>
<polygon points="325.32868557616194,89.1979236644921 343.95058710996335,88.49051247127518 343.2274260919355,110.40859750249342 325.11569922975053,111.02234300632817" fill="#1c1c1c" stroke="url(#bloodGradient)" stroke-width="1.5"/>
<polygon points="322.6212754765183,115.53113230564152 342.61911429355075,117.03207433890856 345.52080210650917,137.55569533206625 324.81937158809546,137.89050887496217" fill="#1c1c1c" stroke="url(#bloodGradient)" stroke-width="1.5"/>
<polygon points="324.776358002736,140.99276259657864 345.4392051807092,142.88542075437692 344.38538029918817,160.74695624744365 322.4228468373755,160.90129278640273" fill="#1c1c1c" stroke="url(#bloodGradient)" stroke-width="1.5"/>
<polygon points="323.54574619171143,168.05424987092914 345.60467162076225,166.90229760392975 344.57495298301865,189.58722853784897 325.33203040303914,186.40151960834845" fill="#1c1c1c" stroke="url(#bloodGradient)" stroke-width="1.5"/>
<polygon points="349.69297016992226,11.053840695542547 368.69382511865666,12.354676114660412 370.8831466147605,30.878621440135095 348.32874549439515,33.52372125283954" fill="#1c1c1c" stroke="url(#bloodGradient)" stroke-width="1.5"/>
<polygon points="349.61977154950176,38.26604988919634 370.4289470353522,36.63485178975748 368.8200834440695,58.872854395168375 350.51112356284364,57.68531830465908" fill="#1c1c1c" stroke="url(#bloodGradient)" stroke-width="1.5"/>
<polygon points="351.5499104615761,64.54702393368996 369.8470651469726,64.0773806448447 370.7276762083896,84.51222216478943 348.02107924392794,84.10470607837152" fill="#1c1c1c" stroke="url(#bloodGradient)" stroke-width="1.5"/>
<polygon points="348.0022747405011,90.57647899400781 369.3401777572793,89.35432604500491 368.6085315916094,108.96357019043661 349.9461523565943,111.08414230310777" fill="#1c1c1c" stroke="url(#bloodGradient)" stroke-width="1.5"/>
<polygon points="351.2620284353013,114.3679500410187 370.748656091435,114.02986275089826 368.91789400273996,135.73692048624184 351.0700717296753,136.7001121823933" fill="#1c1c1c" stroke="url(#bloodGradient)" stroke-width="1.5"/>
<polygon points="348.8512952085553,143.58122157835868 368.81316527600126,140.7204843355908 369.82112905272385,161.33775388122604 351.1321210268791,162.90979525413053" fill="#1c1c1c" stroke="url(#bloodGradient)" stroke-width="1.5"/>
<polygon points="350.3721865221715,168.0417135753193 370.84568649376524,167.60142327713015 368.51930172593165,188.5070400091243 350.2099917420796,188.79402533894626" fill="#1c1c1c" stroke="url(#bloodGradient)" stroke-width="1.5"/>
<polygon points="375.56136908064536,13.396752412197548 395.4801160522435,11.772787052763189 397.86941428637397,31.92934241153092 374.67478229438194,31.578343315291345" fill="#1c1c1c" stroke="url(#bloodGradient)" stroke-width="1.5"/>
<polygon points="376.611524536913,38.12449858620114 396.3116956211754,36.52314396418976 396.53192906973726,58.04904193743004 377.2185474019947,57.82752701843113" fill="#1c1c1c" stroke="url(#bloodGradient)" stroke-width="1.5"/>
<polygon points="374.59933094794894,62.88777151366475 396.4270198200788,63.166196159054884 395.6234316725421,85.00104677005693 375.9261936006038,83.4956508433285" fill="#1c1c1c" stroke="url(#bloodGradient)" stroke-width="1.5"/>
<polygon points="374.58064378217085,88.2887230900046 396.5191810144051,89.1394784247224 396.3059600229973,109.73085266173811 375.6921312655305,109.0123959315329" fill="#1c1c1c" stroke="url(#bloodGradient)" stroke-width="1.5"/>
<polygon points="375.20558427693874,117.49147545202563 394.5110149850648,114.01524825310099 395.01989533862513,135.39953638413107 374.8655429860454,135.0443582978787" fill="#1c1c1c" stroke="url(#bloodGradient)" stroke-width="1.5"/>
<polygon points="374.2727699225598,140.08242268137923 396.931099644194,142.09182728642 397.1356841528161,163.77232177150847 375.6951729782318,161.78105484824516" fill="#1c1c1c" stroke="url(#bloodGradient)" stroke-width="1.5"/>
<polygon points="375.3170948956412,168.8061009018827 397.98590204934584,167.81436731890213 397.87094345941983,188.51741395379847 375.211405845269,189.14727725326458" fill="#1c1c1c" stroke="url(#bloodGradient)" stroke-width="1.5"/>
<polygon points="402.83438495310946,13.370693489818855 421.9715175438637,11.055090563155174 422.36917329155784,30.94521761239557 402.1093699561729,30.804288426844067" fill="#1c1c1c" stroke="url(#bloodGradient)" stroke-width="1.5"/>
<polygon points="401.4067577198942,38.20764474745588 422.9662759190022,36.46724636973868 423.1655998253489,58.93009972381489 403.2261573857676,57.578178969105274" fill="#1c1c1c" stroke="url(#bloodGradient)" stroke-width="1.5"/>
<polygon points="402.52534183582225,65.2810758915728 421.75116610851677,64.57570504213078 420.52581754359494,84.62706169230997 400.06128550371494,83.63889528158964" fill="#1c1c1c" stroke="url(#bloodGradient)" stroke-width="1.5"/>
<polygon points="401.9064185272069,88.49730344349659 420.6913371183622,91.19143140355612 423.72049875610054,109.28339854737348 403.28776307463596,111.0893752736435" fill="#1c1c1c" stroke="url(#bloodGradient)" stroke-width="1.5"/>
<polygon points="401.8531884910244,115.14927702699104 422.375405469223,117.03483665687266 423.5289253385885,134.40128744465815 401.58288255312465,136.46477914067185" fill="#1c1c1c" stroke="url(#bloodGradient)" stroke-width="1.5"/>
<polygon points="401.6550939397511,142.73749464374137 420.7097280342281,141.0905202682781 421.63828234082985,161.86955936456255 403.5507622816549,160.43160131932007" fill="#1c1c1c" stroke="url(#bloodGradient)" stroke-width="1.5"/>
<polygon points="402.5001885988069,166.5653188478228 423.13507486428114,167.93135469035332 422.9352312575222,189.40923642218894 401.71186780194114,186.94783430689552" fill="#1c1c1c" stroke="url(#bloodGradient)" stroke-width="1.5"/>
<polygon points="427.0347174938719,12.376367623088086 446.7886340530822,12.414587169838533 448.551499345869,31.24849126189727 426.34355180915327,33.327829857839994" fill="#1c1c1c" stroke="url(#bloodGradient)" stroke-width="1.5"/>
<polygon points="427.2566824866426,36.22719615035095 449.70649708307684,37.348132047858456 448.93260269014615,56.852023116697296 427.23289980293646,56.9746212791708" fill="#1c1c1c" stroke="url(#bloodGradient)" stroke-width="1.5"/>
<polygon points="427.5682210638026,63.039937900748846 446.47194935059804,65.53542797794094 449.0658577257527,82.7623752904689 429.23324042850504,83.34460631774293" fill="#1c1c1c" stroke="url(#bloodGradient)" stroke-width="1.5"/>
<polygon points="427.20598299295006,90.63126348899172 447.931144169759,90.05819361458177 448.1554660995156,108.62697625383518 428.7839890453051,109.98143573643159" fill="#1c1c1c" stroke="url(#bloodGradient)" stroke-width="1.5"/>
<polygon points="427.3216042436324,115.30007982218473 448.22764585101606,116.71025585993932 446.98729330654714,135.15562554545076 429.03405767260676,136.029333156551" fill="#1c1c1c" stroke="url(#bloodGradient)" stroke-width="1.5"/>
<polygon points="429.1516950420857,140.91614783218387 449.78037914562674,140.26504660834973 447.98376135166876,163.8416116567683 426.83555091499744,162.22423673832614" fill="#1c1c1c" stroke="url(#bloodGradient)" stroke-width="1.5"/>
<polygon points="429.13651582810365,166.45583026601824 446.55506856880953,167.93525987965222 447.8691617842881,188.4231505930398 427.1497568803987,188.90909477175262" fill="#1c1c1c" stroke="url(#bloodGradient)" stroke-width="1.5"/>
<polygon points="452.27357032454154,12.081202707785852 475.27950943383405,12.439372991646907 475.64194246509055,32.43054558180004 453.10284333164964,31.75822354786967" fill="#1c1c1c" stroke="url(#bloodGradient)" stroke-width="1.5"/>
<polygon points="452.0588131177995,37.69497882130089 472.6183152698278,38.44833032456892 475.9550348624842,56.57698014670224 455.4712745775494,56.80454411006541" fill="#1c1c1c" stroke="url(#bloodGradient)" stroke-width="1.5"/>
<polygon points="453.9509069252997,62.942094446613496 472.54044465115817,64.20433985780271 473.88355641991666,84.26959433635274 452.1600540217596,83.36073345358396" fill="#1c1c1c" stroke="url(#bloodGradient)" stroke-width="1.5"/>
<polygon points="454.0182302105514,89.702902875615 474.9577589212805,88.28647157590234 473.3583370174553,110.893521455949 454.52506215551074,111.65842952415451" fill="#1c1c1c" stroke="url(#bloodGradient)" stroke-width="1.5"/>
<polygon points="452.3872202967628,117.26770988862073 474.6570953335699,114.10759507208009 473.3312574360371,135.99955564343233 454.834708680705,136.55175813838144" fill="#1c1c1c" stroke="url(#bloodGradient)" stroke-width="1.5"/>
<polygon points="452.018640571848,143.28347468476917 474.7544290440878,143.3274156229626 475.19763817990764,163.15383519092617 454.90231185658166,163.50958755811612" fill="#1c1c1c" stroke="url(#bloodGradient)" stroke-width="1.5"/>
<polygon points="453.9984999402705,167.85313099160558 473.96617119139216,168.04590943212725 472.56628925102444,187.11875963373083 454.8718012624843,187.68767248195613" fill="#1c1c1c" stroke="url(#bloodGradient)" stroke-width="1.5"/>
<polygon points="481.5421889874261,10.394316166594262 501.62906465943587,10.846755030238194 500.0717686575751,33.818074248729694 478.2225587776325,30.914765758231766" fill="#1c1c1c" stroke="url(#bloodGradient)" stroke-width="1.5"/>
<polygon points="481.08215472930726,38.1592244341727 499.0710399548662,39.13051067931987 500.35313289871794,56.8616762112846 480.87998326398946,59.91491213938285" fill="#1c1c1c" stroke="url(#bloodGradient)" stroke-width="1.5"/>
<polygon points="479.9467678581443,64.87399335684593 501.5200020066175,63.808257098174145 500.56501398483,84.59712378077897 479.40580599758647,85.94711627295035" fill="#1c1c1c" stroke="url(#bloodGradient)" stroke-width="1.5"/>
<polygon points="478.14770535237744,90.67775814243599 500.40653019182463,91.22270338434527 499.11329106629864,108.7282432662396 478.8415369063675,110.38559357239711" fill="#1c1c1c" stroke="url(#bloodGradient)" stroke-width="1.5"/>
<polygon points="480.99020884251854,117.20109984654506 500.72434807504357,114.98994197752302 500.1594923705266,136.0206969957054 479.0782352609536,137.56190133809014" fill="#1c1c1c" stroke="url(#bloodGradient)" stroke-width="1.5"/>
<polygon points="480.40709718421607,141.67769374201237 501.7645171546195,141.910620683735 501.4289672494458,160.78896009258332 479.7626158830644,160.9571333265982" fill="#1c1c1c" stroke="url(#bloodGradient)" stroke-width="1.5"/>
<polygon points="478.46890872267824,169.24704409220286 501.8464167967453,167.67230736950387 500.9731648986881,188.49897046090751 480.12297388906444,187.10653325358373" fill="#1c1c1c" stroke="url(#bloodGradient)" stroke-width="1.5"/>
<polygon points="506.02603975018326,11.05325631218506 525.6864975239972,12.093403831242805 525.4404874456618,33.967579548595694 506.4832277379247,32.78369765098651" fill="#1c1c1c" stroke="url(#bloodGradient)" stroke-width="1.5"/>
<polygon points="506.89068539264593,36.055038325652006 525.9358799334336,39.190224317447026 526.367610590899,57.42810181947008 507.5867881860083,56.73179284671386" fill="#1c1c1c" stroke="url(#bloodGradient)" stroke-width="1.5"/>
<polygon points="506.3136446154433,62.85231137057902 526.1649067913165,63.92732820346586 524.9565605915903,85.4103755837448 507.3392288216626,83.89013133512465" fill="#1c1c1c" stroke="url(#bloodGradient)" stroke-width="1.5"/>
<polygon points="504.5603066065667,88.2449342126882 527.9292582598754,89.58003499618157 526.1190659780943,109.71961664756509 506.4858419568434,110.14483294021328" fill="#1c1c1c" stroke="url(#bloodGradient)" stroke-width="1.5"/>
<polygon points="505.28005159677497,115.54940731169883 525.5048196959252,115.82076946796495 527.9673589340391,135.7551150320338 507.5910192713235,137.58272660227541" fill="#1c1c1c" stroke="url(#bloodGradient)" stroke-width="1.5"/>
<polygon points="507.4304904269244,140.7606164743314 525.1373744245451,140.9326601860086 527.0907432517495,160.83624696992132 505.9185730178113,160.95860814016473" fill="#1c1c1c" stroke="url(#bloodGradient)" stroke-width="1.5"/>
<polygon points="505.64110299524924,169.24471386011658 527.194600581073,169.47807414198553 526.5642226740173,188.2977641980505 505.9217257658515,186.7265732815794" fill="#1c1c1c" stroke="url(#bloodGradient)" stroke-width="1.5"/>
<polygon points="532.4109178609348,10.718793151899764 553.1298585023849,11.307208818624174 551.8048016120621,33.30435087711112 532.7078137809428,33.37984543798834" fill="#1c1c1c" stroke="url(#bloodGradient)" stroke-width="1.5"/>
<polygon points="531.3671389093962,37.63049908679892 552.0756666937792,38.39925026287854 552.1017115692717,56.60589800940718 531.5634742671274,56.9854364138963" fill="#1c1c1c" stroke="url(#bloodGradient)" stroke-width="1.5"/>
<polygon points="533.4845085033259,64.98302281563302 553.870492577228,64.50738925525863 551.1388153581885,84.56912555604322 533.1365011691325,83.45884983494071" fill="#1c1c1c" stroke="url(#bloodGradient)" stroke-width="1.5"/>
<polygon points="531.9608535243678,91.02904306309256 551.4126399376846,90.4349427334339 551.702798818511,109.6107960752264 532.7273661683851,109.55310149365755" fill="#1c1c1c" stroke="url(#bloodGradient)" stroke-width="1.5"/>
<polygon points="531.7609111246612,116.55098275529446 553.0458311603066,115.59550689571223 551.8866533376045,136.60271436433638 531.5611119946163,136.9638676901345" fill="#1c1c1c" stroke="url(#bloodGradient)" stroke-width="1.5"/>
<polygon points="533.2294979980886,142.55619244133814 551.416187326834,142.46512461135768 551.1746606676113,162.43836768605848 533.1037224452643,161.2325257206116" fill="#1c1c1c" stroke="url(#bloodGradient)" stroke-width="1.5"/>
<polygon points="531.0186919600388,169.52029224302044 552.4991354648824,167.0284142330833 553.5750010887656,188.22864806607174 530.4509356682862,188.71293448332477" fill="#1c1c1c" stroke="url(#bloodGradient)" stroke-width="1.5"/>
<polygon points="558.4681566455783,11.13325632981392 578.2858828189779,12.389726568299377 579.190768994851,31.308235375675288 557.1002536326172,32.848540275095495" fill="#1c1c1c" stroke="url(#bloodGradient)" stroke-width="1.5"/>
<polygon points="558.0757883992558,36.519306521694325 579.5095541830913,36.58135751079543 578.0791630454079,58.631038819735465 559.0997144644515,57.525776307117475" fill="#1c1c1c" stroke="url(#bloodGradient)" stroke-width="1.5"/>
<polygon points="557.9919079750775,65.50047839590778 577.2005373825862,64.25361073570802 577.3678856968011,83.76795684313947 557.0718735559128,84.37059380181759" fill="#1c1c1c" stroke="url(#bloodGradient)" stroke-width="1.5"/>
<polygon points="558.2222610803198,90.82103635358379 578.2189702313262,90.22638547046505 579.663887897199,108.99700506958686 558.7144144115553,111.27752054196507" fill="#1c1c1c" stroke="url(#bloodGradient)" stroke-width="1.5"/>
<polygon points="558.1579806692251,114.77599809301067 579.5703166858366,114.64401727463559 578.2743279647925,135.6250674254068 556.024487850665,137.4972666796516" fill="#1c1c1c" stroke="url(#bloodGradient)" stroke-width="1.5"/>
<polygon points="559.5456688327711,142.09081491741154 576.5269875254302,140.10382955350684 579.0785158542877,163.9776675933852 558.6117823494668,163.18304741012656" fill="#1c1c1c" stroke="url(#bloodGradient)" stroke-width="1.5"/>
<polygon points="558.2055813839871,167.1882872351962 578.7160198606762,166.08910085379156 576.794387401955,188.64720427056832 557.8516430384959,187.39111384544884" fill="#1c1c1c" stroke="url(#bloodGradient)" stroke-width="1.5"/>
<polygon points="585.5768676713226,12.52628553366118 605.98020946061,12.47463526853516 604.0106595867979,33.18778071594828 583.3078549488147,30.768695805709005" fill="#1c1c1c" stroke="url(#bloodGradient)" stroke-width="1.5"/>
<polygon points="583.1920320176425,36.63434827268907 603.5764285322667,37.71555460659513 603.042719493998,58.52206130771768 584.9041635104521,56.980307961564435" fill="#1c1c1c" stroke="url(#bloodGradient)" stroke-width="1.5"/>
<polygon points="582.5759154184063,63.61724610175205 602.9817232623585,62.339338811035816 605.9543493159837,84.34242854625045 582.8067382241943,83.20888062066257" fill="#1c1c1c" stroke="url(#bloodGradient)" stroke-width="1.5"/>
<polygon points="583.4474356845162,88.54231284675662 604.3595956393096,91.53074908001601 604.185843490748,111.76506105664308 584.2420336495585,109.49604748850734" fill="#1c1c1c" stroke="url(#bloodGradient)" stroke-width="1.5"/>
<polygon points="584.2884815720442,117.30776108943935 605.9317640438932,117.43264222063327 605.4978819639957,135.9026403265436 585.0945891737149,137.2927901107088" fill="#1c1c1c" stroke="url(#bloodGradient)" stroke-width="1.5"/>
<polygon points="583.1700305300154,141.29117045699232 604.0107469703366,141.255046608384 605.0045907902341,163.89650746024446 582.9555946866809,162.43424389139108" fill="#1c1c1c" stroke="url(#bloodGradient)" stroke-width="1.5"/>
<polygon points="584.1757803033454,168.94547425612103 605.1522784136902,166.80152895522983 604.3625197904239,189.9753973620476 584.0876572101455,189.1268531302473" fill="#1c1c1c" stroke="url(#bloodGradient)" stroke-width="1.5"/>
<polygon points="610.1186795776945,10.816982229027621 628.4983545297407,11.899552983876395 629.9616851139551,33.93384811023313 609.0703365138141,30.521027815680657" fill="#1c1c1c" stroke="url(#bloodGradient)" stroke-width="1.5"/>
<polygon points="610.4908739740238,37.832704825106724 631.43500957669,36.296313606726166 628.5730180138787,57.297503120643476 609.1972786241474,56.7004724269587" fill="#F7A8B8" stroke="url(#bloodGradient)" stroke-width="1.5"/>
<polygon points="609.2785742314039,62.01515413451384 629.4661978515737,62.97992164886968 631.6574789418434,82.78491256162565 609.355307603155,85.35570650368815" fill="#1c1c1c" stroke="url(#bloodGradient)" stroke-width="1.5"/>
<polygon points="609.0966235165728,89.72156023615452 629.0803678646079,88.83414878914797 631.0057597506081,109.89779662236148 611.0760375658131,111.75254610458437" fill="#1c1c1c" stroke="url(#bloodGradient)" stroke-width="1.5"/>
<polygon points="610.0024996011268,117.4386814011775 631.9443368789345,117.54189908244705 630.920856030046,134.74602628643098 609.0094950341794,135.30814399160894" fill="#1c1c1c" stroke="url(#bloodGradient)" stroke-width="1.5"/>
<polygon points="610.0812132727914,143.42257246369178 629.1454353814205,141.6281323248754 629.57789570144,161.97930212865217 610.862837942108,161.3047473028431" fill="#1c1c1c" stroke="url(#bloodGradient)" stroke-width="1.5"/>
<polygon points="609.9547943579239,166.91236625138308 631.2760717992815,168.23115412421703 628.854797314422,188.15520034661802 609.7929941287755,187.41295434718907" fill="#1c1c1c" stroke="url(#bloodGradient)" stroke-width="1.5"/>
<polygon points="634.8565698388173,11.358818862412496 657.5118905322886,10.417372482565721 654.5902965916694,31.180836468067383 636.749089992987,33.012775720853256" fill="#1c1c1c" stroke="url(#bloodGradient)" stroke-width="1.5"/>
<polygon points="635.8476085766341,38.30680720437408 657.3236841761543,38.270339387829026 655.9154588132525,56.45741780926813 635.6407111628739,58.23365552243024" fill="#1c1c1c" stroke="url(#bloodGradient)" stroke-width="1.5"/>
<polygon points="635.9878037765355,63.704935448221796 655.3209962066102,65.21572276271633 656.9830440688174,84.32410823211661 636.7601308265841,84.02309726477826" fill="#1c1c1c" stroke="url(#bloodGradient)" stroke-width="1.5"/>
<polygon points="635.0618912752487,89.09551653311624 655.875278229072,90.97821933384806 654.600072747855,110.211650930649 636.9989548789434,111.38649704156727" fill="#1c1c1c" stroke="url(#bloodGradient)" stroke-width="1.5"/>
<polygon points="636.839132925725,115.29850233470013 657.6306406945914,115.32798704435925 656.1088397582878,136.99616605729454 637.2935154208153,134.55883168411214" fill="#1c1c1c" stroke="url(#bloodGradient)" stroke-width="1.5"/>
<polygon points="636.5262146037586,141.1695255618642 657.7101227483352,140.30139803470024 656.8762362601348,160.47631995068005 634.9494813768144,162.8130324197121" fill="#1c1c1c" stroke="url(#bloodGradient)" stroke-width="1.5"/>
<polygon points="635.8258185520897,167.14957011417346 657.3330942647169,166.25308742086682 654.7520500847046,188.9761520031871 634.2657548732575,189.87584147844834" fill="#1c1c1c" stroke="url(#bloodGradient)" stroke-width="1.5"/>
<polygon points="663.2277810568744,11.23337743620046 682.7475165716835,11.086631650279186 682.6767636007208,32.89054506803337 660.8243008370291,33.29259236010316" fill="#55CDFC" stroke="url(#bloodGradient)" stroke-width="1.5"/>
<polygon points="662.2022251062855,38.653877075504 681.7870218915193,36.37681312945015 683.5625915354058,58.264595105401966 663.4428554098462,57.78122002363475" fill="#1c1c1c" stroke="url(#bloodGradient)" stroke-width="1.5"/>
<polygon points="660.9360687031691,62.26284824555709 682.5676033068822,65.29441468839075 680.5161797893784,84.87792926359813 660.7423670267062,85.58850733780817" fill="#1c1c1c" stroke="url(#bloodGradient)" stroke-width="1.5"/>
<polygon points="661.3458691671713,88.59224909251179 682.9643925613751,88.68465609174223 682.1499572845738,110.61727884467041 661.0071234152398,109.73262163763732" fill="#1c1c1c" stroke="url(#bloodGradient)" stroke-width="1.5"/>
<polygon points="661.1325508310499,114.75110339741083 682.2554688972663,114.42556114500029 682.8939431868058,135.87095656328393 661.8509316528811,134.7065790673411" fill="#1c1c1c" stroke="url(#bloodGradient)" stroke-width="1.5"/>
<polygon points="662.945760607618,143.0477828985905 683.9548423106586,140.61853883042693 683.9002779635082,161.93412238692466 662.5801671130015,160.9160325546092" fill="#1c1c1c" stroke="url(#bloodGradient)" stroke-width="1.5"/>
<polygon points="661.1085252869857,167.24639798234767 683.3609732592166,166.5010071772994 680.6157577540214,187.74176778485625 661.9875730411662,187.0095644107969" fill="#1c1c1c" stroke="url(#bloodGradient)" stroke-width="1.5"/>
<polygon points="688.3199562976673,10.304381970659815 708.8736327686541,12.310727736597688 708.2672734239251,31.171289978864017 686.2832475587426,32.29613352911424" fill="#1c1c1c" stroke="url(#bloodGradient)" stroke-width="1.5"/>
<polygon points="687.1907167923988,36.02236197230515 709.7649169232783,39.454263736416394 709.0325209288592,59.72525912632606 687.621402705523,59.37954827775559" fill="#1c1c1c" stroke="url(#bloodGradient)" stroke-width="1.5"/>
<polygon points="688.3868362001062,63.89387535523943 707.5242603019002,62.04944972364684 707.8927522493852,83.06665456348455 687.1280023934736,82.81280510683656" fill="#1c1c1c" stroke="url(#bloodGradient)" stroke-width="1.5"/>
<polygon points="687.4957237063508,89.43887679053901 709.9796203387092,90.87046218014821 709.5938857380359,108.97559345822117 689.18965084295,109.61893241384101" fill="#1c1c1c" stroke="url(#bloodGradient)" stroke-width="1.5"/>
<polygon points="689.2483820008852,117.35695565528454 708.9026802792589,116.05104111369344 707.8014528096313,134.68957175648256 689.028694898521,136.59511368902153" fill="#1c1c1c" stroke="url(#bloodGradient)" stroke-width="1.5"/>
<polygon points="686.0603057966523,141.1316953164645 706.7556893693903,143.10951599076327 708.9151921668932,163.26096831365996 686.0803682023812,161.86146030679018" fill="#1c1c1c" stroke="url(#bloodGradient)" stroke-width="1.5"/>
<polygon points="688.8884148044067,167.80676209878672 709.8007366484238,166.47098761361548 708.6419566724452,189.17690451912875 686.8036174529636,187.41673200939297" fill="#1c1c1c" stroke="url(#bloodGradient)" stroke-width="1.5"/>
<polygon points="712.4822318590755,13.36156555759636 734.1104818992318,13.529415664284688 732.7718955333304,33.21269390939287 712.4953863851111,32.387212009408785" fill="#1c1c1c" stroke="url(#bloodGradient)" stroke-width="1.5"/>
<polygon points="713.6206847295142,37.61256313567876 735.9923031311747,39.549256706309144 734.7404515353473,57.231803921877805 712.3726951014366,59.11372695334903" fill="#1c1c1c" stroke="url(#bloodGradient)" stroke-width="1.5"/>
<polygon points="712.741969423638,62.87267074066147 734.2861042952887,65.39963972114566 733.7425717149139,85.78322843022542 712.3754039943875,82.68155126884194" fill="#1c1c1c" stroke="url(#bloodGradient)" stroke-width="1.5"/>
<polygon points="713.5923458790761,90.26965304767447 734.9214075318832,90.96010872069137 733.6637383460309,109.22274264204563 715.3315282846521,110.90019284994362" fill="#1c1c1c" stroke="url(#bloodGradient)" stroke-width="1.5"/>
<polygon points="714.6834493153787,117.29271502211824 735.5596004648462,116.33810448289873 733.4603398572825,134.6165071032448 712.4051750718029,137.40464840119535" fill="#1c1c1c" stroke="url(#bloodGradient)" stroke-width="1.5"/>
<polygon points="712.2205622201652,141.99991197777098 733.9439996389558,141.14753583565206 734.1660886138673,162.41046601629697 713.6166774537993,160.49738093273055" fill="#1c1c1c" stroke="url(#bloodGradient)" stroke-width="1.5"/>
<polygon points="713.7955483717183,168.6311089595371 735.5674331340673,166.0774375742649 734.5266078919755,188.95634296481091 715.3187550676037,188.78500526196217" fill="#1c1c1c" stroke="url(#bloodGradient)" stroke-width="1.5"/>
<polygon points="738.284909683333,12.139431555993118 759.4870335479429,10.282134160865425 761.5365758551175,31.947389278251826 740.0185430621382,32.36540199587943" fill="#1c1c1c" stroke="url(#bloodGradient)" stroke-width="1.5"/>
<polygon points="740.4349674245574,37.42242038812099 760.2958549867166,38.56195921811242 761.1118815687669,57.159594617669875 738.9658714901863,59.704879503104245" fill="#1c1c1c" stroke="url(#bloodGradient)" stroke-width="1.5"/>
<polygon points="739.9833102599125,64.09270798979557 761.4213071001735,63.80472122035247 760.8677421670967,83.80346380695907 738.1144705730011,84.78292351522973" fill="#1c1c1c" stroke="url(#bloodGradient)" stroke-width="1.5"/>
<polygon points="738.1627673147505,88.43989483510308 760.4484929414398,89.42671679103563 760.6058373614935,110.20816100777844 740.2059184322582,111.07610661049269" fill="#1c1c1c" stroke="url(#bloodGradient)" stroke-width="1.5"/>
<polygon points="740.5879122392896,114.67032263759624 761.4314602021536,116.45444383393469 761.5958204542936,135.98990439718187 740.9781726505381,136.18525391852938" fill="#1c1c1c" stroke="url(#bloodGradient)" stroke-width="1.5"/>
<polygon points="738.834465013171,142.4363852411471 761.7816237259486,143.020694116557 758.6287648710376,163.74718864317356 739.502922211881,160.6814634755898" fill="#1c1c1c" stroke="url(#bloodGradient)" stroke-width="1.5"/>
<polygon points="739.8662205312911,167.0153577989747 760.620911257886,167.6387843765451 761.7276231668909,188.38562213220175 741.0024324574824,188.85131632425785" fill="#1c1c1c" stroke="url(#bloodGradient)" stroke-width="1.5"/>
<polygon points="764.3266649804472,10.911148558807916 787.2226913738227,11.666237166794016 786.5065450900564,30.454868178994868 767.428040532287,31.813594282815032" fill="#1c1c1c" stroke="url(#bloodGradient)" stroke-width="1.5"/>
<polygon points="766.7456622137731,37.452078114312165 784.7759069779846,37.10818396567146 787.0609372042582,58.11945668026395 765.6711542723734,59.51971729478764" fill="#1c1c1c" stroke="url(#bloodGradient)" stroke-width="1.5"/>
<polygon points="765.5336790580221,64.10592196922931 787.6754025253063,64.56280059148212 785.4129123781933,83.04430616140604 764.9747920581599,84.50015893343458" fill="#1c1c1c" stroke="url(#bloodGradient)" stroke-width="1.5"/>
<polygon points="765.4833986034351,91.56311125542989 785.7805153682757,88.2092828692902 784.5371186469957,110.23747817540166 764.2207267127183,108.85256776382546" fill="#1c1c1c" stroke="url(#bloodGradient)" stroke-width="1.5"/>
<polygon points="767.5844149415861,114.66381328069501 785.6710188346483,115.69420120889667 785.2839182848536,135.37684420897253 766.1530494675845,137.15929952353653" fill="#1c1c1c" stroke="url(#bloodGradient)" stroke-width="1.5"/>
<polygon points="766.318056496084,141.36400065259664 787.2086650908266,143.37019207173537 787.4066082513225,161.6664840035643 764.9780260139607,162.2132996270442" fill="#1c1c1c" stroke="url(#bloodGradient)" stroke-width="1.5"/>
<polygon points="766.8708987556128,167.00420315681615 787.2382754965564,168.8640339169954 785.7094534228609,187.4699465424388 765.9919468645247,188.3523060011437" fill="#1c1c1c" stroke="url(#bloodGradient)" stroke-width="1.5"/>
<polygon points="793.2200421810459,11.458571513308863 811.5716652066739,12.549845859486993 813.3307239573878,30.424877426599497 790.25734991485,31.79743113674965" fill="#1c1c1c" stroke="url(#bloodGradient)" stroke-width="1.5"/>
<polygon points="793.546476175224,37.86494245613605 810.9699116143308,36.626269840250465 813.6339450386054,57.53815887447392 793.0941428515301,58.6066391676521" fill="#1c1c1c" stroke="url(#bloodGradient)" stroke-width="1.5"/>
<polygon points="792.8845554833262,62.96156932073465 813.946596771424,64.4484392268974 811.6695440151394,82.72379288705419 793.4986964884924,82.94428724846195" fill="#1c1c1c" stroke="url(#bloodGradient)" stroke-width="1.5"/>
<polygon points="792.0651394512873,89.8927743057442 812.5941772361189,89.63213043752332 811.9640022873646,108.47061714842869 790.5936759591496,110.32192907847326" fill="#1c1c1c" stroke="url(#bloodGradient)" stroke-width="1.5"/>
<polygon points="792.2390890995388,116.23839631999085 813.9582231949389,115.72243347860629 812.6589434909035,137.52066906675728 791.9048859499703,136.84571844578892" fill="#1c1c1c" stroke="url(#bloodGradient)" stroke-width="1.5"/>
<polygon points="791.2442486744271,141.41701206640428 812.6571091886569,142.92029130846515 813.3953911521513,162.6181209684171 791.088037453049,162.60736862780934" fill="#1c1c1c" stroke="url(#bloodGradient)" stroke-width="1.5"/>
<polygon points="790.1238537621658,168.98327341924517 811.3167093538995,166.28625242490173 813.8051812228294,186.4891317901316 792.3135792182161,186.76859357355545" fill="#1c1c1c" stroke="url(#bloodGradient)" stroke-width="1.5"/>
<polygon points="816.2693376969142,12.21737979748615 838.792076029102,11.032612063425622 838.575272165103,33.864496024976596 818.8451404026985,33.59851413455434" fill="#1c1c1c" stroke="url(#bloodGradient)" stroke-width="1.5"/>
<polygon points="816.5255902084896,36.080964189318806 837.2292322123491,36.335558441235186 838.8426819552905,58.40007768440959 817.6871902927879,58.58749492377989" fill="#1c1c1c" stroke="url(#bloodGradient)" stroke-width="1.5"/>
<polygon points="818.648543938764,62.95486538293926 837.6912671937587,64.3565674907265 838.7569358716252,84.81838750621168 816.2431485188132,83.1714743167318" fill="#1c1c1c" stroke="url(#bloodGradient)" stroke-width="1.5"/>
<polygon points="817.9780262937397,89.17117136956804 838.4372451680173,88.09997954799516 838.9892409952755,110.34743514634008 816.5106342687326,109.26703647669399" fill="#1c1c1c" stroke="url(#bloodGradient)" stroke-width="1.5"/>
<polygon points="819.4645424639041,115.37505540926804 839.6086693319585,116.24634528511355 838.5152085129496,137.0032612221138 816.3000470182354,134.89487461834716" fill="#1c1c1c" stroke="url(#bloodGradient)" stroke-width="1.5"/>
<polygon points="816.621833423278,143.07023203368965 837.7059494019269,140.97251372917884 837.201422540585,161.28409288611317 816.152070544018,163.1994700647879" fill="#1c1c1c" stroke="url(#bloodGradient)" stroke-width="1.5"/>
<polygon points="816.6717148806459,167.48675381896678 837.6965326750253,167.61417214845653 838.6870717556906,189.07810655256054 818.2969376913654,189.4551717803601" fill="#1c1c1c" stroke="url(#bloodGradient)" stroke-width="1.5"/>
<polygon points="842.9277504817001,11.492169826110773 865.0163037361966,13.140005848896365 865.1047890757014,32.3777954486127 843.4488508484482,30.808998695681876" fill="#1c1c1c" stroke="url(#bloodGradient)" stroke-width="1.5"/>
<polygon points="844.3412088990445,39.384566561499646 863.7844971585739,37.7594368729714 863.72973354736,57.704589344173556 845.4448236787047,57.201731772210664" fill="#1c1c1c" stroke="url(#bloodGradient)" stroke-width="1.5"/>
<polygon points="844.4195725228969,62.99286458784337 865.227954733366,65.0816648971983 863.2391725796665,82.61673367337946 844.5704529558203,82.68658151109042" fill="#1c1c1c" stroke="url(#bloodGradient)" stroke-width="1.5"/>
<polygon points="845.1146937611481,91.2322574818636 864.3281635402714,88.96763322793095 864.1210097094647,111.05166895014031 843.359819738617,110.14567019343338" fill="#1c1c1c" stroke="url(#bloodGradient)" stroke-width="1.5"/>
<polygon points="844.5867718684525,116.5240275744207 863.100709813865,114.89408594832925 865.7939119354153,134.87778084708586 842.6319511828713,136.675858350872" fill="#1c1c1c" stroke="url(#bloodGradient)" stroke-width="1.5"/>
<polygon points="842.7089100968474,142.68170125084646 864.2732483553486,140.6327978694385 864.3308509758349,161.04392734535912 842.4918602813843,160.92938816561536" fill="#1c1c1c" stroke="url(#bloodGradient)" stroke-width="1.5"/>
<polygon points="842.103760289729,168.26380736451387 863.1994895266945,166.51973969275534 864.2155552612902,187.67813053290078 845.1514729550021,187.9232574678914" fill="#1c1c1c" stroke="url(#bloodGradient)" stroke-width="1.5"/>
<polygon points="868.8087041668346,12.108420669620116 889.3340159591797,12.402479295452638 888.702763466707,30.549359684383912 868.2574049696321,33.26247885555952" fill="#1c1c1c" stroke="url(#bloodGradient)" stroke-width="1.5"/>
<polygon points="869.6235017903267,38.10131526450803 890.6804807375871,39.030730156813604 888.7245256676026,57.78665973200792 870.8882098436837,56.6998084277028" fill="#1c1c1c" stroke="url(#bloodGradient)" stroke-width="1.5"/>
<polygon points="868.2207844936238,63.59288307262863 889.1417188935997,62.52557461750035 891.7151893233312,84.53439664200167 868.3838341535676,83.79357669721212" fill="#1c1c1c" stroke="url(#bloodGradient)" stroke-width="1.5"/>
<polygon points="869.424434040879,91.06152406350978 889.91112773789,91.55998817400061 891.144642972679,111.1559427295854 870.0287295857904,111.07316892833843" fill="#1c1c1c" stroke="url(#bloodGradient)" stroke-width="1.5"/>
<polygon points="870.3182574810437,116.17956926790774 888.4953601360132,114.54329421234235 891.6105806876876,136.47171922331458 871.0428818783554,137.53291858326298" fill="#1c1c1c" stroke="url(#bloodGradient)" stroke-width="1.5"/>
<polygon points="870.4278082857958,141.48660507300568 890.770540373307,140.93639542436935 889.9106928563285,162.44701311667203 869.4027337736144,163.556863420281" fill="#1c1c1c" stroke="url(#bloodGradient)" stroke-width="1.5"/>
<polygon points="870.5426877052209,169.3923675622627 888.4234151554253,169.33269958500128 890.1676351502416,189.38528049341943 869.3879568169957,189.57895398203306" fill="#1c1c1c" stroke="url(#bloodGradient)" stroke-width="1.5"/>
<polygon points="895.4861961749089,12.980585951555428 915.4516593674579,11.624669825974836 915.0156828092777,33.32790471089969 896.5183085710157,30.698185055195818" fill="#1c1c1c" stroke="url(#bloodGradient)" stroke-width="1.5"/>
<polygon points="897.3031351233125,39.28796592823097 917.7157948106694,38.276841985555485 916.0093828210751,56.8564154350474 896.0473133027881,57.759730274239054" fill="#1c1c1c" stroke="url(#bloodGradient)" stroke-width="1.5"/>
<polygon points="894.0864781897054,64.9674171134006 915.115600449925,64.37680957019515 915.8751523235746,85.03257506758978 896.98668052055,83.72459017101014" fill="#1c1c1c" stroke="url(#bloodGradient)" stroke-width="1.5"/>
<polygon points="895.4650324839326,89.54620322076114 914.6579032338954,91.37665886625935 917.1659784140468,109.54643647401457 895.7792190688268,108.62403220378788" fill="#1c1c1c" stroke="url(#bloodGradient)" stroke-width="1.5"/>
<polygon points="895.4315446984202,116.31669696504221 917.4513475369656,117.40813598653527 917.0853978054855,134.61575720835066 895.7192113479399,136.22760102229148" fill="#1c1c1c" stroke="url(#bloodGradient)" stroke-width="1.5"/>
<polygon points="896.3564380531466,142.1102965257689 915.7704729006888,140.89045486265627 917.9216350185384,163.92319515991642 895.4959398147938,162.76152830435663" fill="#1c1c1c" stroke="url(#bloodGradient)" stroke-width="1.5"/>
<polygon points="894.6000822960918,167.1999165250702 916.7142197472781,168.56566455267117 916.9185386326458,189.26487268107923 894.0435489821257,189.13613985260938" fill="#1c1c1c" stroke="url(#bloodGradient)" stroke-width="1.5"/>
<polygon points="923.2026317499697,10.038170134947647 943.6328463636933,13.347296413034181 941.2609688316131,31.704189775227192 923.1898042019358,31.370451553414746" fill="#1c1c1c" stroke="url(#bloodGradient)" stroke-width="1.5"/>
<polygon points="922.7868313100546,36.9945932414003 942.098844229264,37.020569172858025 942.4617957724603,57.96642435177692 923.4897071459402,59.24078191377757" fill="#1c1c1c" stroke="url(#bloodGradient)" stroke-width="1.5"/>
<polygon points="922.980759957286,63.65501290290956 943.8153251158831,64.41353785632154 942.1401635064154,82.71781568625677 922.658351007411,83.93817057637501" fill="#1c1c1c" stroke="url(#bloodGradient)" stroke-width="1.5"/>
<polygon points="920.2468693276194,91.49727636967862 941.2010242641137,91.22307961860069 942.9924677098995,109.58942063564628 920.7650964110818,109.53083768947172" fill="#1c1c1c" stroke="url(#bloodGradient)" stroke-width="1.5"/>
<polygon points="920.5543678617623,114.56843846535962 940.5293528660886,116.90623314685944 941.3376116426965,136.26352284912116 921.0452012986613,137.66393888644734" fill="#1c1c1c" stroke="url(#bloodGradient)" stroke-width="1.5"/>
<polygon points="921.3660427155262,141.99973400843265 942.0695560647075,140.8080286588984 942.3525538478497,162.31411137110456 923.5065179274538,162.0277202079557" fill="#1c1c1c" stroke="url(#bloodGradient)" stroke-width="1.5"/>
<polygon points="922.4368091394942,169.53245375977207 941.6481430300679,168.15968327272904 943.0374275055085,188.48128660188544 921.7761173188311,189.74633468285225" fill="#1c1c1c" stroke="url(#bloodGradient)" stroke-width="1.5"/>
<polygon points="949.5253378537632,10.389493205290295 966.9381321432945,12.880610109460509 967.8333538034069,32.892019756036866 946.7893315949983,32.34985565512746" fill="#1c1c1c" stroke="url(#bloodGradient)" stroke-width="1.5"/>
<polygon points="947.9714054963532,38.23027671127979 968.6349618402274,36.55746253013287 969.2722225127505,56.44019969938828 947.9278457894127,56.49158454094155" fill="#1c1c1c" stroke="url(#bloodGradient)" stroke-width="1.5"/>
<polygon points="946.7222855264224,64.95974087027784 969.1721274502953,63.86012114656974 969.8689503926628,85.40761046987899 949.2114937306654,83.8683208865687" fill="#1c1c1c" stroke="url(#bloodGradient)" stroke-width="1.5"/>
<polygon points="948.4169466303268,90.4711378670217 969.7875282571817,90.9605306631506 968.8769841603031,108.99488508395771 946.2703462995264,108.89787245194044" fill="#1c1c1c" stroke="url(#bloodGradient)" stroke-width="1.5"/>
<polygon points="948.3611737903552,116.34638174898886 969.6214578638712,114.82840112403898 969.5003598154257,136.42400504548098 947.1644125961001,136.4804688086067" fill="#1c1c1c" stroke="url(#bloodGradient)" stroke-width="1.5"/>
<polygon points="949.2884160786351,143.48603935318803 966.882488304455,142.3342799687823 966.6577351441645,160.85621174150046 946.3111925252042,160.49390727413342" fill="#1c1c1c" stroke="url(#bloodGradient)" stroke-width="1.5"/>
<polygon points="946.527723891036,168.5875048897202 967.4076376280166,167.34460269770247 969.0921093043621,189.08265646408026 947.5054919124701,188.60609233034975" fill="#1c1c1c" stroke="url(#bloodGradient)" stroke-width="1.5"/>
<polygon points="974.7298518230234,10.901300283118257 995.8555445770331,10.71831508939816 993.9518228559557,32.58723726328071 972.5521169854568,33.49454935063958" fill="#1c1c1c" stroke="url(#bloodGradient)" stroke-width="1.5"/>
<polygon points="973.7146870807342,36.11709465471564 995.8324128007365,38.60851037818894 993.9597328067686,59.770116568765204 975.3577271900714,59.168145801955255" fill="#1c1c1c" stroke="url(#bloodGradient)" stroke-width="1.5"/>
<polygon points="973.4845244705717,64.15377898972906 992.7502488216087,62.23045815848987 994.8261453262573,85.11080587558916 973.8588094316091,83.5230267336753" fill="#1c1c1c" stroke="url(#bloodGradient)" stroke-width="1.5"/>
<polygon points="975.3668425900098,88.79872940251032 993.8995199511259,89.48095564465937 993.430114477846,109.67594979696797 972.5179882974641,111.90326772872828" fill="#1c1c1c" stroke="url(#bloodGradient)" stroke-width="1.5"/>
<polygon points="973.7710644896897,116.11206618960236 992.7113731349042,117.33679829384442 992.8238208264479,137.60129324956844 973.1961788141763,136.22000103183672" fill="#1c1c1c" stroke="url(#bloodGradient)" stroke-width="1.5"/>
<polygon points="972.8178725600512,143.25211497560443 995.8065531570385,140.13142519047852 994.2246095985419,161.0344940748595 973.314133906199,163.533207362192" fill="#1c1c1c" stroke="url(#bloodGradient)" stroke-width="1.5"/>
<polygon points="975.4753500413868,167.1907546804625 992.7901059377499,166.6527211939338 995.3229645351938,187.44581575181337 975.0618932362645,188.89047006464534" fill="#F7A8B8" stroke="url(#bloodGradient)" stroke-width="1.5"/>
<polygon points="1001.23407263898,10.583512000268843 1019.2958706641006,13.013985072559416 1019.8853856797293,32.1271307024731 998.1229907025174,31.957145022694636" fill="#1c1c1c" stroke="url(#bloodGradient)" stroke-width="1.5"/>
<polygon points="1000.0744960007172,37.90424331183852 1018.5490523372113,39.397324353530216 1021.8207159856736,59.056024757338996 1001.2887005255329,58.26978300183409" fill="#1c1c1c" stroke="url(#bloodGradient)" stroke-width="1.5"/>
<polygon points="1000.1005503304044,65.20137484027092 1020.9866166967594,62.10175128297845 1019.6138584087471,84.58225392767038 1000.3559744720653,84.74943587903121" fill="#1c1c1c" stroke="url(#bloodGradient)" stroke-width="1.5"/>
<polygon points="1001.120434389738,91.13220230216908 1021.5117632297912,88.66736871879348 1020.1285864920113,109.31696912162208 1001.4413328786708,111.49408198787161" fill="#1c1c1c" stroke="url(#bloodGradient)" stroke-width="1.5"/>
<polygon points="998.6471402055822,117.41588415945918 1018.595816628823,117.47250579124395 1021.5386346687039,135.73556179099114 999.4082987348252,134.4724779010119" fill="#1c1c1c" stroke="url(#bloodGradient)" stroke-width="1.5"/>
<polygon points="998.2387430187822,143.28829084107542 1021.9799362312344,142.52216712142538 1021.0618341228857,160.43986575846142 1000.9703878793597,161.27208659959882" fill="#1c1c1c" stroke="url(#bloodGradient)" stroke-width="1.5"/>
<polygon points="998.4301346412951,167.6395025361056 1020.7194618356351,167.26200357216973 1019.9292039332039,189.67397862442937 1001.4077051237534,189.5824457289246" fill="#1c1c1c" stroke="url(#bloodGradient)" stroke-width="1.5"/>
<polygon points="1026.2741026760957,11.916869727995334 1047.9149863392965,10.734595563679566 1044.7434464211024,32.39624859415414 1024.3184127623424,32.76981869591561" fill="#1c1c1c" stroke="url(#bloodGradient)" stroke-width="1.5"/>
<polygon points="1024.1494755580056,38.78306934122395 1047.6000299250734,38.3506714560557 1047.4585351205199,57.12406670031688 1026.6280117914037,58.946299880561305" fill="#1c1c1c" stroke="url(#bloodGradient)" stroke-width="1.5"/>
<polygon points="1027.5204542810332,62.576049058657134 1045.3288067382002,65.29051362960354 1047.6255420319483,82.98808864037387 1025.637403083024,83.75519951917788" fill="#1c1c1c" stroke="url(#bloodGradient)" stroke-width="1.5"/>
<polygon points="1025.609872837187,90.60195102612798 1044.961974254421,88.04823443692133 1046.3630964683302,109.09185082764178 1024.1136276857399,109.74517228100441" fill="#1c1c1c" stroke="url(#bloodGradient)" stroke-width="1.5"/>
<polygon points="1026.3104836189182,115.66059484527429 1047.4270973291084,115.28740068345842 1044.7171128071236,136.6589993784691 1025.705200352305,136.58527625377292" fill="#1c1c1c" stroke="url(#bloodGradient)" stroke-width="1.5"/>
<polygon points="1026.8613032601081,142.2041364577329 1045.3152422810567,142.20560310827753 1046.9003996945078,162.00993808012853 1025.9520148555575,160.4715368787192" fill="#1c1c1c" stroke="url(#bloodGradient)" stroke-width="1.5"/>
<polygon points="1026.4644929816202,168.236659675793 1045.2088671371496,167.76369410846826 1046.6827126926526,186.56135361375 1027.4477708451861,186.4167494307149" fill="#1c1c1c" stroke="url(#bloodGradient)" stroke-width="1.5"/>
<polygon points="1051.9536402145106,10.63681376519273 1073.411891746119,13.008433359317996 1073.770285782273,31.309022315983082 1052.9770161812442,33.841599719785926" fill="#1c1c1c" stroke="url(#bloodGradient)" stroke-width="1.5"/>
<polygon points="1051.3961188602107,36.622575159055195 1070.6893980607915,39.503659018555666 1071.3543013509548,59.86953465075465 1051.6837027478662,57.97977092340946" fill="#1c1c1c" stroke="url(#bloodGradient)" stroke-width="1.5"/>
<polygon points="1052.047043214291,62.58402256774502 1071.035864889281,64.5616826878081 1071.032609631318,85.55046285059166 1051.9432862991277,83.61954111446727" fill="#1c1c1c" stroke="url(#bloodGradient)" stroke-width="1.5"/>
<polygon points="1050.2350100908009,90.96054180994683 1072.3276398010967,91.03327989924648 1071.6059361743874,110.92638846626701 1051.316128092161,111.07331767948563" fill="#1c1c1c" stroke="url(#bloodGradient)" stroke-width="1.5"/>
<polygon points="1051.1102660131712,114.43149536243025 1071.7418130652804,117.09867727561065 1071.0178064376503,135.93796551483683 1052.5918803674872,137.8661105039174" fill="#1c1c1c" stroke="url(#bloodGradient)" stroke-width="1.5"/>
<polygon points="1050.501156194083,142.44142240389414 1071.4450670674287,140.12212465210018 1073.2514806371098,162.7629002217451 1050.4611254845368,161.58443823964956" fill="#1c1c1c" stroke="url(#bloodGradient)" stroke-width="1.5"/>
<polygon points="1052.426370973083,169.1662580061112 1071.8659912262417,167.93575539463785 1072.6955309227544,188.94080054463717 1053.2263485213539,189.586237845207" fill="#1c1c1c" stroke="url(#bloodGradient)" stroke-width="1.5"/>
<polygon points="1077.3225366038246,10.790426174922452 1099.4847398118047,11.876855202223712 1096.481251467153,32.372903754404675 1079.1912744414997,31.643971542014846" fill="#1c1c1c" stroke="url(#bloodGradient)" stroke-width="1.5"/>
<polygon points="1077.6987642405652,38.285897226029405 1099.7671890673696,36.254261666691164 1098.5680980381467,57.64954770356868 1079.4478690606766,58.03926922594803" fill="#1c1c1c" stroke="url(#bloodGradient)" stroke-width="1.5"/>
<polygon points="1077.3325558253746,65.31440020483211 1097.0739423959635,63.41432553989948 1096.5626511915762,82.53370987874285 1078.1676418471914,84.38285622227043" fill="#1c1c1c" stroke="url(#bloodGradient)" stroke-width="1.5"/>
<polygon points="1077.2455087279175,91.0430978541055 1098.9103992354007,90.94715258646264 1098.142768055057,108.69152790513348 1079.4191949129101,108.88995213814819" fill="#1c1c1c" stroke="url(#bloodGradient)" stroke-width="1.5"/>
<polygon points="1077.815638644916,115.5430461760621 1099.6238757776277,114.04684143492588 1098.606302961247,136.61629514331173 1076.6801773894856,137.64231936224274" fill="#1c1c1c" stroke="url(#bloodGradient)" stroke-width="1.5"/>
<polygon points="1078.627596912381,141.12630288911546 1098.9366549171616,143.56524582327762 1097.2776812456636,160.55153545990217 1078.5987406223082,160.4724236278677" fill="#1c1c1c" stroke="url(#bloodGradient)" stroke-width="1.5"/>
<polygon points="1076.8742136653946,167.31690351442018 1098.6048513400283,167.82484444267703 1096.6579375009696,187.65910367463968 1079.500102391298,188.37197715788184" fill="#1c1c1c" stroke="url(#bloodGradient)" stroke-width="1.5"/>
<polygon points="1104.4689584393561,11.648043487334164 1123.3935188047958,12.351362789845705 1123.5690617426806,33.472890489702806 1104.9636535741208,31.28273849805056" fill="#1c1c1c" stroke="url(#bloodGradient)" stroke-width="1.5"/>
<polygon points="1103.491294683114,37.894820241965114 1123.3314344948167,36.24807264835829 1125.7658681566252,58.63809211539126 1102.326907807834,59.21179433776755" fill="#1c1c1c" stroke="url(#bloodGradient)" stroke-width="1.5"/>
<polygon points="1102.0515148849,64.47115860373908 1125.0833261327614,65.21812040149067 1122.5688206660873,84.46614616888773 1104.8906391111132,83.0556372639012" fill="#1c1c1c" stroke="url(#bloodGradient)" stroke-width="1.5"/>
<polygon points="1104.503403813814,89.98870689244846 1124.0077449662708,90.5999483334278 1123.407431032184,111.63694215325191 1104.7842365518106,111.21796573229247" fill="#1c1c1c" stroke="url(#bloodGradient)" stroke-width="1.5"/>
<polygon points="1103.128295312297,116.47139973806328 1124.7176235775717,116.72057198988942 1122.5556842379192,136.26905194465414 1102.1648942780387,137.01174578998" fill="#1c1c1c" stroke="url(#bloodGradient)" stroke-width="1.5"/>
<polygon points="1103.8327387476463,140.88483070488263 1125.8912015640788,141.75965239557507 1122.9222979242984,161.28812472220042 1105.0379839812208,163.70380213339192" fill="#1c1c1c" stroke="url(#bloodGradient)" stroke-width="1.5"/>
<polygon points="1103.5291709748658,169.3726081509674 1125.0097834622236,167.88648007742106 1124.3741793479103,186.84018393804485 1102.862454945284,188.98481882725966" fill="#1c1c1c" stroke="url(#bloodGradient)" stroke-width="1.5"/>
<polygon points="1129.9992842595655,10.463914399984095 1150.8745515365458,11.213734405588186 1151.9048403731342,32.80474027840721 1128.4063084494085,30.977357454926857" fill="#1c1c1c" stroke="url(#bloodGradient)" stroke-width="1.5"/>
<polygon points="1128.057415067779,37.42669646518212 1149.395442075453,37.59579921196885 1149.4989261496244,57.040235535498944 1130.1073180515777,57.50226818765755" fill="#1c1c1c" stroke="url(#bloodGradient)" stroke-width="1.5"/>
<polygon points="1129.176175032378,64.58888674590204 1148.7440484319325,63.60933449806714 1151.0279537990527,84.62593035444276 1130.4589777883411,85.0554343256547" fill="#1c1c1c" stroke="url(#bloodGradient)" stroke-width="1.5"/>
<polygon points="1131.563222685725,89.01854951896735 1150.7869244579617,89.17537244474227 1149.3743775497187,108.41057773695805 1129.0485321773567,109.86326984385211" fill="#1c1c1c" stroke="url(#bloodGradient)" stroke-width="1.5"/>
<polygon points="1131.4383268106644,116.2884640604655 1149.164528865258,117.25536598849612 1150.6078312551128,137.05140833880262 1128.3838010342445,137.81316747643058" fill="#1c1c1c" stroke="url(#bloodGradient)" stroke-width="1.5"/>
<polygon points="1131.0212366952485,143.4377165643991 1148.857628206057,142.29139765975535 1148.413813801389,163.315467889585 1130.7551307883762,162.46226913647368" fill="#1c1c1c" stroke="url(#bloodGradient)" stroke-width="1.5"/>
<polygon points="1131.3371672339556,166.24979715953017 1150.7619997604404,167.84264016763024 1148.6168455823797,188.9415143967345 1128.8755526397754,189.38330205273263" fill="#1c1c1c" stroke="url(#bloodGradient)" stroke-width="1.5"/>
<polygon points="1154.4586870128712,11.37676175828167 1176.024418820964,12.392422844022446 1174.842973567688,33.72137712723766 1155.3196784560027,33.57137814386975" fill="#1c1c1c" stroke="url(#bloodGradient)" stroke-width="1.5"/>
<polygon points="1157.0257457362143,36.71484474385307 1177.1656532369466,37.35139449655571 1174.733773360494,57.87204346222688 1157.4157947059134,58.0716222134851" fill="#1c1c1c" stroke="url(#bloodGradient)" stroke-width="1.5"/>
<polygon points="1156.9958556721467,64.41322849789988 1176.0451507266473,65.51622703954267 1177.187787076999,83.41865043207694 1154.2996150233084,84.55355773489946" fill="#1c1c1c" stroke="url(#bloodGradient)" stroke-width="1.5"/>
<polygon points="1154.1532697806279,89.15186940067872 1176.1199706634982,90.62669863162014 1175.4080494522264,110.72738265392357 1154.6145922702606,110.96220774794787" fill="#1c1c1c" stroke="url(#bloodGradient)" stroke-width="1.5"/>
<polygon points="1154.1919509863253,115.69223049107283 1175.2050194597361,115.8461345278344 1177.6985182835401,136.9542917371218 1156.2577693933022,134.5381980886831" fill="#1c1c1c" stroke="url(#bloodGradient)" stroke-width="1.5"/>
<polygon points="1156.6749236668043,140.6523546029336 1175.368740009229,142.7798222466167 1176.5365579702616,162.236101324967 1156.2157894045852,163.70973307653844" fill="#1c1c1c" stroke="url(#bloodGradient)" stroke-width="1.5"/>
<polygon points="1156.3509339628458,166.43025107786315 1177.5669744544684,167.00085675780642 1177.4889042176842,188.04474348194125 1156.4538174172042,187.8172651916059" fill="#1c1c1c" stroke="url(#bloodGradient)" stroke-width="1.5"/>
<polygon points="1181.8066526112502,10.116118653779305 1200.5432748113385,10.835036372840934 1201.0349882602375,32.22186082189039 1180.4093483089005,33.91202594965393" fill="#1c1c1c" stroke="url(#bloodGradient)" stroke-width="1.5"/>
<polygon points="1181.3966942415195,36.31854362811425 1201.2300107848794,39.30131788208372 1201.3695547940438,57.88747768259636 1181.1479238691304,59.2911071945995" fill="#1c1c1c" stroke="url(#bloodGradient)" stroke-width="1.5"/>
<polygon points="1181.3612742951443,65.04159264013485 1202.2648254448518,64.53191608494211 1202.7947450426013,83.36745332797165 1182.3385786800034,84.04544442525508" fill="#1c1c1c" stroke="url(#bloodGradient)" stroke-width="1.5"/>
<polygon points="1180.8131711364647,88.36398248694675 1203.446407925558,90.30800420933099 1202.3383938489933,108.81173230613514 1180.7381720856545,109.9218638216971" fill="#1c1c1c" stroke="url(#bloodGradient)" stroke-width="1.5"/>
<polygon points="1183.5446724044102,114.45069192921865 1202.5811098335694,115.39308363940981 1201.8531540583356,134.9872633647631 1181.9643832650775,135.02333440796227" fill="#1c1c1c" stroke="url(#bloodGradient)" stroke-width="1.5"/>
<polygon points="1180.2254286762675,142.07688691712667 1203.2154664351679,142.3496284065427 1200.8663922432183,161.58277528821037 1181.477496814196,163.34420250373597" fill="#1c1c1c" stroke="url(#bloodGradient)" stroke-width="1.5"/>
<polygon points="1182.084926483686,169.3082783636969 1203.2953140396398,167.82604246675163 1203.526258127736,189.0453151703161 1182.1721966134887,186.54143001743526" fill="#1c1c1c" stroke="url(#bloodGradient)" stroke-width="1.5"/>
<polygon points="1206.994400093462,10.690086678600558 1229.328350252728,13.437788116905782 1229.7762986914736,31.32757041710496 1207.5205176256277,32.28782982616284" fill="#1c1c1c" stroke="url(#bloodGradient)" stroke-width="1.5"/>
<polygon points="1207.374028925405,37.297026701049504 1226.5032157930732,37.815683046363986 1228.0334670295038,57.41468278660499 1207.4962217349057,56.69677882453212" fill="#1c1c1c" stroke="url(#bloodGradient)" stroke-width="1.5"/>
<polygon points="1208.2144159342627,64.28005826542068 1227.013980423755,63.06503663884339 1226.4661615592101,82.51042878341183 1209.3707341826987,85.97760759480101" fill="#1c1c1c" stroke="url(#bloodGradient)" stroke-width="1.5"/>
<polygon points="1207.6131344082194,90.7407432675166 1227.6021480110803,91.52480655476309 1229.8519298941394,111.85412088362867 1208.9322903788193,108.82654408980999" fill="#1c1c1c" stroke="url(#bloodGradient)" stroke-width="1.5"/>
<polygon points="1207.075435562437,115.36596742653259 1226.488097549206,117.36490436616464 1226.7740789144975,134.5039675935395 1206.1422438068098,135.26875196868582" fill="#1c1c1c" stroke="url(#bloodGradient)" stroke-width="1.5"/>
<polygon points="1208.7271881744534,141.97142129225745 1227.0026041327333,143.05684473591361 1228.0545480864798,161.9198560342687 1208.1506404660504,161.71971993702283" fill="#55CDFC" stroke="url(#bloodGradient)" stroke-width="1.5"/>
<polygon points="1207.3866688744577,168.38457529487357 1227.5045660826784,168.7552212572735 1229.7168679899282,188.85634147012388 1207.5692803148352,188.7248690829233" fill="#1c1c1c" stroke="url(#bloodGradient)" stroke-width="1.5"/>
<polygon points="1234.7483196573332,11.100728730050449 1252.8540433452256,12.235983015311554 1255.2477384500144,33.19892176858655 1234.136989137245,31.519560856656394" fill="#1c1c1c" stroke="url(#bloodGradient)" stroke-width="1.5"/>
<polygon points="1233.1452515211054,37.72296378468783 1253.2838870403675,36.43735526996032 1253.8921479384194,57.66332981224101 1235.529543212562,57.626872034973516" fill="#1c1c1c" stroke="url(#bloodGradient)" stroke-width="1.5"/>
<polygon points="1235.011200411064,64.488940536798 1255.9868960574704,63.74796205449217 1253.790968325858,83.67307885192007 1234.0544543739704,85.86297291706572" fill="#F7A8B8" stroke="url(#bloodGradient)" stroke-width="1.5"/>
<polygon points="1235.4090796813598,89.29227870143154 1255.0245634400355,89.08663296474664 1253.58315387928,109.73347747226407 1234.9978869376423,111.38456934135199" fill="#1c1c1c" stroke="url(#bloodGradient)" stroke-width="1.5"/>
<polygon points="1232.6743081260597,114.17833258166405 1253.403154922335,115.87634991346339 1253.7096138194438,136.58924549167915 1232.752576758588,137.35067560676353" fill="#FFFFFF" stroke="url(#bloodGradient)" stroke-width="1.5"/>
<polygon points="1235.3285651534638,142.68150841551335 1253.7659603024324,143.0165096608127 1255.8185666839497,163.98524061612986 1234.8288145979577,163.78010315825188" fill="#1c1c1c" stroke="url(#bloodGradient)" stroke-width="1.5"/>
<polygon points="1232.0513837305045,168.85040874414398 1254.4798502539402,168.9881711500793 1252.9885279714401,188.28127673948083 1232.777275679675,187.24238720749284" fill="#55CDFC" stroke="url(#bloodGradient)" stroke-width="1.5"/>
<polygon points="1259.5046330016335,12.937596453511816 1279.8849781244267,10.669510445392515 1281.0576232517535,33.242937558213995 1258.0589057941213,30.47921108424716" fill="#1c1c1c" stroke="url(#bloodGradient)" stroke-width="1.5"/>
<polygon points="1258.998076033093,38.851205118306915 1281.3932020723596,38.88283489125183 1280.3308460672908,59.21602869397206 1258.7468207398044,59.97195352946052" fill="#1c1c1c" stroke="url(#bloodGradient)" stroke-width="1.5"/>
<polygon points="1260.2551084627405,65.37299169344166 1279.5883576846195,64.45962940393737 1280.0597816020486,85.00582511746843 1259.2912032234403,84.80872056027847" fill="#1c1c1c" stroke="url(#bloodGradient)" stroke-width="1.5"/>
<polygon points="1259.8161776066404,91.42065340805175 1278.6924806888248,88.55535598899934 1281.5321073373018,111.75740295290555 1258.2495952694767,109.36448900247555" fill="#1c1c1c" stroke="url(#bloodGradient)" stroke-width="1.5"/>
<polygon points="1260.7513247827196,115.56813444230565 1280.0779396875037,115.7054307255456 1280.767544419937,135.75593532379804 1261.3428684863306,136.23995244364508" fill="#1c1c1c" stroke="url(#bloodGradient)" stroke-width="1.5"/>
<polygon points="1258.0635407069624,142.25907095099225 1281.8287498994857,142.54171108490166 1281.6123788961895,161.88836069083553 1258.5459225190368,162.3937946392475" fill="#1c1c1c" stroke="url(#bloodGradient)" stroke-width="1.5"/>
<polygon points="1259.0917805618749,166.86683245082045 1281.6075029471174,169.2697118411316 1278.7688401795608,189.8180689783826 1258.400936586207,187.16093117482768" fill="#1c1c1c" stroke="url(#bloodGradient)" stroke-width="1.5"/>
<polygon points="1286.816688157355,11.838665228258536 1306.0853697848513,13.192972384080882 1305.6506776724027,32.85962554265997 1284.5678639325483,30.83105133294391" fill="#1c1c1c" stroke="url(#bloodGradient)" stroke-width="1.5"/>
<polygon points="1284.082736706638,36.355047999017614 1305.4827212246566,39.38349867756916 1305.236118137906,58.59400605722058 1287.3584390921044,59.32971826966382" fill="#1c1c1c" stroke="url(#bloodGradient)" stroke-width="1.5"/>
<polygon points="1285.3142131560369,64.79030834925928 1305.0542121117062,62.17682370984221 1307.0903849826138,83.36799937787708 1284.0437324399863,83.16186647395597" fill="#1c1c1c" stroke="url(#bloodGradient)" stroke-width="1.5"/>
<polygon points="1285.0753604763033,90.41309297677462 1305.875539637996,89.84935167866746 1306.8576762461971,109.30657316023036 1285.5788639349153,111.6381082754539" fill="#1c1c1c" stroke="url(#bloodGradient)" stroke-width="1.5"/>
<polygon points="1285.2647028298584,115.42904454846663 1305.2507143021617,116.9332309325898 1306.3287965022248,137.34287916110264 1284.5677727672753,137.3565886251033" fill="#1c1c1c" stroke="url(#bloodGradient)" stroke-width="1.5"/>
<polygon points="1286.4564621457348,143.01806807619585 1307.656156950747,140.53849526305663 1307.0794635069124,161.76050010985946 1287.3454172526144,163.2656780013536" fill="#1c1c1c" stroke="url(#bloodGradient)" stroke-width="1.5"/>
<polygon points="1287.0873727837825,168.84264079674526 1305.6913636025702,168.96828516237187 1306.37671250569,187.61107099828533 1286.7048756572494,188.61308763542354" fill="#1c1c1c" stroke="url(#bloodGradient)" stroke-width="1.5"/>
<polygon points="1311.3232173867227,11.214827144526557 1330.6270977428692,13.313406319037147 1331.4603485957052,31.673751888099808 1313.1877680566565,32.64089801859313" fill="#1c1c1c" stroke="url(#bloodGradient)" stroke-width="1.5"/>
<polygon points="1310.9452661415141,38.21950124214958 1332.9750414240164,38.44644948230098 1332.3960014194731,57.89634892393357 1310.2199827272711,58.54898758417861" fill="#1c1c1c" stroke="url(#bloodGradient)" stroke-width="1.5"/>
<polygon points="1313.3610395842504,65.56251644009637 1332.1425339564064,62.48945866673991 1332.7139721909498,84.41905792497967 1313.4693677803507,84.29374942854967" fill="#1c1c1c" stroke="url(#bloodGradient)" stroke-width="1.5"/>
<polygon points="1310.1512171592808,90.36356166447395 1331.6405624304025,90.31797733372201 1331.4369674503127,108.65157876593736 1310.6921843388297,111.87919723590488" fill="#1c1c1c" stroke="url(#bloodGradient)" stroke-width="1.5"/>
<polygon points="1310.4492619203938,116.14008159817116 1333.3912661520287,114.9173038730838 1331.2899845598417,137.88593250101079 1312.333042661791,135.5382226417616" fill="#1c1c1c" stroke="url(#bloodGradient)" stroke-width="1.5"/>
<polygon points="1312.165738968599,142.16950655759666 1330.7875028599308,140.0413972085315 1333.0907420233941,162.09008617664742 1312.1928596618282,163.42360220647848" fill="#1c1c1c" stroke="url(#bloodGradient)" stroke-width="1.5"/>
<polygon points="1310.5540824040936,167.26120357659417 1331.121230684506,167.02091177879262 1333.6827004356824,186.99163198861345 1310.7358337731382,186.40001024896245" fill="#1c1c1c" stroke="url(#bloodGradient)" stroke-width="1.5"/>
<polygon points="1338.2162279143738,11.21282719803888 1359.4988496705585,10.423886193617422 1357.1852079087646,31.80121032650462 1337.4885308345854,31.398469985759807" fill="#1c1c1c" stroke="url(#bloodGradient)" stroke-width="1.5"/>
<polygon points="1336.6859648199616,36.48221082650818 1359.9483839701213,37.89750394216206 1359.8230241849349,57.580571873081695 1336.9481084830174,58.041877387623465" fill="#1c1c1c" stroke="url(#bloodGradient)" stroke-width="1.5"/>
<polygon points="1336.587721726029,64.49350684598154 1359.4306933298913,64.16249261058071 1358.7293526509607,85.58567601027353 1338.4174698030467,83.0470954115367" fill="#1c1c1c" stroke="url(#bloodGradient)" stroke-width="1.5"/>
<polygon points="1337.2131933768974,89.38966911059241 1357.0981197921199,90.51743860766143 1357.4947778084734,108.87306447709878 1339.310012662401,110.62802848922182" fill="#FFFFFF" stroke="url(#bloodGradient)" stroke-width="1.5"/>
<polygon points="1338.1664060875637,114.84135264214495 1356.6863323393718,116.88287048510429 1357.0427972025855,137.04909409219258 1336.4496105670096,137.92878612779978" fill="#1c1c1c" stroke="url(#bloodGradient)" stroke-width="1.5"/>
<polygon points="1336.905342682981,141.62217864534648 1359.9264292765354,140.61320592422257 1359.1608148698795,161.39427142341336 1337.7529570550253,161.43125638710646" fill="#FFFFFF" stroke="url(#bloodGradient)" stroke-width="1.5"/>
<polygon points="1337.8447775636255,168.89389666219955 1357.8114363909685,168.81164794533407 1359.4960719355088,188.53591833449502 1338.0903020789574,189.04478308074195" fill="#1c1c1c" stroke="url(#bloodGradient)" stroke-width="1.5"/>
<polygon points="1365.4016127281104,10.44034476729759 1385.7936283169552,12.639570330974733 1382.92026854174,32.88988296383599 1363.6458870844647,30.8479504237301" fill="#1c1c1c" stroke="url(#bloodGradient)" stroke-width="1.5"/>
<rect x="10" y="10" width="1376" height="180" fill="url(#ukFlag)" mask="url(#fractureMask)" opacity="0.3"/>
<path d="M10 20 L750 30" stroke="#8B0000" stroke-width="3" opacity="0.25">
      <animate attributeName="opacity" values="0.25;0.6;0.25" dur="5s" repeatCount="indefinite" begin="0s"/>
    </path>
<path d="M100 0 L90 180" stroke="#8B0000" stroke-width="3" opacity="0.25">
      <animate attributeName="opacity" values="0.25;0.6;0.25" dur="6s" repeatCount="indefinite" begin="1s"/>
    </path>
<path d="M300 10 L310 170" stroke="#8B0000" stroke-width="3" opacity="0.25">
      <animate attributeName="opacity" values="0.25;0.6;0.25" dur="7s" repeatCount="indefinite" begin="2s"/>
    </path>
<path d="M400 20 L410 160" stroke="#8B0000" stroke-width="3" opacity="0.25">
      <animate attributeName="opacity" values="0.25;0.6;0.25" dur="8s" repeatCount="indefinite" begin="3s"/>
    </path>
<path d="M600 0 L590 180" stroke="#8B0000" stroke-width="3" opacity="0.25">
      <animate attributeName="opacity" values="0.25;0.6;0.25" dur="9s" repeatCount="indefinite" begin="4s"/>
    </path>
<text x="10" y="130" fill="#8B0000" font-weight="bold" font-size="18" filter="url(#glitchFilter)" opacity="0.85">TEAR DOWN THE EMPIRE</text>
<text x="10" y="148" fill="#8B0000" font-weight="bold" font-size="18" filter="url(#glitchFilter)" opacity="0.85">REVOLT AGAINST REFORM UK</text>
<text x="10" y="166" fill="#8B0000" font-weight="bold" font-size="18" filter="url(#glitchFilter)" opacity="0.85">TRANS LIBERATION NOW</text>
</svg>