<svg width="760" height="180" viewBox="0 0 760 180" xmlns="http://www.w3.org/2000/svg" style="background:#121212; border-radius: 8px; font-family: monospace;">

  <defs>
    <!-- Trans Flag Gradient -->
    <linearGradient id="transGradient" x1="0" y1="0" x2="0" y2="1">
      <stop offset="0%" stop-color="#55CDFC"/>
      <stop offset="33%" stop-color="#F7A8B8"/>
      <stop offset="66%" stop-color="#FFFFFF"/>
      <stop offset="100%" stop-color="#F7A8B8"/>
    </linearGradient>

    <!-- Blood Red Gradient for outlines -->
    <linearGradient id="bloodGradient" x1="0" y1="0" x2="1" y2="1">
      <stop offset="0%" stop-color="#8B0000"/>
      <stop offset="100%" stop-color="#450000"/>
    </linearGradient>

    <!-- UK Flag Pattern -->
    <pattern id="ukFlag" x="0" y="0" width="40" height="40" patternUnits="userSpaceOnUse">
      <rect width="40" height="40" fill="#00247d"/>
      <path d="M0 0 L40 40 M40 0 L0 40" stroke="#fff" stroke-width="5"/>
      <path d="M0 18 L40 18 M20 0 L20 40" stroke="#cf142b" stroke-width="10"/>
      <path d="M0 15 L40 25 M15 0 L25 40" stroke="#fff" stroke-width="6"/>
      <path d="M0 16 L40 24 M16 0 L24 40" stroke="#cf142b" stroke-width="4"/>
    </pattern>

    <!-- Fracture mask for UK flag cracks -->
    <mask id="fractureMask">
      <rect width="100%" height="100%" fill="white"/>
      <!-- Cracks flickering -->
      <path d="M50 0 L60 180" stroke="black" stroke-width="4" opacity="0.3">
        <animate attributeName="opacity" values="0.3;0;0.3" dur="6s" repeatCount="indefinite"/>
      </path>
      <path d="M120 0 L130 180" stroke="black" stroke-width="3" opacity="0.2">
        <animate attributeName="opacity" values="0.2;0;0.2" dur="8s" repeatCount="indefinite" begin="2s"/>
      </path>
      <path d="M200 0 L210 180" stroke="black" stroke-width="5" opacity="0.25">
        <animate attributeName="opacity" values="0.25;0;0.25" dur="5s" repeatCount="indefinite" begin="4s"/>
      </path>
      <path d="M280 0 L290 180" stroke="black" stroke-width="3" opacity="0.15">
        <animate attributeName="opacity" values="0.15;0;0.15" dur="7s" repeatCount="indefinite" begin="1s"/>
      </path>
    </mask>

    <!-- Glitch text filter -->
    <filter id="glitchFilter" x="-10%" y="-10%" width="120%" height="120%">
      <feColorMatrix in="SourceGraphic" type="matrix"
        values="1 0 0 0 0
                0 1 0 0 0
                0 0 1 0 0
                0 0 0 20 -10"/>
      <feOffset dx="2" dy="0" result="off1"/>
      <feOffset dx="-2" dy="0" result="off2"/>
      <feMerge>
        <feMergeNode in="off1"/>
        <feMergeNode in="off2"/>
        <feMergeNode in="SourceGraphic"/>
      </feMerge>
    </filter>
  </defs>
<rect width="760" height="180" fill="#121212"/>
<polygon points="12.422021701812584,11.060501922694186 33.79088429399675,11.59694613627943 31.041160531524874,31.98063471010777 12.50101224434269,33.44598131732753" fill="#1c1c1c" stroke="url(#bloodGradient)" stroke-width="1.5"/>
<polygon points="11.927889495488456,37.99180504136083 32.59670068565716,38.95880623395071 32.90922456417914,57.04919658914022 10.36211260290387,57.16851725360725" fill="#1c1c1c" stroke="url(#bloodGradient)" stroke-width="1.5"/>
<polygon points="11.30257148407724,64.86162406555329 32.929181540788576,63.39956546049605 31.360793199293877,83.61566834471435 13.423535486299615,84.75085448855448" fill="#1c1c1c" stroke="url(#bloodGradient)" stroke-width="1.5"/>
<polygon points="11.433480131727936,90.18653878429879 31.338152056436094,89.2072109735276 32.39194333831886,111.71868554064753 11.164145319363497,108.70940388870793" fill="#55CDFC" stroke="url(#bloodGradient)" stroke-width="1.5"/>
<polygon points="12.266389842899688,115.53340608270244 32.5723345296817,117.59107960283791 30.579207004904195,135.63853397155643 12.27352531497024,136.62388068951358" fill="#1c1c1c" stroke="url(#bloodGradient)" stroke-width="1.5"/>
<polygon points="13.26060621235639,141.78653830316546 33.54440953763413,141.61099489273204 31.482431033009817,163.77338989410094 10.51009501261767,162.19045618239483" fill="#1c1c1c" stroke="url(#bloodGradient)" stroke-width="1.5"/>
<polygon points="11.886142312183892,167.06573875982622 33.09406414149506,166.94491403349147 32.883845583327656,189.90794270596763 11.074172363329273,187.76306178460985" fill="#1c1c1c" stroke="url(#bloodGradient)" stroke-width="1.5"/>
<polygon points="36.17996630028575,10.670444852123428 57.42912601172849,12.795013445181134 57.74441035611292,31.246489867430864 37.44684062890085,33.06109213099105" fill="#1c1c1c" stroke="url(#bloodGradient)" stroke-width="1.5"/>
<polygon points="37.86761513274434,36.052346233418724 58.18297075177349,36.2079585519639 56.70677244284315,57.24064201567061 37.160004967405825,59.6730891441332" fill="#1c1c1c" stroke="url(#bloodGradient)" stroke-width="1.5"/>
<polygon points="37.45527997989298,64.9703982709506 59.20861935987997,63.81984079978587 56.83810757813811,84.7346658716603 38.8469929720954,83.25362296869278" fill="#1c1c1c" stroke="url(#bloodGradient)" stroke-width="1.5"/>
<polygon points="37.84509567514055,90.58767379454339 56.42599177703262,88.03253252061914 59.88040396632454,111.49946754211636 38.86050462210039,110.29653009758123" fill="#1c1c1c" stroke="url(#bloodGradient)" stroke-width="1.5"/>
<polygon points="37.34459306533332,116.0455692034357 57.064992519972265,114.08025395424974 58.188162087556556,137.04411444749164 38.654222416144954,135.7475656817125" fill="#1c1c1c" stroke="url(#bloodGradient)" stroke-width="1.5"/>
<polygon points="36.33865142626923,140.20847017435258 59.468486509579805,143.1821954287432 58.26485292241378,161.9891718941618 39.545888917074834,161.274398122098" fill="#1c1c1c" stroke="url(#bloodGradient)" stroke-width="1.5"/>
<polygon points="38.83717201163872,169.39860557461145 59.98717894615483,168.12123611647235 57.296747301852385,188.5656176223744 37.53029027622244,188.7613977951993" fill="#1c1c1c" stroke="url(#bloodGradient)" stroke-width="1.5"/>
<polygon points="62.13320847371796,11.642524782322031 84.35946997068164,11.930230275241138 84.53765767015084,32.12992421455765 62.812607130652346,32.677180481653835" fill="#1c1c1c" stroke="url(#bloodGradient)" stroke-width="1.5"/>
<polygon points="63.2285715439716,38.23507301017817 85.53027657584953,37.591954053147695 85.63678457331494,57.01849047466791 62.948452950218424,58.404829402471535" fill="#1c1c1c" stroke="url(#bloodGradient)" stroke-width="1.5"/>
<polygon points="63.083331239947185,63.2980922710031 84.98198522884441,64.77519704644789 84.84350276755941,83.94201997832083 64.28558514005866,82.68293191395533" fill="#1c1c1c" stroke="url(#bloodGradient)" stroke-width="1.5"/>
<polygon points="64.74527119944392,89.27187709955957 85.1898554489936,89.73253197070346 83.123260211907,109.42272801247844 62.999481303061124,109.36253096261929" fill="#1c1c1c" stroke="url(#bloodGradient)" stroke-width="1.5"/>
<polygon points="65.59285159762607,114.24473691029696 85.26503059023248,116.1345314164341 85.47305856970443,135.55248122167504 62.26182033593502,136.24286910228543" fill="#1c1c1c" stroke="url(#bloodGradient)" stroke-width="1.5"/>
<polygon points="62.567477868488,142.59622980616263 84.53515940897351,141.2962629291046 82.50753048969813,163.55403158184413 62.99879525457145,162.36081788295203" fill="#1c1c1c" stroke="url(#bloodGradient)" stroke-width="1.5"/>
<polygon points="65.43696580081486,169.47258196590303 83.91794680146343,168.08871038747128 84.18828861652909,187.77951050562132 64.63529638518007,189.3454997881584" fill="#1c1c1c" stroke="url(#bloodGradient)" stroke-width="1.5"/>
<polygon points="88.22121255045344,10.021550424122363 111.83363393747294,10.235359809154083 111.9749974757139,33.570063325910226 89.95207849772453,30.522234321488295" fill="#1c1c1c" stroke="url(#bloodGradient)" stroke-width="1.5"/>
<polygon points="88.21950960198177,36.04816560031738 108.88481085949236,37.87209793219673 109.34859866991532,59.087982641723926 90.03836702438409,58.04950732301432" fill="#1c1c1c" stroke="url(#bloodGradient)" stroke-width="1.5"/>
<polygon points="91.27345454818871,65.26500176734193 109.05168846336258,65.04492258599026 108.47559969104417,82.53118026362621 88.88584574630518,85.66329913795194" fill="#55CDFC" stroke="url(#bloodGradient)" stroke-width="1.5"/>
<polygon points="89.64262406727103,88.74254991474318 111.49162251851145,88.88055556455878 111.57662123855962,111.5925139843521 89.62107539156348,110.98086007127634" fill="#55CDFC" stroke="url(#bloodGradient)" stroke-width="1.5"/>
<polygon points="91.35083558580898,114.97666521023167 108.92053031920884,117.41489257070401 111.20645148411424,135.24630215974165 91.06666146201815,136.29937889974562" fill="#1c1c1c" stroke="url(#bloodGradient)" stroke-width="1.5"/>
<polygon points="89.14311411704557,142.63267422450883 108.40759083081785,141.6668728249456 108.76944814650055,162.71019015072764 89.76308497754637,160.67362145821605" fill="#1c1c1c" stroke="url(#bloodGradient)" stroke-width="1.5"/>
<polygon points="91.32268855165007,168.12018176435416 108.83342282899643,169.01730903038 110.67473236517691,187.5144950880367 89.60076148994992,186.66884095187098" fill="#1c1c1c" stroke="url(#bloodGradient)" stroke-width="1.5"/>
<polygon points="114.81406959510565,12.891851371128123 137.67065653864725,11.8358984042613 136.15997367776725,32.13159100249463 114.16685659822272,32.13855679513726" fill="#1c1c1c" stroke="url(#bloodGradient)" stroke-width="1.5"/>
<polygon points="114.50441179560454,38.52767604406956 135.53780754894382,37.703292588041315 134.60955212719807,57.954090314114154 116.82723226337009,58.546214284071816" fill="#1c1c1c" stroke="url(#bloodGradient)" stroke-width="1.5"/>
<polygon points="114.12191590610377,62.63076254643242 135.52059148751562,64.81283659803488 136.43432932812414,84.42529363371217 115.18868908687358,85.57732842842957" fill="#55CDFC" stroke="url(#bloodGradient)" stroke-width="1.5"/>
<polygon points="115.42410415079453,89.44931130379477 136.4369010998202,88.94803784588865 135.61846553425877,109.06677646342152 116.32984865893896,111.42639463888177" fill="#1c1c1c" stroke="url(#bloodGradient)" stroke-width="1.5"/>
<polygon points="116.50456605875343,116.80761324620639 135.123391890012,114.97354072307424 134.7292952816647,135.94370988676613 114.4008633895963,136.40606832525216" fill="#1c1c1c" stroke="url(#bloodGradient)" stroke-width="1.5"/>
<polygon points="115.33066629456074,140.6950101888249 137.68640750543662,140.40798254222602 135.01714158767754,161.09008730509194 115.04613031543958,160.50859578191324" fill="#1c1c1c" stroke="url(#bloodGradient)" stroke-width="1.5"/>
<polygon points="117.27636137937102,169.49651432802932 134.91641716285073,168.74354185625887 137.69779784861265,186.63203844988132 115.95710124866109,187.67713199605979" fill="#1c1c1c" stroke="url(#bloodGradient)" stroke-width="1.5"/>
<polygon points="141.53775774805877,11.640880948998776 160.4644267097913,10.59390830211311 162.5116024261749,30.441843428042574 140.2433358048105,32.6108631129145" fill="#1c1c1c" stroke="url(#bloodGradient)" stroke-width="1.5"/>
<polygon points="141.35789645525836,37.085477246938424 163.88841145097823,38.82145450532203 162.82073156808696,58.16450939589094 142.8481309403658,59.34412719680098" fill="#1c1c1c" stroke="url(#bloodGradient)" stroke-width="1.5"/>
<polygon points="141.4592845744234,62.02646987675785 162.75252036096433,62.77679023178356 162.61985452267166,84.24931953164796 142.70366276779262,82.55926129574395" fill="#1c1c1c" stroke="url(#bloodGradient)" stroke-width="1.5"/>
<polygon points="141.3859872358695,91.13313267536606 160.47512791188592,91.06720556956425 160.72444224150175,109.89594922608063 141.21922972385212,109.98989449799757" fill="#1c1c1c" stroke="url(#bloodGradient)" stroke-width="1.5"/>
<polygon points="142.94312917317194,114.23235796861668 161.31983525862086,117.32613755897528 162.03580166554704,135.73349142255665 143.5728229271426,134.54464974423905" fill="#1c1c1c" stroke="url(#bloodGradient)" stroke-width="1.5"/>
<polygon points="140.58080500515882,142.16602698902196 163.1195979125148,143.44438437596853 161.23801605720266,161.65906856983048 141.84075836703602,162.22710088817345" fill="#1c1c1c" stroke="url(#bloodGradient)" stroke-width="1.5"/>
<polygon points="142.93259866543312,166.63054206757693 163.12249718530617,166.28577243051745 162.56841736738437,187.98637428503937 140.52951775978673,189.36181255435918" fill="#1c1c1c" stroke="url(#bloodGradient)" stroke-width="1.5"/>
<polygon points="166.1057485836311,12.289882316028368 187.18979795152504,13.451449636356056 186.67178164445463,31.827615612465845 168.4634655791836,32.891282732861335" fill="#1c1c1c" stroke="url(#bloodGradient)" stroke-width="1.5"/>
<polygon points="167.10650549718136,36.01936168854493 189.0647677675342,36.43285976766846 186.80592991215198,57.681061929256956 166.83063742583948,57.79656357215356" fill="#1c1c1c" stroke="url(#bloodGradient)" stroke-width="1.5"/>
<polygon points="169.4518340545879,63.653953122947335 188.2933559046237,64.77751317384669 188.10047492493453,84.64167908685951 168.88316018555133,84.2915376431629" fill="#1c1c1c" stroke="url(#bloodGradient)" stroke-width="1.5"/>
<polygon points="167.68149260938145,90.12898199072393 189.3051976504617,89.52080855881175 188.24643820785178,111.20748398616944 169.27110181155246,110.47898804463725" fill="#1c1c1c" stroke="url(#bloodGradient)" stroke-width="1.5"/>
<polygon points="169.48579645417425,117.27982168393868 188.3920502750319,115.05491615900539 187.29028998445995,137.01197899623187 169.32487634411675,136.47966780816546" fill="#1c1c1c" stroke="url(#bloodGradient)" stroke-width="1.5"/>
<polygon points="167.846394067488,142.64456767706812 187.52485298937617,140.4208965601329 189.96774067042585,163.204875165098 166.55459933490465,162.250233530938" fill="#1c1c1c" stroke="url(#bloodGradient)" stroke-width="1.5"/>
<polygon points="169.48153240280206,167.45871998552474 189.98578104479097,169.1006549628278 189.96559525291087,188.62063400207413 166.24725093869571,187.27022889879257" fill="#1c1c1c" stroke="url(#bloodGradient)" stroke-width="1.5"/>
<polygon points="193.87594356804507,13.440359941650634 213.6771950490076,10.23437625359699 213.16495164091737,31.111378015737465 195.1064563082041,31.58678962983926" fill="#1c1c1c" stroke="url(#bloodGradient)" stroke-width="1.5"/>
<polygon points="192.5989584589924,39.4713331324052 215.86269586049244,37.69571336583308 215.56476912856033,59.424777185444476 192.91858640639038,58.8038428242208" fill="#1c1c1c" stroke="url(#bloodGradient)" stroke-width="1.5"/>
<polygon points="193.6847316980522,63.352516667993825 215.91206814672,65.48812597125688 213.50217920272115,84.72055236419243 192.12135381734834,82.62166778043135" fill="#1c1c1c" stroke="url(#bloodGradient)" stroke-width="1.5"/>
<polygon points="193.95433492763536,89.96882766129544 212.50240545556213,90.42771108611723 212.60154519906516,109.27536461295824 193.07189289907768,110.75636017279672" fill="#1c1c1c" stroke="url(#bloodGradient)" stroke-width="1.5"/>
<polygon points="192.46852449723946,115.67092397498557 214.2743232922829,116.02402132151349 212.50412976820436,136.75435716231254 192.96380992097707,135.54066079650536" fill="#1c1c1c" stroke="url(#bloodGradient)" stroke-width="1.5"/>
<polygon points="194.32026542484923,140.6269601991038 214.09190265872442,140.19293479222733 213.81762339577497,163.98992236699266 194.64381529758603,163.80816253542082" fill="#1c1c1c" stroke="url(#bloodGradient)" stroke-width="1.5"/>
<polygon points="192.3383500082398,168.72030532279717 212.51583058150908,166.4982909569152 214.95435835892326,187.7870544151044 195.2788993447225,189.99292821349562" fill="#1c1c1c" stroke="url(#bloodGradient)" stroke-width="1.5"/>
<polygon points="221.2008972534982,11.133709639578832 240.5241379388502,12.035391804451216 239.48350846159224,32.79166678399897 220.64171339327794,32.780464912011965" fill="#1c1c1c" stroke="url(#bloodGradient)" stroke-width="1.5"/>
<polygon points="218.56553830802306,39.26674500943106 238.8911141379322,38.68513521723018 241.52591966,59.65148554964712 219.51983032242336,59.868737630171" fill="#1c1c1c" stroke="url(#bloodGradient)" stroke-width="1.5"/>
<polygon points="220.6112402805419,62.348163457476055 241.42647696294512,64.37855531622647 241.2214140690443,85.79475411922876 218.2021978834281,83.94140090207497" fill="#1c1c1c" stroke="url(#bloodGradient)" stroke-width="1.5"/>
<polygon points="221.13502480281738,89.23363852293703 240.52499666523832,90.0607770972633 240.09209645168377,109.07576223882106 220.43475137080983,109.151414350736" fill="#1c1c1c" stroke="url(#bloodGradient)" stroke-width="1.5"/>
<polygon points="218.71317720360884,116.15883681451828 241.17021140720783,115.99459155386988 240.15212913095803,137.4015639174318 221.27677375231946,134.95783934693034" fill="#1c1c1c" stroke="url(#bloodGradient)" stroke-width="1.5"/>
<polygon points="219.67602326762307,142.4768196631577 239.67107594177995,142.2953935822045 239.9440728080907,161.34019856795706 218.03060558271414,162.1867381930863" fill="#1c1c1c" stroke="url(#bloodGradient)" stroke-width="1.5"/>
<polygon points="218.85419162240765,167.23836898920757 241.424078527382,166.32682498208513 240.95764188085897,188.44118200171036 220.31798713219933,187.03624611511137" fill="#1c1c1c" stroke="url(#bloodGradient)" stroke-width="1.5"/>
<polygon points="246.63254557664638,12.47110705239453 264.530815460488,12.418455578848913 266.0258041213229,31.173238831122212 247.4830855982911,32.23335369313973" fill="#1c1c1c" stroke="url(#bloodGradient)" stroke-width="1.5"/>
<polygon points="246.32895163689344,38.410650142529164 265.64004631300645,38.30714893007617 264.6234700883425,57.52092738034119 246.32471943144992,58.83985392999329" fill="#1c1c1c" stroke="url(#bloodGradient)" stroke-width="1.5"/>
<polygon points="245.95779005826273,65.59758908063137 267.68206536952346,65.260336661956 267.96145903692525,84.88173656428586 247.3601288203315,84.78775226152499" fill="#1c1c1c" stroke="url(#bloodGradient)" stroke-width="1.5"/>
<polygon points="246.42285917867892,90.84209664827634 267.51168034445243,89.47467529856584 266.68447514340806,111.70865367928727 246.8038446428552,108.54171970635025" fill="#1c1c1c" stroke="url(#bloodGradient)" stroke-width="1.5"/>
<polygon points="246.72964031496485,114.3544391939197 266.3375030476927,115.32122620544175 266.77796433447014,137.4808122307469 244.8046860048299,137.15154899698916" fill="#1c1c1c" stroke="url(#bloodGradient)" stroke-width="1.5"/>
<polygon points="244.9769168497536,140.5304312350715 267.91864735832286,143.1326935269562 265.09931021936814,160.5096453103656 246.00049865133093,162.84958074584085" fill="#1c1c1c" stroke="url(#bloodGradient)" stroke-width="1.5"/>
<polygon points="247.36014922809738,168.0788236417467 267.80036320470947,168.17906223530832 266.08460874473406,188.70922691498865 245.1548362525087,186.93588312533277" fill="#1c1c1c" stroke="url(#bloodGradient)" stroke-width="1.5"/>
<polygon points="272.80241459353135,10.280498145582 293.49823423927586,13.390441264850548 293.7317959400221,33.88705500473482 270.9662056619629,32.84105476932841" fill="#1c1c1c" stroke="url(#bloodGradient)" stroke-width="1.5"/>
<polygon points="272.1324525142553,38.08988084119428 293.87127197476667,39.49893625094151 291.09875654028895,56.709196102336634 271.97803458870936,58.68682898987619" fill="#1c1c1c" stroke="url(#bloodGradient)" stroke-width="1.5"/>
<polygon points="273.02908696038753,64.21612111729605 292.42736586065735,65.52153145250259 291.2491885171718,83.296639738956 272.8690550470311,82.96319528926709" fill="#1c1c1c" stroke="url(#bloodGradient)" stroke-width="1.5"/>
<polygon points="270.6832900297611,90.66012278437685 291.60805099517273,89.00550793824367 293.3122932535626,110.09602859316043 271.9836992292084,109.13752389815346" fill="#1c1c1c" stroke="url(#bloodGradient)" stroke-width="1.5"/>
<polygon points="272.27811551735726,115.21717754096994 293.48237278727703,115.7418638867331 293.1468775508051,137.91224015734707 270.6000119004733,136.54112707888768" fill="#1c1c1c" stroke="url(#bloodGradient)" stroke-width="1.5"/>
<polygon points="273.38504722913547,142.8904936400275 292.45059371373134,143.07215434469813 291.29390625545466,162.73714335514026 273.19851686084877,160.55776525693852" fill="#1c1c1c" stroke="url(#bloodGradient)" stroke-width="1.5"/>
<polygon points="271.6290151371624,166.37497308469682 291.44029460636256,166.57336509967524 290.4617876261251,186.4081770155787 270.06894049659576,187.06011388328065" fill="#1c1c1c" stroke="url(#bloodGradient)" stroke-width="1.5"/>
<polygon points="296.9264824488025,12.976457327121114 319.29635245160046,10.605043178774665 319.85837461127977,30.884202247732105 297.6918609228331,31.87178593747278" fill="#1c1c1c" stroke="url(#bloodGradient)" stroke-width="1.5"/>
<polygon points="296.7793224148516,36.18464098386699 319.94874138656735,39.30459346925732 318.44108487302316,59.86251144464922 296.57573565530276,58.882191568494" fill="#1c1c1c" stroke="url(#bloodGradient)" stroke-width="1.5"/>
<polygon points="297.0317145655522,62.038591631048675 317.6167861000766,64.56547546590366 316.8305353190587,82.59664813031856 299.4923695693183,82.5106460797781" fill="#1c1c1c" stroke="url(#bloodGradient)" stroke-width="1.5"/>
<polygon points="297.02329467719005,88.86676868140958 319.5389680379692,88.11488054977144 319.7925849271471,110.99929946369247 297.0724930860869,109.5740794227601" fill="#1c1c1c" stroke="url(#bloodGradient)" stroke-width="1.5"/>
<polygon points="297.04857792798936,114.32403614406913 317.60203863678356,115.97125762677102 316.4980041091922,134.47960514810256 298.39264745510087,135.7883736984911" fill="#1c1c1c" stroke="url(#bloodGradient)" stroke-width="1.5"/>
<polygon points="297.6015857448025,143.3747159060541 316.9598365561207,141.16813566903255 319.4842297949029,163.68736799102962 298.4065571500605,160.61669832579778" fill="#1c1c1c" stroke="url(#bloodGradient)" stroke-width="1.5"/>
<polygon points="298.608352516827,168.8094476698523 316.74811442383395,169.38953105843405 316.8266935489035,189.3429912956677 297.59567779035564,186.50712714703863" fill="#1c1c1c" stroke="url(#bloodGradient)" stroke-width="1.5"/>
<polygon points="323.7662032888359,11.851929722827965 343.96132441063173,13.361867040235444 343.3106486902527,30.433344502375242 323.10283896709285,32.39143687204539" fill="#1c1c1c" stroke="url(#bloodGradient)" stroke-width="1.5"/>
<polygon points="323.4063836143214,38.53038553336493 345.64898646936746,37.48932670846162 343.9880733045869,58.70657755639306 322.8440164656048,57.889789890963335" fill="#1c1c1c" stroke="url(#bloodGradient)" stroke-width="1.5"/>
<polygon points="324.129958589635,62.20290591860451 345.3675468256781,64.49420014360399 343.4679096477023,82.99884980581923 322.982936538855,85.97752327438323" fill="#1c1c1c" stroke="url(#bloodGradient)" stroke-width="1.5"/>
<polygon points="323.01796357279886,89.97204537164477 343.2494023669849,89.96450900520462 345.9831925120361,111.24535738369438 324.9909887256952,111.30103143042479" fill="#1c1c1c" stroke="url(#bloodGradient)" stroke-width="1.5"/>
<polygon points="325.4915688394128,114.05053212911629 345.3311292427146,116.56267716513815 342.695970628019,137.22611557063593 322.53784083609816,135.25884382973152" fill="#1c1c1c" stroke="url(#bloodGradient)" stroke-width="1.5"/>
<polygon points="325.1357663653127,141.55662727498222 344.7756673272166,142.21660355405223 344.30341066070844,161.2107617739052 323.8475155432769,161.3543029423888" fill="#1c1c1c" stroke="url(#bloodGradient)" stroke-width="1.5"/>
<polygon points="323.4743387736764,166.92676912503248 345.0987394000696,167.230456020498 345.0721962907963,186.78855769453307 324.58637350290957,186.54666333954825" fill="#55CDFC" stroke="url(#bloodGradient)" stroke-width="1.5"/>
<polygon points="348.43569604169573,11.681377101833007 369.6182946320765,12.158359123286843 369.68527697425156,33.15891374505671 349.4990145035493,31.451761578124692" fill="#1c1c1c" stroke="url(#bloodGradient)" stroke-width="1.5"/>
<polygon points="351.34954270096875,38.125606783705464 369.392824708669,36.355323693004344 371.16115453398504,58.972185049284114 350.33215406288394,58.02937787026367" fill="#1c1c1c" stroke="url(#bloodGradient)" stroke-width="1.5"/>
<polygon points="348.4091348104831,65.46096733219186 371.30006367251286,65.49992452731047 370.26211064899496,83.89265357031415 351.2956988879757,83.92222231356024" fill="#1c1c1c" stroke="url(#bloodGradient)" stroke-width="1.5"/>
<polygon points="348.38710043186813,91.28319823354565 368.4653471785094,88.66912284706832 371.7326104629423,110.83111458201083 348.9121986878797,110.53403480723561" fill="#1c1c1c" stroke="url(#bloodGradient)" stroke-width="1.5"/>
<polygon points="351.5891526502966,115.00166551214058 370.32172645142373,115.97256033968009 369.9293211621757,135.6463557017467 348.84641934835815,137.56100498900676" fill="#1c1c1c" stroke="url(#bloodGradient)" stroke-width="1.5"/>
<polygon points="350.2678532971003,141.02923270461835 369.69165431578716,141.478880579424 371.5828341801011,162.6750509022811 350.1373583062383,160.9747994858292" fill="#1c1c1c" stroke="url(#bloodGradient)" stroke-width="1.5"/>
<polygon points="350.3651220888905,167.17976391693145 369.14320055389,169.5879941774806 371.4836065011847,186.6514825400875 350.372592995065,189.2280046964428" fill="#1c1c1c" stroke="url(#bloodGradient)" stroke-width="1.5"/>
<polygon points="376.2371138117279,12.650919044205564 394.4659729660247,13.113667270515835 397.7266570627746,31.896621836761597 376.45309564716945,32.787970931000814" fill="#1c1c1c" stroke="url(#bloodGradient)" stroke-width="1.5"/>
<polygon points="374.9729885892934,37.381624936168464 397.2940133692556,39.22216116757713 396.49488861027237,59.67047083907654 376.6015212016711,57.34510656926587" fill="#1c1c1c" stroke="url(#bloodGradient)" stroke-width="1.5"/>
<polygon points="374.0702090753562,64.64569922179723 395.99736438162734,62.19609104349077 394.7353428941792,83.41808357747246 376.8893865185088,84.64971070547107" fill="#1c1c1c" stroke="url(#bloodGradient)" stroke-width="1.5"/>
<polygon points="374.8966442659869,88.24349664511469 397.9995742016925,88.70413743209652 395.6680065472074,108.44694234003586 377.07960060231864,110.52307601983303" fill="#1c1c1c" stroke="url(#bloodGradient)" stroke-width="1.5"/>
<polygon points="374.5343280446276,116.22600123440415 394.93214624253693,114.25458641243382 397.4144347701003,137.04193403788688 374.0169543181389,136.2305620672243" fill="#1c1c1c" stroke="url(#bloodGradient)" stroke-width="1.5"/>
<polygon points="375.08095348812753,141.03429690535145 394.4583382630924,143.06793659561905 397.0730073748407,161.41550571689436 375.63120859652474,161.76465415044464" fill="#1c1c1c" stroke="url(#bloodGradient)" stroke-width="1.5"/>
<polygon points="374.5648783155205,166.798680456327 394.72951260879705,167.9323103015801 396.00485194681295,189.86346008942203 376.4116411523048,188.26391259883601" fill="#1c1c1c" stroke="url(#bloodGradient)" stroke-width="1.5"/>
<polygon points="401.56761501935796,11.955378703597038 423.17290507185766,10.47747721996411 422.2843675415413,30.74499184477544 402.3384666482292,33.0460549782422" fill="#1c1c1c" stroke="url(#bloodGradient)" stroke-width="1.5"/>
<polygon points="402.7195231104232,39.2328439537153 422.6245223314405,38.54855698227665 422.7654351895331,59.6910520226985 401.84322422931655,59.96284407549167" fill="#1c1c1c" stroke="url(#bloodGradient)" stroke-width="1.5"/>
<polygon points="403.053139358384,64.64234640064329 421.59195103197857,62.13456239171951 421.9262540935125,84.86210960849624 403.23515569310433,84.29074028531345" fill="#1c1c1c" stroke="url(#bloodGradient)" stroke-width="1.5"/>
<polygon points="401.82603206955207,90.86500271919702 422.02022728994507,89.4853181671914 422.94931921085356,111.82782098506082 400.36896096512635,110.93466290014686" fill="#1c1c1c" stroke="url(#bloodGradient)" stroke-width="1.5"/>
<polygon points="402.8178947163013,116.82402461301945 422.24856365360847,114.46445456748489 422.6776413381757,136.92759309751617 401.9506219567709,136.1217308821808" fill="#1c1c1c" stroke="url(#bloodGradient)" stroke-width="1.5"/>
<polygon points="401.504345206314,140.42440740978563 422.10163762505147,140.25765838000666 423.2253880617198,161.84302126815248 402.8980192846614,163.22490623525061" fill="#1c1c1c" stroke="url(#bloodGradient)" stroke-width="1.5"/>
<polygon points="401.05239826790336,167.17494838841748 422.5380628369475,168.88045729363364 420.7336632552441,189.14205356125618 401.7528131471927,186.63310169482455" fill="#1c1c1c" stroke="url(#bloodGradient)" stroke-width="1.5"/>
<polygon points="427.95157802230034,11.995118963184062 447.46432684376543,12.09446135000368 448.855750560398,30.712096616735778 427.57774563090624,31.22345560770173" fill="#1c1c1c" stroke="url(#bloodGradient)" stroke-width="1.5"/>
<polygon points="426.1508211493054,38.28437623298045 448.0265781742482,39.38579830338887 448.70938833317234,59.88756150810167 429.1657262158297,59.75190598044262" fill="#1c1c1c" stroke="url(#bloodGradient)" stroke-width="1.5"/>
<polygon points="428.7348705188875,64.57958443355346 448.4178142453851,62.07405804841933 446.78097128372065,83.53855982947526 429.11122581024796,85.04303451030569" fill="#1c1c1c" stroke="url(#bloodGradient)" stroke-width="1.5"/>
<polygon points="429.2645326602809,88.23203371202925 448.48041418902847,88.08853541927726 449.2366817839217,111.9632755385538 428.2146079999688,111.84424408737962" fill="#1c1c1c" stroke="url(#bloodGradient)" stroke-width="1.5"/>
<polygon points="428.07546115926135,114.342056967238 446.73822508790914,114.23080341482492 446.6787874710819,134.80970501539076 428.621418874217,135.42352154634457" fill="#1c1c1c" stroke="url(#bloodGradient)" stroke-width="1.5"/>
<polygon points="427.25913762964035,141.34060527109236 448.90318710128645,141.37615623756298 447.9298600331281,160.97420338022349 429.1431990371015,162.89903161562515" fill="#1c1c1c" stroke="url(#bloodGradient)" stroke-width="1.5"/>
<polygon points="427.47393349447947,167.91923757304951 449.79368451274155,168.36808980188573 449.2366932830128,187.55666457106562 426.1752489246414,187.6412143122133" fill="#1c1c1c" stroke="url(#bloodGradient)" stroke-width="1.5"/>
<polygon points="452.3193252402316,11.810613477237109 473.75712479029704,13.2156784928837 473.86504405510465,33.03679976776888 453.81803187916455,32.97193994864569" fill="#1c1c1c" stroke="url(#bloodGradient)" stroke-width="1.5"/>
<polygon points="455.1091789917898,39.54903993934114 473.3586178094039,36.87746621525974 474.8358728611359,57.58160071336497 452.69951057677133,56.525499732796305" fill="#1c1c1c" stroke="url(#bloodGradient)" stroke-width="1.5"/>
<polygon points="452.6940913065647,64.89058491773048 475.4461925638013,63.74039941331006 474.1983945960655,85.9213559179382 454.29437023924606,85.70890320500243" fill="#1c1c1c" stroke="url(#bloodGradient)" stroke-width="1.5"/>
<polygon points="454.2836521039615,89.60222754496615 474.72960258260446,88.36415695049578 474.9756965446165,108.93409667519472 455.5413580747832,111.75668450789752" fill="#1c1c1c" stroke="url(#bloodGradient)" stroke-width="1.5"/>
<polygon points="453.1857774595055,114.20336178069905 472.9152122234483,115.32805675979147 475.88563165860353,134.88641515279207 454.7794371888685,137.9185204496325" fill="#1c1c1c" stroke="url(#bloodGradient)" stroke-width="1.5"/>
<polygon points="452.0096120727963,141.53444259990437 475.5023119081617,142.17587997817554 472.6377444242923,162.10016004883488 454.8691837199665,161.62085662116976" fill="#1c1c1c" stroke="url(#bloodGradient)" stroke-width="1.5"/>
<polygon points="455.32324990429845,167.41117330386416 475.897072456376,169.0420072835253 472.76095700188284,188.7575705719457 455.08339298064953,188.47334287534377" fill="#1c1c1c" stroke="url(#bloodGradient)" stroke-width="1.5"/>
<polygon points="478.9326465432671,12.012069448842347 498.65260137360815,10.186010303604236 501.9877005094099,30.462639681644003 479.41762068801404,31.936387753885576" fill="#1c1c1c" stroke="url(#bloodGradient)" stroke-width="1.5"/>
<polygon points="480.60224970791336,36.44393915333971 498.437292851153,36.419909046541285 501.78639490951,58.039554290910466 480.84862026070925,59.492231484320854" fill="#1c1c1c" stroke="url(#bloodGradient)" stroke-width="1.5"/>
<polygon points="479.2222352706988,62.020290626712175 500.7704110129547,64.39685029386243 498.4965075898584,82.54212461180413 481.57689435621944,83.33988306908365" fill="#1c1c1c" stroke="url(#bloodGradient)" stroke-width="1.5"/>
<polygon points="479.18507594185684,91.50699303458018 501.3071177722014,88.3319436963045 500.57407448859533,109.37618469973634 479.3653640132486,108.72853232395305" fill="#1c1c1c" stroke="url(#bloodGradient)" stroke-width="1.5"/>
<polygon points="479.72603795739343,116.54190251191231 501.4684385640147,114.4037937156109 501.93379439482766,136.52718038736342 480.9642227986677,135.61836830738739" fill="#1c1c1c" stroke="url(#bloodGradient)" stroke-width="1.5"/>
<polygon points="479.2003135035231,143.24250149414524 499.78584195886185,143.11231631566724 500.8855073670901,161.2310409041756 478.77700451093386,163.47476861198643" fill="#1c1c1c" stroke="url(#bloodGradient)" stroke-width="1.5"/>
<polygon points="480.6657173716077,169.46956371700665 501.4652098255734,167.1503142619539 499.1168545929301,188.83685091689372 479.77705182756637,187.01776381716573" fill="#1c1c1c" stroke="url(#bloodGradient)" stroke-width="1.5"/>
<polygon points="505.91623712524904,13.454131459002628 524.500671020369,11.904477207906506 526.5042873492303,32.45857460384989 505.33056421956445,33.964824784250396" fill="#1c1c1c" stroke="url(#bloodGradient)" stroke-width="1.5"/>
<polygon points="505.3659697605558,37.66691225740008 527.551990828673,38.68780467697445 527.8547707557739,59.946901825748355 504.0258423466912,59.06288369776641" fill="#1c1c1c" stroke="url(#bloodGradient)" stroke-width="1.5"/>
<polygon points="505.0596305030486,64.70466695262859 527.5908697473,63.049155966676715 525.906892162895,85.41784736207693 506.3590762581817,84.83612777001402" fill="#1c1c1c" stroke="url(#bloodGradient)" stroke-width="1.5"/>
<polygon points="506.71305662111007,89.02202577213414 525.7741758930939,90.16513332278501 527.305373433696,111.01640136977491 507.39042271113715,111.40858637874472" fill="#1c1c1c" stroke="url(#bloodGradient)" stroke-width="1.5"/>
<polygon points="507.48035252387916,114.1193998570559 525.4483457747737,116.1103921659275 525.586707743834,137.14897498910082 504.791838176928,135.24237981896854" fill="#1c1c1c" stroke="url(#bloodGradient)" stroke-width="1.5"/>
<polygon points="506.19776102921094,140.5395460811559 527.7743422517549,142.99317869971574 524.7966033756585,163.90402575731937 504.6162612567169,161.41007031228267" fill="#1c1c1c" stroke="url(#bloodGradient)" stroke-width="1.5"/>
<polygon points="507.4791668670798,169.00782258210774 526.7377895672603,166.21682828023447 526.6755346155338,188.28418095009008 506.8810164542083,188.39934444435912" fill="#1c1c1c" stroke="url(#bloodGradient)" stroke-width="1.5"/>
<polygon points="532.5098065158611,10.684725024546644 550.6461167420352,10.760907897258411 553.4013811806898,31.453997995379964 532.6699781992023,33.205587973063444" fill="#1c1c1c" stroke="url(#bloodGradient)" stroke-width="1.5"/>
<polygon points="533.0377713819537,36.620783671596186 551.4968375460869,37.075866146344865 553.2590555139394,58.20663212436863 530.1506012107411,59.61135287822563" fill="#1c1c1c" stroke="url(#bloodGradient)" stroke-width="1.5"/>
<polygon points="532.0154915124932,65.54599293165701 551.5626415343146,64.22809335130988 551.7714273407748,85.6346182864991 530.8010371079836,85.7944152511318" fill="#1c1c1c" stroke="url(#bloodGradient)" stroke-width="1.5"/>
<polygon points="530.8871112505751,90.3035731860269 551.0479168551142,91.26042014467173 553.5551029938815,111.23236902832903 530.1892391335798,109.27412463205201" fill="#1c1c1c" stroke="url(#bloodGradient)" stroke-width="1.5"/>
<polygon points="531.1705974306306,117.30477761469572 553.3814428713405,114.82937506628767 552.6441624647352,137.63215359328674 531.4795009462536,135.47642894914526" fill="#1c1c1c" stroke="url(#bloodGradient)" stroke-width="1.5"/>
<polygon points="531.5966703910658,142.88103110775083 553.659007271988,142.21642487447377 550.9902785329498,160.53005463328353 532.7451541907051,161.31396141597895" fill="#1c1c1c" stroke="url(#bloodGradient)" stroke-width="1.5"/>
<polygon points="530.6036971594517,168.52291290064412 552.8874407985536,166.74405412925665 552.3398623709074,188.39922109604916 531.6969317188573,186.50829689600033" fill="#1c1c1c" stroke="url(#bloodGradient)" stroke-width="1.5"/>
<polygon points="557.4491009308538,11.02354934585295 576.8073332214303,10.136451755117934 579.5412389227645,33.34184125529853 559.5980846639786,32.08368810936843" fill="#1c1c1c" stroke="url(#bloodGradient)" stroke-width="1.5"/>
<polygon points="558.8403390738126,36.11429484311393 577.5340764100613,36.658257238448655 579.1554480235177,57.62622153564255 556.8088214918075,57.34155356616798" fill="#1c1c1c" stroke="url(#bloodGradient)" stroke-width="1.5"/>
<polygon points="556.4891712591974,63.16674882007163 576.875271696206,62.554844619653764 577.8579353612455,82.77358006601052 558.6130512677763,83.27716448191926" fill="#1c1c1c" stroke="url(#bloodGradient)" stroke-width="1.5"/>
<polygon points="557.7375594678924,89.06119515832788 578.6714785153855,89.83814856214508 577.1489418130286,111.549959056007 558.2507592976506,110.01680510241226" fill="#1c1c1c" stroke="url(#bloodGradient)" stroke-width="1.5"/>
<polygon points="558.8525065016811,114.87124134516503 579.7525497383695,114.3742686715893 579.5440844761431,137.63416766363756 558.7154885692512,137.5476624092615" fill="#1c1c1c" stroke="url(#bloodGradient)" stroke-width="1.5"/>
<polygon points="556.5414218025096,142.92260907640073 579.5508171238353,142.8925672073335 579.1816348947635,162.1171693314774 557.9652996936222,163.73950810399032" fill="#1c1c1c" stroke="url(#bloodGradient)" stroke-width="1.5"/>
<polygon points="557.4489722223528,167.72762716003123 576.8790327664216,168.00964109763063 579.8684304153106,187.3596672475272 559.5679745570209,187.08336611649443" fill="#1c1c1c" stroke="url(#bloodGradient)" stroke-width="1.5"/>
<polygon points="583.9384263313012,10.843466968764735 603.098820811606,12.193865619493556 605.7231512872503,30.879496007295938 582.7344840910322,32.960187977260524" fill="#1c1c1c" stroke="url(#bloodGradient)" stroke-width="1.5"/>
<polygon points="582.2948809479972,39.082577644319656 604.0760406255735,38.50304469818924 602.5064696409956,57.40589063143919 583.3344458145067,58.90317535279069" fill="#1c1c1c" stroke="url(#bloodGradient)" stroke-width="1.5"/>
<polygon points="583.3375224911142,62.63133073714327 603.4058602259414,65.53080348593056 602.9811533324836,84.03300066718921 584.1678822522176,82.47457574469277" fill="#1c1c1c" stroke="url(#bloodGradient)" stroke-width="1.5"/>
<polygon points="583.6296797601925,91.37038634399053 602.7472377145558,88.74308186134192 603.2126835459741,110.41747285914005 585.3930876507674,108.99319377157722" fill="#1c1c1c" stroke="url(#bloodGradient)" stroke-width="1.5"/>
<polygon points="584.2329410338498,116.89025553382798 603.2926393415469,114.2783558407977 604.0734755409432,134.82579382379419 583.1509419913608,136.39886766382014" fill="#1c1c1c" stroke="url(#bloodGradient)" stroke-width="1.5"/>
<polygon points="583.6213066543582,143.4834410485596 605.2004876797391,140.67755989904148 603.6672799546698,161.74380422164833 584.3392680529564,163.0474169995199" fill="#1c1c1c" stroke="url(#bloodGradient)" stroke-width="1.5"/>
<polygon points="584.373404054066,167.04557399927018 604.6212516536316,166.29293337477506 602.7885544228284,189.8562082856284 584.1638373474545,187.4869018472878" fill="#1c1c1c" stroke="url(#bloodGradient)" stroke-width="1.5"/>
<polygon points="608.2958597752236,11.669586198256031 629.3293438521845,10.685997907884575 629.5176339069579,32.98511914991611 611.2789889629072,32.51994728855955" fill="#1c1c1c" stroke="url(#bloodGradient)" stroke-width="1.5"/>
<polygon points="609.2868839129981,36.56127351522384 628.8498027563669,39.13672804236859 631.5739797511171,59.864947220706455 608.3521826516259,57.46620570221239" fill="#1c1c1c" stroke="url(#bloodGradient)" stroke-width="1.5"/>
<polygon points="609.6734842142688,63.712516096646134 631.7806236244164,65.53048596229937 631.9621542618808,84.2616455280673 611.1827150567336,84.13693671016776" fill="#1c1c1c" stroke="url(#bloodGradient)" stroke-width="1.5"/>
<polygon points="609.1791468094381,91.31490660256154 628.5539333475979,89.07820825036046 630.7519407308766,108.43167284868025 610.0912643790389,111.91124959411363" fill="#1c1c1c" stroke="url(#bloodGradient)" stroke-width="1.5"/>
<polygon points="609.9425124585133,114.90288425369883 630.070676214192,114.13413094376054 630.9427050515585,137.5768905993142 608.8918346756883,137.25195633346382" fill="#1c1c1c" stroke="url(#bloodGradient)" stroke-width="1.5"/>
<polygon points="608.6247552081866,143.10281448173995 628.4701622765284,142.09206282170442 628.8238926412495,161.4144051147896 608.2080039559295,162.99199238037204" fill="#1c1c1c" stroke="url(#bloodGradient)" stroke-width="1.5"/>
<polygon points="609.9469669274692,167.12583668462676 629.6992142064688,168.92855087563976 629.1510890238677,186.51930726321453 609.072182988109,188.76509297792595" fill="#1c1c1c" stroke="url(#bloodGradient)" stroke-width="1.5"/>
<polygon points="635.2943180292984,10.459795973813748 657.6767043716391,11.77397153595343 656.2238463023132,33.95110911808444 637.2493664464688,31.31788095508788" fill="#1c1c1c" stroke="url(#bloodGradient)" stroke-width="1.5"/>
<polygon points="635.0593283971691,38.94198810080196 655.5782020611641,37.83809423399168 655.7704364209719,57.36830549837729 634.1703508122391,58.87481078485816" fill="#F7A8B8" stroke="url(#bloodGradient)" stroke-width="1.5"/>
<polygon points="636.2788794485283,65.28250975431487 656.0585395431332,64.63390172006308 656.0036203558786,83.76070065689088 634.1536558556129,85.22507392295657" fill="#1c1c1c" stroke="url(#bloodGradient)" stroke-width="1.5"/>
<polygon points="636.7317981238215,90.58747736659674 655.8235028543994,88.41857145890204 654.8706721712714,109.24139608090834 637.5259533823682,108.6119340773061" fill="#1c1c1c" stroke="url(#bloodGradient)" stroke-width="1.5"/>
<polygon points="635.9280093963548,117.19548279963108 655.1685813547507,115.53136594197082 655.8164148228543,136.14987725805412 636.4904528126688,134.47221159730776" fill="#1c1c1c" stroke="url(#bloodGradient)" stroke-width="1.5"/>
<polygon points="635.9460841564247,141.75138079782178 657.0187060213423,141.84094284042263 657.3364498540673,160.68327076601892 637.3281605443655,161.83755175687202" fill="#1c1c1c" stroke="url(#bloodGradient)" stroke-width="1.5"/>
<polygon points="634.2120221760989,167.9561810039496 657.9693479196421,167.07524513888458 655.974795779358,187.37399360592107 636.0637108081015,187.86003808028403" fill="#1c1c1c" stroke="url(#bloodGradient)" stroke-width="1.5"/>
<polygon points="661.5150036536311,12.904448802410219 683.3302358688486,11.385225564413407 681.9988039555185,32.73624795123007 660.0391279936234,30.799789167053103" fill="#1c1c1c" stroke="url(#bloodGradient)" stroke-width="1.5"/>
<polygon points="660.8005108631544,38.48798603874177 680.9189583815901,38.44216966504737 682.1087628619285,57.33995607813128 663.0281203888444,57.396326569051794" fill="#1c1c1c" stroke="url(#bloodGradient)" stroke-width="1.5"/>
<polygon points="661.0944640757307,62.89039631648639 681.4222869418447,64.2671498988355 680.7451054824492,82.75659362520554 662.2234764393789,82.53082504302456" fill="#1c1c1c" stroke="url(#bloodGradient)" stroke-width="1.5"/>
<polygon points="660.516438659425,90.90306215292843 680.620365956509,90.26247060690586 683.2374881455662,109.73652191615597 663.3430020971464,109.63536758110749" fill="#1c1c1c" stroke="url(#bloodGradient)" stroke-width="1.5"/>
<polygon points="663.1714798340319,117.28994334394051 681.5001547084715,115.07085159805084 682.1140738315992,137.33558168165658 663.1759403021682,134.83358694645858" fill="#1c1c1c" stroke="url(#bloodGradient)" stroke-width="1.5"/>
<polygon points="662.5545992553671,143.34666502578025 682.7203562691836,141.83428515811582 681.1433267740488,161.32648135691983 662.4142876064993,161.85068044801858" fill="#1c1c1c" stroke="url(#bloodGradient)" stroke-width="1.5"/>
<polygon points="660.1112585472098,167.27121677104884 683.8225758147216,167.72479908752092 682.9372687736652,189.26971687791837 660.5763991274949,189.48417033000928" fill="#1c1c1c" stroke="url(#bloodGradient)" stroke-width="1.5"/>
<polygon points="686.7070621577521,13.227778461365595 709.6684116954051,12.663690747926431 708.4729979049985,32.69926915288343 686.0899579485771,33.51649836369957" fill="#55CDFC" stroke="url(#bloodGradient)" stroke-width="1.5"/>
<polygon points="687.8406024869787,36.60706524420003 708.6021087109698,36.606575083527446 706.7409363665299,59.345466806430196 689.5982633076572,59.19455885111984" fill="#1c1c1c" stroke="url(#bloodGradient)" stroke-width="1.5"/>
<polygon points="688.9529453059707,65.4670562148982 708.4694073839752,63.68847455768505 708.3451695716426,84.95516230921291 687.2649102014808,84.68083711825889" fill="#1c1c1c" stroke="url(#bloodGradient)" stroke-width="1.5"/>
<polygon points="686.5741554536245,89.59532213951843 708.0916817279945,88.96101519004182 707.698728447731,109.90307626530631 689.165378646028,110.79815873254681" fill="#1c1c1c" stroke="url(#bloodGradient)" stroke-width="1.5"/>
<polygon points="686.4422120101151,114.65301549579273 708.6460130281736,114.88304047441198 708.9169218212827,135.89483117565777 687.9492322391878,137.5435960661231" fill="#1c1c1c" stroke="url(#bloodGradient)" stroke-width="1.5"/>
<polygon points="686.674102863162,142.61975805243725 709.5915963265819,143.59065318568037 708.594678899794,161.66504339870238 688.7358944063403,162.43882987953026" fill="#1c1c1c" stroke="url(#bloodGradient)" stroke-width="1.5"/>
<polygon points="686.0392124729749,169.47914550006087 708.1586980727859,167.58750039055647 708.4592629141184,186.56992548044988 688.7104612031807,187.94180041974386" fill="#1c1c1c" stroke="url(#bloodGradient)" stroke-width="1.5"/>
<polygon points="712.4900680992912,10.40733342468937 734.3648518745446,12.695229890917872 734.3229336913475,32.68320850142485 713.4595093590091,33.88614593632207" fill="#1c1c1c" stroke="url(#bloodGradient)" stroke-width="1.5"/>
<polygon points="714.4669764411901,38.848729746994714 732.4911926984006,37.90682775244292 734.5370708094894,58.09479371606925 712.3260578980528,57.84275377638291" fill="#1c1c1c" stroke="url(#bloodGradient)" stroke-width="1.5"/>
<polygon points="714.3046596339027,64.74037388473455 732.8737966665915,64.64923055927783 734.1986984275172,85.51051482771305 714.1811969294831,85.52405355712709" fill="#1c1c1c" stroke="url(#bloodGradient)" stroke-width="1.5"/>
<polygon points="713.3540434742278,89.17344912595345 734.8459882061148,89.06884239770312 735.5891636795635,108.51101227056162 714.718972076497,108.60592765642492" fill="#1c1c1c" stroke="url(#bloodGradient)" stroke-width="1.5"/>
<polygon points="714.1542003606946,114.68905621119475 734.307974225553,117.163159414069 732.8858123086225,136.2127127009244 712.4813224082919,135.0938696295237" fill="#1c1c1c" stroke="url(#bloodGradient)" stroke-width="1.5"/>
<polygon points="714.6959854089273,140.32849696135992 733.1428541418212,141.73702029728162 735.9695353853291,163.2662916791423 712.4911189429934,163.32952017693498" fill="#1c1c1c" stroke="url(#bloodGradient)" stroke-width="1.5"/>
<polygon points="714.3279770342871,169.00609471182406 735.5888901306174,168.3229013376981 734.6021996633848,187.38872082237654 715.310655820284,187.33861611252004" fill="#1c1c1c" stroke="url(#bloodGradient)" stroke-width="1.5"/>
<polygon points="740.4473363267879,10.528596540887293 760.6462827066371,11.504180319653539 760.7577744524934,32.13928091852174 740.0895340705537,31.46202961007647" fill="#1c1c1c" stroke="url(#bloodGradient)" stroke-width="1.5"/>
<polygon points="738.7005200674969,39.39488029980472 761.9502732342683,38.98346192186017 758.5411137482105,58.080153896622775 739.1503896509545,59.45810837785473" fill="#1c1c1c" stroke="url(#bloodGradient)" stroke-width="1.5"/>
<polygon points="739.3537830261646,62.688247735825335 761.7573475208885,63.86040491272716 760.502049780626,85.97341354329187 739.618413203203,82.4866106561897" fill="#1c1c1c" stroke="url(#bloodGradient)" stroke-width="1.5"/>
<polygon points="739.6604169792388,89.41487809533743 761.3785406491336,90.46327934930812 760.1567911147471,111.1768810845545 738.8151698834889,109.74487263034754" fill="#1c1c1c" stroke="url(#bloodGradient)" stroke-width="1.5"/>
<polygon points="740.4276795125877,114.99840350278713 759.0988389840928,114.65137709936211 760.9443118565749,137.94484888987463 740.3404899782128,137.64153768331408" fill="#1c1c1c" stroke="url(#bloodGradient)" stroke-width="1.5"/>
<polygon points="740.5892694117092,140.08120340285365 761.2003697546063,141.51113567537345 761.2754390534619,161.7290993798469 739.7521382036565,160.4462274946437" fill="#1c1c1c" stroke="url(#bloodGradient)" stroke-width="1.5"/>
<polygon points="738.9524763525028,167.52534258051352 760.3628034962051,166.19175137345346 759.2924530261162,187.91493295936024 738.3285934627297,189.1682458173182" fill="#1c1c1c" stroke="url(#bloodGradient)" stroke-width="1.5"/>
<polygon points="765.5026551477131,10.183621610037866 784.5966584554799,11.244680017986354 784.6685087454287,32.735297710847505 764.0058917225358,32.801618602441515" fill="#1c1c1c" stroke="url(#bloodGradient)" stroke-width="1.5"/>
<polygon points="764.5159949782046,38.66095467558867 787.7008570694869,38.46816531568297 787.5952505188989,56.831403785404675 767.394509766397,58.36317770351039" fill="#1c1c1c" stroke="url(#bloodGradient)" stroke-width="1.5"/>
<polygon points="767.3371175129975,64.06962339175011 787.5480373232992,63.911057274831 787.8360901326993,82.65221502987636 764.3248081937778,83.4326009846449" fill="#1c1c1c" stroke="url(#bloodGradient)" stroke-width="1.5"/>
<polygon points="766.7119426451526,89.4811171576199 786.458854728006,89.53847406929458 785.2356124923502,108.6598514362833 766.2356661541855,109.70979784153137" fill="#1c1c1c" stroke="url(#bloodGradient)" stroke-width="1.5"/>
<polygon points="767.4572244215237,117.12914723563127 786.9368537234259,115.97876820099292 784.5645193192214,135.31131858711595 764.1754590748333,135.884926209123" fill="#1c1c1c" stroke="url(#bloodGradient)" stroke-width="1.5"/>
<polygon points="765.2079136398598,142.46646952121793 786.2064958726459,142.7465082497817 787.556874335288,160.94137233799512 767.3497439581719,161.36991229311994" fill="#1c1c1c" stroke="url(#bloodGradient)" stroke-width="1.5"/>
<polygon points="766.5303654726148,168.99362286261038 787.5448869463144,166.50306475522 787.3631087471992,187.5825878231241 764.5961454903886,188.29775859172383" fill="#1c1c1c" stroke="url(#bloodGradient)" stroke-width="1.5"/>
<polygon points="790.8125554441713,11.64861664282679 813.9634711858206,10.45044432079063 812.5137728383362,33.6249824085337 790.6796250994967,32.631601206735986" fill="#1c1c1c" stroke="url(#bloodGradient)" stroke-width="1.5"/>
<polygon points="793.5666688000044,36.241738938698255 813.6974605676439,38.66548564489747 812.3316690526849,59.00188756055902 793.3819787862409,56.54239557419311" fill="#1c1c1c" stroke="url(#bloodGradient)" stroke-width="1.5"/>
<polygon points="793.5023045007312,62.64716087460052 812.7860212541741,62.5518309762258 811.4348928929818,84.1612130790321 790.9191455911244,82.70150769024616" fill="#1c1c1c" stroke="url(#bloodGradient)" stroke-width="1.5"/>
<polygon points="793.4185751019278,91.55386896405862 811.9703738868939,89.81702191171446 813.5224426885669,111.9180545900578 791.8289149208758,111.98546263026121" fill="#1c1c1c" stroke="url(#bloodGradient)" stroke-width="1.5"/>
<polygon points="790.755186339537,117.30324634636409 810.9372996696246,115.63772304098912 813.4088413347616,137.27108827327456 790.6054497617026,134.8160046189519" fill="#1c1c1c" stroke="url(#bloodGradient)" stroke-width="1.5"/>
<polygon points="793.0778709265458,143.08874902643123 813.5990157101719,141.47340293804615 811.25707834036,162.0807399151472 792.764910986887,163.3600020206483" fill="#1c1c1c" stroke="url(#bloodGradient)" stroke-width="1.5"/>
<polygon points="790.2820722763279,167.02323708394394 811.479478433826,168.93058164276542 812.8096252456372,187.09869171992236 790.4247951825864,187.7567427249812" fill="#1c1c1c" stroke="url(#bloodGradient)" stroke-width="1.5"/>
<polygon points="818.8705289710449,11.003807102687398 838.5446892115951,11.521065410586168 836.9569609916164,32.128013718902835 817.3882535572818,31.166248244180437" fill="#1c1c1c" stroke="url(#bloodGradient)" stroke-width="1.5"/>
<polygon points="818.3441116560078,37.75426171719094 839.3994426983287,37.42755798395616 837.9899097532001,57.56842033780484 816.0693589863753,57.122804949883125" fill="#1c1c1c" stroke="url(#bloodGradient)" stroke-width="1.5"/>
<polygon points="819.548763028822,65.59238115799747 837.1491359192472,63.68916352919572 838.9771458247965,85.69129227104008 818.1625101046279,83.18923279447937" fill="#1c1c1c" stroke="url(#bloodGradient)" stroke-width="1.5"/>
<polygon points="817.557226262514,89.67582997422927 836.6841202010875,90.48622586979555 837.7038334021718,110.75926448521949 817.7985664206205,111.34955571468514" fill="#1c1c1c" stroke="url(#bloodGradient)" stroke-width="1.5"/>
<polygon points="818.4211880165764,115.52676140794462 838.6454309626665,114.09792038720899 839.2550148059879,137.64446818727663 816.2341376374856,135.12769928217992" fill="#1c1c1c" stroke="url(#bloodGradient)" stroke-width="1.5"/>
<polygon points="818.1502764412188,142.20756178105873 839.0243367051653,143.06271834426838 837.910646710912,160.70197740070353 818.0585335880886,163.06686796830186" fill="#1c1c1c" stroke="url(#bloodGradient)" stroke-width="1.5"/>
<polygon points="818.9961274711352,168.16464655484882 838.5535159356643,169.12488084606068 838.8887118951733,187.07868584041702 819.3318423656697,188.40105309897638" fill="#1c1c1c" stroke="url(#bloodGradient)" stroke-width="1.5"/>
<polygon points="843.5642563084535,11.99977199597765 864.5542298901778,12.230464704642609 865.1555454300051,32.591214228288564 844.1322346351303,32.74717164050857" fill="#1c1c1c" stroke="url(#bloodGradient)" stroke-width="1.5"/>
<polygon points="845.0561639232626,36.648406082643355 865.1859161727072,37.32804592061734 865.7170040100934,58.32678298331557 845.2668595731303,59.449744294905614" fill="#1c1c1c" stroke="url(#bloodGradient)" stroke-width="1.5"/>
<polygon points="843.5383934830152,63.54953066261726 864.1087922248125,64.2873012844978 864.6346168779075,82.57548505327858 843.2967767365249,83.88461160494924" fill="#1c1c1c" stroke="url(#bloodGradient)" stroke-width="1.5"/>
<polygon points="844.9539897849809,88.27722168387174 863.3325321978335,91.58498362762947 862.7935694751661,110.59741948771446 843.8362742033769,108.65727446348691" fill="#1c1c1c" stroke="url(#bloodGradient)" stroke-width="1.5"/>
<polygon points="844.7192104880546,116.45722339544687 863.9837427667263,115.77662588877256 862.8451629823264,137.05996476345587 843.087267085606,137.63043490568936" fill="#1c1c1c" stroke="url(#bloodGradient)" stroke-width="1.5"/>
<polygon points="844.5308821701315,142.99929482427964 865.2157103603523,140.19095093755087 863.8602037567207,160.89174148768382 844.2703474057724,160.55653091412535" fill="#1c1c1c" stroke="url(#bloodGradient)" stroke-width="1.5"/>
<polygon points="843.6645283347934,168.90280817531672 865.268107322222,168.73719096162313 865.9936631355824,188.334089548578 843.4450695319105,186.6416189697463" fill="#1c1c1c" stroke="url(#bloodGradient)" stroke-width="1.5"/>
<polygon points="869.3577612008121,11.903032890252085 890.92914900561,13.17952239305057 891.8309716366156,32.436660740718686 869.7174502316024,32.58318748471735" fill="#1c1c1c" stroke="url(#bloodGradient)" stroke-width="1.5"/>
<polygon points="869.895095494131,39.5687404972553 889.7948671746756,36.503157632286005 891.9298772998917,59.03556802250763 870.2130953202577,56.5007746141056" fill="#1c1c1c" stroke="url(#bloodGradient)" stroke-width="1.5"/>
<polygon points="870.9706875523332,62.87114719279983 889.3734507582304,64.75583855718422 891.0650320490164,83.67051986358686 868.9830225803253,83.51295481520916" fill="#1c1c1c" stroke="url(#bloodGradient)" stroke-width="1.5"/>
<polygon points="869.115453794204,88.01929859920156 890.07750296658,88.1768037172472 891.3480237963871,111.79511606407138 868.570547499388,108.4245948503987" fill="#1c1c1c" stroke="url(#bloodGradient)" stroke-width="1.5"/>
<polygon points="869.9740922541031,117.46787117320936 890.1770235616436,117.31218893568962 888.9559289326364,134.50068163193532 871.2300159896844,136.6561462233395" fill="#1c1c1c" stroke="url(#bloodGradient)" stroke-width="1.5"/>
<polygon points="871.5961943839541,143.53621851023968 888.9330652792531,142.16962888622058 888.9608552287608,163.29760307951074 868.7213794081931,162.65953048219674" fill="#1c1c1c" stroke="url(#bloodGradient)" stroke-width="1.5"/>
<polygon points="868.8432918114966,166.97007137002853 889.0027817734251,168.96987840425456 890.1052821863223,188.94326281175577 868.5882573140278,189.43294484024034" fill="#1c1c1c" stroke="url(#bloodGradient)" stroke-width="1.5"/>
<polygon points="895.9043433067111,11.6308182125518 917.7150988147833,12.105720305861594 914.8750941578213,30.581559920774946 897.0092604040613,30.612305711502895" fill="#1c1c1c" stroke="url(#bloodGradient)" stroke-width="1.5"/>
<polygon points="896.8685465526039,36.42815014435139 917.74805140951,38.60552003035978 915.2316648571831,58.03704315906461 896.0394139201752,57.80090338019703" fill="#1c1c1c" stroke="url(#bloodGradient)" stroke-width="1.5"/>
<polygon points="897.5868003250755,64.41043000462557 915.1738998649492,65.0664943468007 916.2307323499706,84.18357794906052 897.2364942047288,84.92524306654717" fill="#1c1c1c" stroke="url(#bloodGradient)" stroke-width="1.5"/>
<polygon points="896.3267519729587,91.35340501124054 917.737805120858,90.66868950310273 917.9540768598428,109.20115331305523 894.3512448673154,109.94617277430301" fill="#1c1c1c" stroke="url(#bloodGradient)" stroke-width="1.5"/>
<polygon points="895.8241819571257,117.22848442329709 916.3698151190277,117.42519739069387 915.0660395697118,134.51096970058194 895.8339549067273,135.13735913021264" fill="#1c1c1c" stroke="url(#bloodGradient)" stroke-width="1.5"/>
<polygon points="896.7522307806975,141.33400130547935 914.6434285129058,142.29403332131457 917.5710605659299,161.38611993076304 895.9114971229745,163.32864777460912" fill="#1c1c1c" stroke="url(#bloodGradient)" stroke-width="1.5"/>
<polygon points="894.4650167381934,166.89738224696 914.9476852882286,169.03459557179346 915.8699502751776,189.34074202163333 896.7847017996955,186.72053255730987" fill="#1c1c1c" stroke="url(#bloodGradient)" stroke-width="1.5"/>
<polygon points="922.4857857524653,10.803646631446192 941.3224854015268,11.86953745508428 942.1948867527561,30.70832188637096 923.4758744970816,32.216291355498306" fill="#1c1c1c" stroke="url(#bloodGradient)" stroke-width="1.5"/>
<polygon points="920.6702135013306,38.15109248567619 941.4587498599243,39.44783242434666 943.7405529999755,56.630855783975306 922.9489648608292,59.297453472304596" fill="#1c1c1c" stroke="url(#bloodGradient)" stroke-width="1.5"/>
<polygon points="921.8638697883433,62.21663310729934 942.0085919749033,62.93548916660546 940.5032486458729,85.00750027249099 921.4393153480167,84.43542099971462" fill="#1c1c1c" stroke="url(#bloodGradient)" stroke-width="1.5"/>
<polygon points="922.3550321793418,88.02565959818368 941.9044964401211,88.71106204246384 943.063537023,111.8774546030473 920.5915409747035,111.84702217979749" fill="#1c1c1c" stroke="url(#bloodGradient)" stroke-width="1.5"/>
<polygon points="923.4739266678215,117.41478769948986 940.6266638643771,115.2933068031112 940.9845737713903,136.43838834925268 920.5946210944087,137.56610382933977" fill="#1c1c1c" stroke="url(#bloodGradient)" stroke-width="1.5"/>
<polygon points="921.6337284696716,143.33702358111475 941.3113111330289,143.58089609512837 943.2873471712523,161.28935783150584 922.3963419005579,163.54587485157637" fill="#1c1c1c" stroke="url(#bloodGradient)" stroke-width="1.5"/>
<polygon points="920.3325984734473,167.13306139176075 943.0395520152098,166.6931021843692 941.7997140308752,188.67771389242606 921.4383685480832,189.9730198847502" fill="#1c1c1c" stroke="url(#bloodGradient)" stroke-width="1.5"/>
<polygon points="948.2387308472978,12.561825105663074 968.1767327341194,12.178752236176818 968.0550922346933,31.873115312206213 948.4565896186766,33.90510033504214" fill="#1c1c1c" stroke="url(#bloodGradient)" stroke-width="1.5"/>
<polygon points="948.9030472566327,36.81509110835113 966.6869495397308,36.92376376145033 966.5849031864716,57.01225416062295 946.8406665818158,59.15970604569238" fill="#1c1c1c" stroke="url(#bloodGradient)" stroke-width="1.5"/>
<polygon points="948.576008865313,64.238469967582 966.9746064200544,63.082355889080475 966.5959349766481,83.88386276111908 946.929079501766,84.96465890153425" fill="#1c1c1c" stroke="url(#bloodGradient)" stroke-width="1.5"/>
<polygon points="946.0337108778331,89.01403036768151 969.9765921275192,90.8050913343328 968.0725099656968,111.24726379599541 946.6352413236347,110.80341965041852" fill="#1c1c1c" stroke="url(#bloodGradient)" stroke-width="1.5"/>
<polygon points="947.4067347536279,115.57996763536555 966.7300202899266,114.83551524904978 969.1028959606879,137.07868512006246 949.4517607638693,135.15693462085335" fill="#1c1c1c" stroke="url(#bloodGradient)" stroke-width="1.5"/>
<polygon points="947.2397965734765,143.01045100182122 969.732189963994,142.43996451747313 967.8164384684891,160.70193740159584 948.7101369018229,160.7835984582541" fill="#1c1c1c" stroke="url(#bloodGradient)" stroke-width="1.5"/>
<polygon points="947.1263237038356,168.45045804715437 968.2428486064076,168.4059288156729 967.613162925596,188.80429682340542 948.4599514433921,186.56404258950798" fill="#1c1c1c" stroke="url(#bloodGradient)" stroke-width="1.5"/>
<polygon points="973.0852655806237,12.200153031477058 992.5943849922877,10.151078488705203 994.4276145783522,30.911551870687653 973.9256888454273,31.379427328170127" fill="#1c1c1c" stroke="url(#bloodGradient)" stroke-width="1.5"/>
<polygon points="975.2984054851152,36.15246506519658 994.7633648654484,36.67230553816905 993.7331648049027,56.802984769080176 973.0943494583405,56.786992424176105" fill="#1c1c1c" stroke="url(#bloodGradient)" stroke-width="1.5"/>
<polygon points="973.936746364938,63.380774190933 992.7510093002369,63.78399214057643 994.4388509427214,82.71498276097985 972.3254929601621,85.38209979539948" fill="#1c1c1c" stroke="url(#bloodGradient)" stroke-width="1.5"/>
<polygon points="972.8307299267495,89.37993407414139 995.5815898693098,91.45584759067249 994.3731343995231,108.49399383173345 975.032394088688,109.84676907223574" fill="#1c1c1c" stroke="url(#bloodGradient)" stroke-width="1.5"/>
<polygon points="973.6804941660063,114.44770014203131 993.9091253808205,116.66728787077496 993.014223293987,136.00089301345074 973.8587909610899,135.91682069015965" fill="#1c1c1c" stroke="url(#bloodGradient)" stroke-width="1.5"/>
<polygon points="974.4972926249936,140.7295913516237 995.4003616364072,141.38241631154239 995.4873026457419,162.74727057951876 974.0872387978192,161.07526650007398" fill="#1c1c1c" stroke="url(#bloodGradient)" stroke-width="1.5"/>
<polygon points="974.2669468312924,167.85276781721578 993.0760982353529,166.3240530588459 995.0640208039966,189.8661305792572 973.9966405865645,187.7039534864957" fill="#1c1c1c" stroke="url(#bloodGradient)" stroke-width="1.5"/>
<polygon points="1000.5712722472041,11.653740805437872 1019.1785229483659,13.076949675305588 1021.9540505121558,31.64081113625614 999.704116334575,33.71026186380719" fill="#1c1c1c" stroke="url(#bloodGradient)" stroke-width="1.5"/>
<polygon points="998.1267081518495,36.04796095313137 1019.473929570596,36.76142014234514 1021.9290954818961,59.588954180712584 998.1383140387172,56.83272229945015" fill="#1c1c1c" stroke="url(#bloodGradient)" stroke-width="1.5"/>
<polygon points="1001.1722838083867,63.87183450224792 1018.5393248484661,64.94825867265882 1019.349845482055,82.54158647765038 1000.2984805707197,84.7319240834197" fill="#1c1c1c" stroke="url(#bloodGradient)" stroke-width="1.5"/>
<polygon points="999.348181526832,88.11357247772538 1018.628933740385,88.03239245807637 1020.7226854115396,111.28478170699624 998.3979061168379,109.37056330594594" fill="#1c1c1c" stroke="url(#bloodGradient)" stroke-width="1.5"/>
<polygon points="999.2844300711737,115.14672275508639 1018.4406326908991,117.01848184089731 1020.0069643575466,135.70508910536165 1001.5893019853943,137.77737865697583" fill="#1c1c1c" stroke="url(#bloodGradient)" stroke-width="1.5"/>
<polygon points="998.9940668778773,141.69531496786558 1021.1155954346675,143.43858238652402 1020.5274691236056,161.29365953239113 1000.0740390348262,162.2882527589017" fill="#1c1c1c" stroke="url(#bloodGradient)" stroke-width="1.5"/>
<polygon points="1000.671666219478,167.11446137039107 1018.7723073093134,169.5257831969218 1020.3158171801083,189.45219049303785 999.5055630706247,188.73434878143803" fill="#F7A8B8" stroke="url(#bloodGradient)" stroke-width="1.5"/>
<polygon points="1027.3030961385589,10.13736202761475 1045.493455369416,10.6259664690651 1047.0254591115759,33.70656097426096 1024.6576534021624,32.725325708340776" fill="#1c1c1c" stroke="url(#bloodGradient)" stroke-width="1.5"/>
<polygon points="1026.9099936751659,37.30753946569321 1046.0596496113783,36.732950254171435 1045.2056306679126,58.7475544434807 1025.0871116836172,56.6087454286814" fill="#1c1c1c" stroke="url(#bloodGradient)" stroke-width="1.5"/>
<polygon points="1025.3972716258615,64.53800236397676 1044.9404183141016,62.23159286569295 1047.0655413194665,84.48091944782607 1027.1294130550461,84.38278599716133" fill="#1c1c1c" stroke="url(#bloodGradient)" stroke-width="1.5"/>
<polygon points="1025.7957319922907,91.34191221777897 1045.1895572177668,88.1099075606438 1047.1660634596808,110.38510190236069 1027.1966599943323,111.10126013124649" fill="#1c1c1c" stroke="url(#bloodGradient)" stroke-width="1.5"/>
<polygon points="1024.2638520364342,116.23535071962363 1046.281736152205,117.51956639636356 1047.7366596145073,136.8148392374591 1025.551530953866,134.56288999276921" fill="#1c1c1c" stroke="url(#bloodGradient)" stroke-width="1.5"/>
<polygon points="1026.266845229909,140.6319973124084 1047.0211478689464,140.2944754321943 1045.8019564050574,163.94216017989288 1026.0892442917188,161.88724111389163" fill="#1c1c1c" stroke="url(#bloodGradient)" stroke-width="1.5"/>
<polygon points="1024.275114422128,168.39426902223914 1045.491410140464,167.57510574630516 1045.413927167342,189.89112259090928 1026.568147336883,187.92225355022757" fill="#1c1c1c" stroke="url(#bloodGradient)" stroke-width="1.5"/>
<polygon points="1050.7728454580642,13.09781181826352 1072.7912194860007,10.148004084279261 1071.521199016103,33.31580901787989 1051.6837736461882,31.214147637586798" fill="#1c1c1c" stroke="url(#bloodGradient)" stroke-width="1.5"/>
<polygon points="1052.479352477419,37.369738093164194 1072.019543394838,39.58168934192883 1073.956866884758,57.311938508099736 1052.5556229274603,59.9000557195904" fill="#1c1c1c" stroke="url(#bloodGradient)" stroke-width="1.5"/>
<polygon points="1050.3763360938917,65.10895952120872 1070.7168790989251,64.86042141754582 1073.7915425026351,84.18035238164364 1050.758823420917,82.83911609816775" fill="#1c1c1c" stroke="url(#bloodGradient)" stroke-width="1.5"/>
<polygon points="1051.325432486657,88.33664927280637 1070.8321297674215,89.28275409221409 1072.9075667517625,109.06566772615052 1050.219706638043,110.05142993873817" fill="#1c1c1c" stroke="url(#bloodGradient)" stroke-width="1.5"/>
<polygon points="1051.3630045929951,115.69052792278171 1070.55538061607,116.46320477786463 1070.6818118956535,137.53883755117113 1050.7907220622799,134.74931116129406" fill="#1c1c1c" stroke="url(#bloodGradient)" stroke-width="1.5"/>
<polygon points="1050.5396110899226,140.2944494012304 1070.6327497100826,140.55780714702178 1072.8625062297863,162.59018756536457 1052.8169262834913,163.99483141624492" fill="#1c1c1c" stroke="url(#bloodGradient)" stroke-width="1.5"/>
<polygon points="1050.4520534592737,166.5691287175069 1073.0455390141171,167.10260984083587 1071.1067535995717,187.77069501729622 1052.3222132039898,186.53658546259481" fill="#1c1c1c" stroke="url(#bloodGradient)" stroke-width="1.5"/>
<polygon points="1079.2150518160568,13.106899177700702 1098.0673097502145,12.961769664295478 1099.9154776428923,31.465864639353804 1079.4910427864922,31.24127312690829" fill="#1c1c1c" stroke="url(#bloodGradient)" stroke-width="1.5"/>
<polygon points="1078.845792026971,36.172508098154466 1098.902100382688,36.288909247105465 1099.9554211066527,56.98877073274157 1076.3320333404997,57.86649141192979" fill="#1c1c1c" stroke="url(#bloodGradient)" stroke-width="1.5"/>
<polygon points="1077.581390497712,63.870182632880024 1098.7427650873744,64.4114533033097 1097.8991954498929,83.57865509316943 1078.2371179508327,84.94725764820085" fill="#1c1c1c" stroke="url(#bloodGradient)" stroke-width="1.5"/>
<polygon points="1078.6159221616022,90.97219105951304 1097.317656727339,90.15747578609643 1099.0037325662618,108.77743220041698 1078.9017087390398,109.84124330079894" fill="#1c1c1c" stroke="url(#bloodGradient)" stroke-width="1.5"/>
<polygon points="1078.3240988983077,114.88313384398536 1099.6672655140655,116.15185333255599 1098.7190130942324,134.84995574007888 1077.60099244737,134.96589963604242" fill="#1c1c1c" stroke="url(#bloodGradient)" stroke-width="1.5"/>
<polygon points="1077.5930604252853,141.80473019438884 1097.2423761909329,143.0311084363445 1099.4452560015231,163.78406415045947 1076.2446154124502,162.5483359215431" fill="#1c1c1c" stroke="url(#bloodGradient)" stroke-width="1.5"/>
<polygon points="1077.7324619995122,169.15297145213654 1098.157663114327,166.786693762793 1099.9291353103183,187.21222698185917 1077.804223841305,187.44266693274673" fill="#1c1c1c" stroke="url(#bloodGradient)" stroke-width="1.5"/>
<polygon points="1102.6062552487244,10.003063134570043 1122.8126079519022,11.047730775376245 1125.7616337061493,30.718288216614486 1105.3070453000548,30.55349360956295" fill="#1c1c1c" stroke="url(#bloodGradient)" stroke-width="1.5"/>
<polygon points="1103.0301469362216,39.492107505398934 1125.6356527356807,39.36574275611133 1125.432430036736,56.93128847949087 1102.3029174878045,58.84303252441569" fill="#1c1c1c" stroke="url(#bloodGradient)" stroke-width="1.5"/>
<polygon points="1102.6618374077486,65.31842325428823 1122.721720809187,64.78300204259921 1125.0344762483926,85.62454326229003 1104.901107982371,82.79947481403721" fill="#1c1c1c" stroke="url(#bloodGradient)" stroke-width="1.5"/>
<polygon points="1105.2132300896249,88.07243466847738 1125.3574299238305,88.02487337364775 1123.967740552782,110.80530343291491 1104.1811476399619,110.75664265981652" fill="#1c1c1c" stroke="url(#bloodGradient)" stroke-width="1.5"/>
<polygon points="1105.2469844494515,117.32784261172827 1124.3486486687113,116.09971477712389 1124.035347376799,135.16251389677612 1103.82544011504,134.79708251764504" fill="#1c1c1c" stroke="url(#bloodGradient)" stroke-width="1.5"/>
<polygon points="1103.175101601798,140.92614829503583 1125.7887465939677,143.41636126589847 1124.846834364599,161.345512104443 1102.470819440017,161.4512348926172" fill="#1c1c1c" stroke="url(#bloodGradient)" stroke-width="1.5"/>
<polygon points="1104.319468865985,168.32838904099262 1124.0761216239885,166.29291491616436 1123.9641617082393,188.27586059814132 1104.3578305120807,187.2787641520999" fill="#1c1c1c" stroke="url(#bloodGradient)" stroke-width="1.5"/>
<polygon points="1130.9058381521893,10.501684740366418 1149.545040923263,12.03985776859446 1151.4368433556895,31.006884152293555 1128.3170950050169,31.167785959549448" fill="#1c1c1c" stroke="url(#bloodGradient)" stroke-width="1.5"/>
<polygon points="1131.2809056244425,38.06190234579227 1149.333861161673,39.134245753513426 1151.3593308555382,58.75396041653656 1128.8707138331515,59.86636830186869" fill="#1c1c1c" stroke="url(#bloodGradient)" stroke-width="1.5"/>
<polygon points="1131.0520847485427,63.04482238012038 1149.3177848998876,62.7563424965367 1151.7943889280245,82.71425497932893 1128.1019243181222,83.20482442765314" fill="#1c1c1c" stroke="url(#bloodGradient)" stroke-width="1.5"/>
<polygon points="1128.6589652978994,90.31676547542392 1149.862106435463,91.1283448683524 1150.133104951625,110.07149823003937 1129.7438321592315,108.83674641765279" fill="#1c1c1c" stroke="url(#bloodGradient)" stroke-width="1.5"/>
<polygon points="1129.115417787562,117.5240592954693 1148.7560689004931,115.10482520606242 1151.3543650290985,136.79399290446452 1130.680158852907,134.4646575179338" fill="#1c1c1c" stroke="url(#bloodGradient)" stroke-width="1.5"/>
<polygon points="1131.5499468575285,140.92765605410935 1149.0272728014756,143.16439228360915 1149.2839415286703,162.31060728579632 1130.7349307223067,162.66659970119937" fill="#1c1c1c" stroke="url(#bloodGradient)" stroke-width="1.5"/>
<polygon points="1130.3112677575054,167.04645019618906 1150.9214860576164,167.52292069179472 1149.3430794483506,188.0623548915888 1128.5119715027045,189.45265446198562" fill="#1c1c1c" stroke="url(#bloodGradient)" stroke-width="1.5"/>
<polygon points="1154.3916064210725,13.127980947164724 1177.4767594388493,13.086909349196453 1177.1033775424387,30.831253710811698 1156.91620967985,32.2608199114259" fill="#1c1c1c" stroke="url(#bloodGradient)" stroke-width="1.5"/>
<polygon points="1155.5724717952714,37.484554406498724 1176.9836473587466,36.43953734399765 1175.2971823541716,59.67281350904728 1154.528126933196,58.89697845544314" fill="#1c1c1c" stroke="url(#bloodGradient)" stroke-width="1.5"/>
<polygon points="1154.5107300663724,65.51361638066497 1174.7520507768886,64.70131916270509 1176.1693199733636,84.79724722704817 1155.3165193967404,83.4813071453776" fill="#1c1c1c" stroke="url(#bloodGradient)" stroke-width="1.5"/>
<polygon points="1155.3731376186288,90.93271146188863 1176.1903285148771,88.57851449290641 1174.8092328713935,109.36526718334163 1156.3139790487917,110.58685801756027" fill="#1c1c1c" stroke="url(#bloodGradient)" stroke-width="1.5"/>
<polygon points="1154.339647079824,114.18265080177608 1174.4297004604687,116.25699533753613 1174.4818710376978,136.15630838208196 1154.9552763494873,136.59652849492153" fill="#1c1c1c" stroke="url(#bloodGradient)" stroke-width="1.5"/>
<polygon points="1154.6885672851492,142.99668258265433 1176.1890778753107,143.00992153335235 1177.047333824448,160.9329929923399 1156.7457878206096,160.76886296839604" fill="#1c1c1c" stroke="url(#bloodGradient)" stroke-width="1.5"/>
<polygon points="1156.903725966946,166.2473452589785 1175.294899887326,166.70387597121766 1177.469081469613,189.84409151008668 1155.5421557127313,188.80454965500135" fill="#1c1c1c" stroke="url(#bloodGradient)" stroke-width="1.5"/>
<polygon points="1182.430863533929,10.337162226325532 1203.945312667083,12.523760694799213 1201.2960370079154,32.15107653393749 1181.2567990746088,32.68506761700402" fill="#1c1c1c" stroke="url(#bloodGradient)" stroke-width="1.5"/>
<polygon points="1182.4586915959317,37.31554442153719 1203.7030945255406,36.572006768387915 1203.387528477587,56.906414431372255 1182.9692148800862,59.21569408327489" fill="#1c1c1c" stroke="url(#bloodGradient)" stroke-width="1.5"/>
<polygon points="1183.0901915658865,65.58769491586189 1203.3661600904034,62.067246987843575 1201.969331429961,85.45777205169452 1183.3109232564173,85.04377636946364" fill="#1c1c1c" stroke="url(#bloodGradient)" stroke-width="1.5"/>
<polygon points="1183.461012808082,88.36287699000653 1201.647535202395,91.28517575559238 1201.981685028234,110.05652030455862 1183.2402178769692,109.32860787526882" fill="#1c1c1c" stroke="url(#bloodGradient)" stroke-width="1.5"/>
<polygon points="1180.0419571944708,116.68657479290938 1202.6550353070784,115.68403698558222 1203.4642761464477,135.92913046638282 1180.4260552413457,136.66323474012125" fill="#1c1c1c" stroke="url(#bloodGradient)" stroke-width="1.5"/>
<polygon points="1181.2294534732532,141.02369099430626 1203.2678937656872,140.54702487796686 1203.4253179528134,163.9660221847056 1182.2170730799655,163.07816987917124" fill="#1c1c1c" stroke="url(#bloodGradient)" stroke-width="1.5"/>
<polygon points="1181.4161371464445,169.51911095810496 1201.1229912335173,166.9028566441549 1203.0085959848386,188.6036087726687 1183.3966082324362,187.91673253813465" fill="#1c1c1c" stroke="url(#bloodGradient)" stroke-width="1.5"/>
<polygon points="1208.3584358131473,11.459205101252731 1227.9945920098203,11.311587206454806 1229.3591404466442,32.830538784715245 1208.323173604912,30.949640767521014" fill="#1c1c1c" stroke="url(#bloodGradient)" stroke-width="1.5"/>
<polygon points="1209.5499360351155,38.297499360105775 1229.1260807791966,39.512378622692346 1227.9401998038682,57.99617018329286 1207.9446575777156,59.43469197523345" fill="#1c1c1c" stroke="url(#bloodGradient)" stroke-width="1.5"/>
<polygon points="1207.3819023017234,64.89775841974723 1228.1617576289325,64.03652614360345 1227.2230914802049,83.85090993767093 1206.2078404394622,85.04756095350207" fill="#1c1c1c" stroke="url(#bloodGradient)" stroke-width="1.5"/>
<polygon points="1209.2435462971644,88.16078863778125 1226.973654457385,90.34536625429784 1228.264067012263,110.44712341679777 1208.1600252123073,110.63392537581952" fill="#1c1c1c" stroke="url(#bloodGradient)" stroke-width="1.5"/>
<polygon points="1208.1748794292653,114.92238967622747 1227.7335258821552,115.42255590897662 1227.744629834692,136.894069198639 1207.6225920935856,134.81097112465093" fill="#1c1c1c" stroke="url(#bloodGradient)" stroke-width="1.5"/>
<polygon points="1209.080062705225,143.57734317867806 1226.5458216982156,142.93666947852662 1228.0841012433993,162.2499718529212 1206.7416590110452,163.4993219483632" fill="#1c1c1c" stroke="url(#bloodGradient)" stroke-width="1.5"/>
<polygon points="1207.3070356601088,167.37824171919078 1227.5612615018429,169.04514111708167 1228.7234898730428,186.66634703104774 1206.688106143548,188.74157211006985" fill="#1c1c1c" stroke="url(#bloodGradient)" stroke-width="1.5"/>
<polygon points="1234.0243596601463,12.455108939302038 1254.443382653902,12.31768753763476 1255.242613268352,32.76130318305055 1233.7744057511686,30.76307121501059" fill="#1c1c1c" stroke="url(#bloodGradient)" stroke-width="1.5"/>
<polygon points="1233.898649982948,37.476789535855076 1252.5909530640008,39.06587316035606 1254.8920149036114,59.055219622154496 1232.352225147971,59.266363722402865" fill="#1c1c1c" stroke="url(#bloodGradient)" stroke-width="1.5"/>
<polygon points="1233.9311547175257,62.97616785627554 1253.7305214002297,63.782984754597656 1254.0268716359253,82.66579913561992 1232.8303948963376,82.96348104144329" fill="#1c1c1c" stroke="url(#bloodGradient)" stroke-width="1.5"/>
<polygon points="1232.6906146909973,89.13947264992198 1253.301508527997,88.44013073429142 1253.973264850967,111.75189024979413 1233.654005412257,108.67496696513854" fill="#1c1c1c" stroke="url(#bloodGradient)" stroke-width="1.5"/>
<polygon points="1235.598082284578,115.52012565087797 1254.1389867864243,116.27223284704894 1253.3944950340863,135.92063847118533 1233.7376308369228,136.1845095299235" fill="#1c1c1c" stroke="url(#bloodGradient)" stroke-width="1.5"/>
<polygon points="1233.1008286646145,140.80345462157612 1255.9921304122993,141.12531989644114 1253.8617949938912,163.07779708681053 1235.1892981093285,161.2255721765066" fill="#55CDFC" stroke="url(#bloodGradient)" stroke-width="1.5"/>
<polygon points="1233.0117899127356,169.27908481512492 1252.5343978348774,168.40179316445113 1254.3979473784505,188.65222279197232 1234.1831115896255,186.51911402663728" fill="#1c1c1c" stroke="url(#bloodGradient)" stroke-width="1.5"/>
<polygon points="1259.8327550984334,13.052861075974315 1281.4922215711144,12.069860452438213 1280.049383775409,31.51377692454166 1259.8822870605877,33.01380133389508" fill="#1c1c1c" stroke="url(#bloodGradient)" stroke-width="1.5"/>
<polygon points="1261.068289656944,38.363674680173794 1278.7164686459676,36.73610649683083 1281.7630683306609,57.419064942873405 1260.194698957589,56.85312940640182" fill="#1c1c1c" stroke="url(#bloodGradient)" stroke-width="1.5"/>
<polygon points="1259.087956357545,63.59741763977404 1280.6507006412521,64.10464776043722 1279.7485359794923,85.19196927789964 1260.3767715789058,82.6939501600552" fill="#F7A8B8" stroke="url(#bloodGradient)" stroke-width="1.5"/>
<polygon points="1258.7138909324303,89.09296351512918 1281.0648024473614,89.64527065046182 1278.8099506151175,111.42168666254177 1261.1631737955768,111.36763171902602" fill="#1c1c1c" stroke="url(#bloodGradient)" stroke-width="1.5"/>
<polygon points="1259.1518472458176,116.2331651215284 1279.3792279658371,116.96503184597249 1281.0621361501833,135.57672361766976 1259.8926222168152,135.5092922935912" fill="#FFFFFF" stroke="url(#bloodGradient)" stroke-width="1.5"/>
<polygon points="1259.3712681305246,141.1251727352924 1279.0896598825016,141.64982544347214 1279.5529867763014,162.0241254764861 1260.6738776925733,162.62036338621897" fill="#1c1c1c" stroke="url(#bloodGradient)" stroke-width="1.5"/>
<polygon points="1261.5439285818748,169.3997919527309 1281.5778691914088,169.0416461445309 1280.4688759326655,189.8054004897564 1261.2756215975876,188.8847719672781" fill="#55CDFC" stroke="url(#bloodGradient)" stroke-width="1.5"/>
<polygon points="1285.2345988966129,10.089413313162025 1305.9606788267931,10.444937506481876 1306.8602942531804,31.911675468939258 1285.1146662177641,31.197710800042685" fill="#1c1c1c" stroke="url(#bloodGradient)" stroke-width="1.5"/>
<polygon points="1287.3569794261136,38.08135101079062 1306.320211005965,36.499278725785246 1307.8858012548997,57.15623364767759 1285.2512812349532,58.92887554947615" fill="#1c1c1c" stroke="url(#bloodGradient)" stroke-width="1.5"/>
<polygon points="1284.655043604307,64.0611359807908 1305.8062967107087,63.67541095925697 1307.0482983032255,84.48312910312413 1285.1362139818514,83.25316950186304" fill="#1c1c1c" stroke="url(#bloodGradient)" stroke-width="1.5"/>
<polygon points="1286.030944640116,89.77196562718801 1304.911392455493,90.54119737628682 1304.7274163833533,111.78844180491791 1284.5547094716244,111.90665346874493" fill="#1c1c1c" stroke="url(#bloodGradient)" stroke-width="1.5"/>
<polygon points="1285.4248676494926,117.32282762780765 1307.0134595734535,115.04726094617803 1304.651253511306,137.7458893581006 1285.6880774330364,136.53157252856315" fill="#1c1c1c" stroke="url(#bloodGradient)" stroke-width="1.5"/>
<polygon points="1286.296301665256,140.72913082851454 1305.6767704541112,140.54069028898755 1307.3738317881202,160.94498331804942 1284.8889843998522,162.16259267150153" fill="#1c1c1c" stroke="url(#bloodGradient)" stroke-width="1.5"/>
<polygon points="1286.0352637094077,167.82940454784577 1305.804568766748,166.7828536254764 1306.8870789987736,186.66918066907905 1284.6859191978372,188.78853650762179" fill="#1c1c1c" stroke="url(#bloodGradient)" stroke-width="1.5"/>
<polygon points="1313.366308156688,13.233972609550031 1332.5212104556608,12.545388986235162 1333.0155603685546,32.57329972794375 1310.5353376002142,30.812360826123186" fill="#1c1c1c" stroke="url(#bloodGradient)" stroke-width="1.5"/>
<polygon points="1312.3055540863043,38.88286423372658 1332.6783794024384,36.18040649847714 1331.417819399349,59.49881632920836 1313.022011535184,57.32823087897203" fill="#1c1c1c" stroke="url(#bloodGradient)" stroke-width="1.5"/>
<polygon points="1313.5015184702813,62.354011981261856 1331.9490875273652,64.95461345648222 1332.0277417511575,84.65104541479913 1310.5572140974348,84.42896447965502" fill="#1c1c1c" stroke="url(#bloodGradient)" stroke-width="1.5"/>
<polygon points="1312.8896723121372,89.4829289036778 1333.3818750351943,89.19419673864344 1333.4950171342643,110.59641887039432 1311.2243915470192,110.03007252232253" fill="#1c1c1c" stroke="url(#bloodGradient)" stroke-width="1.5"/>
<polygon points="1311.2055686482622,115.39288175399108 1330.518683348034,117.41601994516311 1332.6423544605445,135.42028950197616 1311.7974017578117,136.26933544551972" fill="#1c1c1c" stroke="url(#bloodGradient)" stroke-width="1.5"/>
<polygon points="1311.885046844411,140.49305776630442 1331.1252039095655,143.52460550141492 1333.5634817853518,162.42524438558422 1312.221623484299,163.38587333429197" fill="#1c1c1c" stroke="url(#bloodGradient)" stroke-width="1.5"/>
<polygon points="1311.3711786550214,166.25879211923447 1333.7255493455627,168.4335002937211 1331.533365028833,187.32537166492386 1310.6147611174683,187.58266352685237" fill="#1c1c1c" stroke="url(#bloodGradient)" stroke-width="1.5"/>
<polygon points="1338.2797906020255,10.817335692630817 1359.94528310391,13.510467756378612 1359.4150188708963,30.90503719195976 1339.3741159881283,31.768771739315234" fill="#1c1c1c" stroke="url(#bloodGradient)" stroke-width="1.5"/>
<polygon points="1337.1949143088714,39.19140607970501 1358.4866127591006,37.092089839839325 1356.4889614171498,56.982592369751295 1338.9730488715613,57.971265255736085" fill="#1c1c1c" stroke="url(#bloodGradient)" stroke-width="1.5"/>
<polygon points="1338.5316280694067,62.50225888630743 1359.5745379042878,65.55852393076255 1358.072032273381,82.6526814261395 1338.9212765183486,85.46568764920654" fill="#1c1c1c" stroke="url(#bloodGradient)" stroke-width="1.5"/>
<polygon points="1337.8753381587944,90.4811265051285 1357.4251855575264,90.80677112488348 1357.2173125563315,111.43690426380087 1338.313209704729,111.4409883004912" fill="#1c1c1c" stroke="url(#bloodGradient)" stroke-width="1.5"/>
<polygon points="1337.034833054879,114.66581107555137 1356.4001130396823,116.13702676331476 1359.7908969585856,135.03461567542155 1337.4696418450467,137.91813737227875" fill="#1c1c1c" stroke="url(#bloodGradient)" stroke-width="1.5"/>
<polygon points="1338.5727774010504,141.10779266006017 1358.8365518571768,143.1219598692635 1359.7819632237631,162.6510636326272 1337.7695018581153,161.19548186956868" fill="#1c1c1c" stroke="url(#bloodGradient)" stroke-width="1.5"/>
<polygon points="1337.987508390735,166.74764430366807 1356.8741727545876,167.74832932077402 1357.7691779072577,186.80665120760958 1336.0029832559749,187.66728227197214" fill="#1c1c1c" stroke="url(#bloodGradient)" stroke-width="1.5"/>
<polygon points="1365.4796526387088,13.200992309061307 1383.5171054468801,12.669418068021436 1383.8274477809243,30.86024733778743 1362.3482204105208,30.56721826483503" fill="#1c1c1c" stroke="url(#bloodGradient)" stroke-width="1.5"/>
<polygon points="1362.6332715899393,39.25424533827311 1383.0001405669746,36.943618058073426 1384.3112327394335,58.58651517107773 1364.7468819554551,57.371430395701566" fill="#1c1c1c" stroke="url(#bloodGradient)" stroke-width="1.5"/>
<polygon points="1362.2464192230393,62.95723960015239 1383.7687352111284,64.55446695835519 1384.1865835167966,84.72691784231041 1363.231890344106,84.82675698661407" fill="#1c1c1c" stroke="url(#bloodGradient)" stroke-width="1.5"/>
<polygon points="1362.061962891672,88.51472940752186 1384.4588124407949,89.02362537682984 1384.1970454304244,109.16915411664388 1364.8467573932994,110.79506444726638" fill="#FFFFFF" stroke="url(#bloodGradient)" stroke-width="1.5"/>
<polygon points="1363.120070448915,117.48719078931767 1383.2843927734973,116.93127503902025 1382.4934396188971,136.81163270865554 1362.6106014602274,135.7514759122333" fill="#1c1c1c" stroke="url(#bloodGradient)" stroke-width="1.5"/>
<polygon points="1364.8142541589414,142.76891156062592 1383.6294054612974,142.40239100376803 1382.9245041071106,161.58420392402073 1363.0223483100785,161.5818519806632" fill="#FFFFFF" stroke="url(#bloodGradient)" stroke-width="1.5"/>
<polygon points="1364.2355381689404,166.60830188108346 1382.497297969069,169.5658231582342 1383.0809391431897,188.68008003554976 1363.8985675692054,187.64503143226122" fill="#1c1c1c" stroke="url(#bloodGradient)" stroke-width="1.5"/>
<rect x="10" y="10" width="1376" height="180" fill="url(#ukFlag)" mask="url(#fractureMask)" opacity="0.3"/>
<path d="M10 20 L750 30" stroke="#8B0000" stroke-width="3" opacity="0.25">
      <animate attributeName="opacity" values="0.25;0.6;0.25" dur="5s" repeatCount="indefinite" begin="0s"/>
    </path>
<path d="M100 0 L90 180" stroke="#8B0000" stroke-width="3" opacity="0.25">
      <animate attributeName="opacity" values="0.25;0.6;0.25" dur="6s" repeatCount="indefinite" begin="1s"/>
    </path>
<path d="M300 10 L310 170" stroke="#8B0000" stroke-width="3" opacity="0.25">
      <animate attributeName="opacity" values="0.25;0.6;0.25" dur="7s" repeatCount="indefinite" begin="2s"/>
    </path>
<path d="M400 20 L410 160" stroke="#8B0000" stroke-width="3" opacity="0.25">
      <animate attributeName="opacity" values="0.25;0.6;0.25" dur="8s" repeatCount="indefinite" begin="3s"/>
    </path>
<path d="M600 0 L590 180" stroke="#8B0000" stroke-width="3" opacity="0.25">
      <animate attributeName="opacity" values="0.25;0.6;0.25" dur="9s" repeatCount="indefinite" begin="4s"/>
    </path>
<text x="10" y="130" fill="#8B0000" font-weight="bold" font-size="18" filter="url(#glitchFilter)" opacity="0.85">TEAR DOWN THE EMPIRE</text>
<text x="10" y="148" fill="#8B0000" font-weight="bold" font-size="18" filter="url(#glitchFilter)" opacity="0.85">REVOLT AGAINST REFORM UK</text>
<text x="10" y="166" fill="#8B0000" font-weight="bold" font-size="18" filter="url(#glitchFilter)" opacity="0.85">TRANS LIBERATION NOW</text>
</svg>