<svg width="760" height="180" viewBox="0 0 760 180" xmlns="http://www.w3.org/2000/svg" style="background:#121212; border-radius: 8px; font-family: monospace;">

  <defs>
    <!-- Trans Flag Gradient -->
    <linearGradient id="transGradient" x1="0" y1="0" x2="0" y2="1">
      <stop offset="0%" stop-color="#55CDFC"/>
      <stop offset="33%" stop-color="#F7A8B8"/>
      <stop offset="66%" stop-color="#FFFFFF"/>
      <stop offset="100%" stop-color="#F7A8B8"/>
    </linearGradient>

    <!-- Blood Red Gradient for outlines -->
    <linearGradient id="bloodGradient" x1="0" y1="0" x2="1" y2="1">
      <stop offset="0%" stop-color="#8B0000"/>
      <stop offset="100%" stop-color="#450000"/>
    </linearGradient>

    <!-- UK Flag Pattern -->
    <pattern id="ukFlag" x="0" y="0" width="40" height="40" patternUnits="userSpaceOnUse">
      <rect width="40" height="40" fill="#00247d"/>
      <path d="M0 0 L40 40 M40 0 L0 40" stroke="#fff" stroke-width="5"/>
      <path d="M0 18 L40 18 M20 0 L20 40" stroke="#cf142b" stroke-width="10"/>
      <path d="M0 15 L40 25 M15 0 L25 40" stroke="#fff" stroke-width="6"/>
      <path d="M0 16 L40 24 M16 0 L24 40" stroke="#cf142b" stroke-width="4"/>
    </pattern>

    <!-- Fracture mask for UK flag cracks -->
    <mask id="fractureMask">
      <rect width="100%" height="100%" fill="white"/>
      <!-- Cracks flickering -->
      <path d="M50 0 L60 180" stroke="black" stroke-width="4" opacity="0.3">
        <animate attributeName="opacity" values="0.3;0;0.3" dur="6s" repeatCount="indefinite"/>
      </path>
      <path d="M120 0 L130 180" stroke="black" stroke-width="3" opacity="0.2">
        <animate attributeName="opacity" values="0.2;0;0.2" dur="8s" repeatCount="indefinite" begin="2s"/>
      </path>
      <path d="M200 0 L210 180" stroke="black" stroke-width="5" opacity="0.25">
        <animate attributeName="opacity" values="0.25;0;0.25" dur="5s" repeatCount="indefinite" begin="4s"/>
      </path>
      <path d="M280 0 L290 180" stroke="black" stroke-width="3" opacity="0.15">
        <animate attributeName="opacity" values="0.15;0;0.15" dur="7s" repeatCount="indefinite" begin="1s"/>
      </path>
    </mask>

    <!-- Glitch text filter -->
    <filter id="glitchFilter" x="-10%" y="-10%" width="120%" height="120%">
      <feColorMatrix in="SourceGraphic" type="matrix"
        values="1 0 0 0 0
                0 1 0 0 0
                0 0 1 0 0
                0 0 0 20 -10"/>
      <feOffset dx="2" dy="0" result="off1"/>
      <feOffset dx="-2" dy="0" result="off2"/>
      <feMerge>
        <feMergeNode in="off1"/>
        <feMergeNode in="off2"/>
        <feMergeNode in="SourceGraphic"/>
      </feMerge>
    </filter>
  </defs>
<rect width="760" height="180" fill="#121212"/>
<polygon points="13.4929695775887,13.184546406416919 33.75748065030913,11.723238412995322 32.27082788434799,32.08261643474989 10.591967755260706,30.413418184285256" fill="#1c1c1c" stroke="url(#bloodGradient)" stroke-width="1.5"/>
<polygon points="11.782186128368437,39.23266413339098 30.99850884684848,36.13426332511065 31.422369061186316,59.17866489106809 13.229689677906629,56.88205904548551" fill="#1c1c1c" stroke="url(#bloodGradient)" stroke-width="1.5"/>
<polygon points="13.069655988593162,62.94793097551884 30.588915739723962,64.25944827123733 33.74158600508186,85.25415898450736 13.045379686189984,82.97737006708742" fill="#1c1c1c" stroke="url(#bloodGradient)" stroke-width="1.5"/>
<polygon points="10.533033110276254,88.60446813874866 33.24396156936453,89.90538660777982 33.07554857525632,110.80100726195882 11.484931202353087,110.87117348581697" fill="#55CDFC" stroke="url(#bloodGradient)" stroke-width="1.5"/>
<polygon points="11.509798855805924,117.00185362732518 31.32241253801935,117.47813012571086 32.957372135706244,134.706402966099 11.591041677241506,135.80392526370116" fill="#1c1c1c" stroke="url(#bloodGradient)" stroke-width="1.5"/>
<polygon points="10.398203729902685,142.28524643086118 31.241253837400038,142.42513614327024 33.774839723998284,163.6202182346596 11.858573676728515,161.62895417414737" fill="#1c1c1c" stroke="url(#bloodGradient)" stroke-width="1.5"/>
<polygon points="12.299770023133718,166.42774156356893 32.10070409431857,168.95029914639244 31.34029625450736,186.54836495396725 12.359089919196107,189.32178847961035" fill="#1c1c1c" stroke="url(#bloodGradient)" stroke-width="1.5"/>
<polygon points="38.913022476399206,12.740786417903749 58.34771698738282,12.012564944604248 57.95505276857229,30.503093427830557 37.76824010469567,31.805851274425223" fill="#1c1c1c" stroke="url(#bloodGradient)" stroke-width="1.5"/>
<polygon points="39.15076082836628,36.98669432370165 59.914044588414846,36.34421597024309 56.64191339202291,58.861095149696446 37.787941541102185,59.603884419143085" fill="#1c1c1c" stroke="url(#bloodGradient)" stroke-width="1.5"/>
<polygon points="36.98802115017828,63.4638708006583 58.60862089655554,62.105047773221614 57.22410780632438,85.37337420523774 36.59480313674755,84.61375481955142" fill="#1c1c1c" stroke="url(#bloodGradient)" stroke-width="1.5"/>
<polygon points="39.1580190142137,89.9523657947011 57.07278825979612,89.04157002425352 59.84331497661141,109.9083598371975 38.73364578744765,111.65595828217674" fill="#1c1c1c" stroke="url(#bloodGradient)" stroke-width="1.5"/>
<polygon points="37.95306629398675,116.87617408309758 59.65143969877595,115.40453755653363 57.059612847166854,135.82174666355638 39.45299252013697,136.68842889005467" fill="#1c1c1c" stroke="url(#bloodGradient)" stroke-width="1.5"/>
<polygon points="37.48757704668905,142.0198809423717 57.63838909609082,141.1046398454832 57.940210898970605,161.01098230848916 36.36142246006242,162.52309518941135" fill="#1c1c1c" stroke="url(#bloodGradient)" stroke-width="1.5"/>
<polygon points="39.30541388867016,166.92854975470453 58.41450340014135,166.33782665741705 58.54200351094217,188.80479857809271 39.09924356508352,186.60056422905714" fill="#1c1c1c" stroke="url(#bloodGradient)" stroke-width="1.5"/>
<polygon points="64.41914375142606,11.614232428931524 83.5049253022996,11.082356550140842 82.40403232210274,32.28553122877526 64.78599387450072,33.216174183296175" fill="#1c1c1c" stroke="url(#bloodGradient)" stroke-width="1.5"/>
<polygon points="64.92409115746464,38.313310158886594 83.5655817042957,38.90302853721341 84.31048507884357,59.05338451319274 62.426031842684935,56.67825421195443" fill="#1c1c1c" stroke="url(#bloodGradient)" stroke-width="1.5"/>
<polygon points="62.280151596345554,63.123945449954775 82.88128077686275,62.67795241831147 83.50408333520494,82.80326502565622 65.48128441919756,85.42245034347506" fill="#1c1c1c" stroke="url(#bloodGradient)" stroke-width="1.5"/>
<polygon points="62.39042353336572,90.16653251328009 84.94563960349788,88.39756208400621 85.7926741078429,109.5019443157846 62.38990935271551,109.19654594225007" fill="#1c1c1c" stroke="url(#bloodGradient)" stroke-width="1.5"/>
<polygon points="62.56402090132376,115.92940409668714 83.79715184383306,116.17340622096776 82.46372242413959,135.9027606197363 63.49954925415499,135.73703339792135" fill="#1c1c1c" stroke="url(#bloodGradient)" stroke-width="1.5"/>
<polygon points="62.30090259770712,140.1736576811111 85.86390854918798,141.53237536874178 85.19626282452842,160.97140771922028 65.07974724198296,161.92331077466793" fill="#1c1c1c" stroke="url(#bloodGradient)" stroke-width="1.5"/>
<polygon points="65.15661997487736,166.13137136970332 84.51007516239906,167.88408871000848 82.56668616057154,187.84742001607293 62.21506697952025,187.30515620823007" fill="#1c1c1c" stroke="url(#bloodGradient)" stroke-width="1.5"/>
<polygon points="89.83971136884762,10.560569712528698 108.65892188300428,12.611022523626668 111.46965584793011,31.882304555367913 90.32629407806687,31.838802290524495" fill="#1c1c1c" stroke="url(#bloodGradient)" stroke-width="1.5"/>
<polygon points="90.92045610228502,38.85489246939485 108.5338379603803,39.536021278500684 109.81649192409265,58.901942175767005 89.0055852967125,59.03559595548796" fill="#1c1c1c" stroke="url(#bloodGradient)" stroke-width="1.5"/>
<polygon points="88.98135259110948,62.51423060078803 110.059971133234,63.935693230260306 110.8357868240324,85.70814054959622 91.48205391135129,83.1261198209538" fill="#55CDFC" stroke="url(#bloodGradient)" stroke-width="1.5"/>
<polygon points="91.35367714849009,90.64595671198164 110.17199137487935,90.87948396090385 110.80221853989285,111.56546732199543 88.40611791918673,110.09126645557312" fill="#55CDFC" stroke="url(#bloodGradient)" stroke-width="1.5"/>
<polygon points="90.38938096916414,117.17188545740113 109.06122863934522,116.03759034539215 109.42539393019246,135.42279815257356 90.38788685623955,135.59285872525786" fill="#1c1c1c" stroke="url(#bloodGradient)" stroke-width="1.5"/>
<polygon points="89.9936136738103,143.32276979082587 111.11810754069964,141.48826668643912 108.40379257506707,161.73840246561375 88.69891819463743,163.30570799666987" fill="#1c1c1c" stroke="url(#bloodGradient)" stroke-width="1.5"/>
<polygon points="90.3840691068304,167.34337205920968 110.80241400071087,166.10653135611844 111.0256928996125,187.76499468128097 89.87332145331438,189.55474042148253" fill="#1c1c1c" stroke="url(#bloodGradient)" stroke-width="1.5"/>
<polygon points="116.21295420040248,11.21958362883561 137.91714257038822,12.113838955285571 135.7824469808225,30.984552536529648 115.45378868928185,31.17303861522753" fill="#1c1c1c" stroke="url(#bloodGradient)" stroke-width="1.5"/>
<polygon points="115.8427128599836,36.34748096029902 135.39658478655875,38.35890155871991 137.32240526001502,57.93357595494331 115.09715477593375,57.388392564782606" fill="#1c1c1c" stroke="url(#bloodGradient)" stroke-width="1.5"/>
<polygon points="114.04907067330124,64.66924988031082 134.478881291473,64.13313714566806 137.857387416166,83.46155002380915 115.57058178657937,83.95041453257475" fill="#55CDFC" stroke="url(#bloodGradient)" stroke-width="1.5"/>
<polygon points="116.74102159232169,88.23175584611865 136.29027428568003,91.28759109999176 135.1794660986859,111.78074929020669 115.78919594179553,108.78816517682992" fill="#1c1c1c" stroke="url(#bloodGradient)" stroke-width="1.5"/>
<polygon points="116.48835995403954,116.92372051712616 135.60570881364322,114.48510358454567 135.26153828528413,135.0580848333495 114.35828134466607,134.73735446284456" fill="#1c1c1c" stroke="url(#bloodGradient)" stroke-width="1.5"/>
<polygon points="114.36445980912868,140.65289983073276 137.75470998908335,141.42869015609023 137.43495324793798,163.46202336331868 116.62827288375235,160.7808661828336" fill="#1c1c1c" stroke="url(#bloodGradient)" stroke-width="1.5"/>
<polygon points="117.49756564434567,168.95000625745053 137.26199207205516,167.23003775047235 137.29059334453515,188.01376976187439 114.81559647252841,187.96492599096817" fill="#1c1c1c" stroke="url(#bloodGradient)" stroke-width="1.5"/>
<polygon points="140.89429680357253,12.451623156158094 163.74233390679385,13.204121559634187 163.05566643326267,33.89555922072791 141.48668931080257,33.42240097410408" fill="#1c1c1c" stroke="url(#bloodGradient)" stroke-width="1.5"/>
<polygon points="143.1096954602399,38.071655160642294 163.66578544835855,37.01784888293498 162.47305565835865,58.455447884986235 141.53009442575208,59.75262305346558" fill="#1c1c1c" stroke="url(#bloodGradient)" stroke-width="1.5"/>
<polygon points="143.39213375744768,64.65755430445414 163.0467184308559,65.17678180141343 163.8050121218781,85.46980247090754 141.35247934057725,84.69751968961133" fill="#1c1c1c" stroke="url(#bloodGradient)" stroke-width="1.5"/>
<polygon points="143.19026698207432,90.75256850383691 163.71062946812893,90.292423299982 161.85669519008246,108.64950602081595 142.15553471639433,110.57796871013862" fill="#1c1c1c" stroke="url(#bloodGradient)" stroke-width="1.5"/>
<polygon points="142.75011278353716,117.27402161384666 163.04760362194364,117.28739229889307 163.63728736314746,136.5245620548687 142.15776673161844,136.86560556093434" fill="#1c1c1c" stroke="url(#bloodGradient)" stroke-width="1.5"/>
<polygon points="141.72642148883054,140.97716971041245 161.87002835585423,142.0474568546106 162.58508651441642,160.97664054560605 142.59479691426176,163.81124913770915" fill="#1c1c1c" stroke="url(#bloodGradient)" stroke-width="1.5"/>
<polygon points="142.24168436499335,167.87585119351345 161.90139951539132,168.21518516477857 160.4036739977014,188.35667701700626 142.652103994777,187.12909435489513" fill="#1c1c1c" stroke="url(#bloodGradient)" stroke-width="1.5"/>
<polygon points="168.70473557565302,11.076849521689653 189.560460367862,13.175832760736348 186.71261893176836,31.30146138822418 167.66026812228515,33.87862478271462" fill="#1c1c1c" stroke="url(#bloodGradient)" stroke-width="1.5"/>
<polygon points="166.25453023052268,36.84840895502392 188.8004974687401,38.90993141673787 189.98311555699124,58.8997640816484 169.06601492116735,59.01877463424788" fill="#1c1c1c" stroke="url(#bloodGradient)" stroke-width="1.5"/>
<polygon points="166.4717219204868,62.1025232067828 189.4642718777703,64.45121226459551 188.57164948659027,82.74455134538117 168.4619173343989,85.68582304417865" fill="#1c1c1c" stroke="url(#bloodGradient)" stroke-width="1.5"/>
<polygon points="166.08209565301908,89.14684402093889 188.29246789981468,88.65736952895459 188.94192299761326,111.76623005307735 168.43971198459394,111.95386096465953" fill="#1c1c1c" stroke="url(#bloodGradient)" stroke-width="1.5"/>
<polygon points="166.39692732135566,116.56562976568185 189.64863160693392,116.71442918403035 187.38326117929063,137.54643958995422 166.06585686631442,134.52155049119756" fill="#1c1c1c" stroke="url(#bloodGradient)" stroke-width="1.5"/>
<polygon points="166.6514454265789,141.87409778809004 189.17626418515178,143.45429909789877 187.58702838237272,161.70571694864321 168.39537342677036,160.71421761967665" fill="#1c1c1c" stroke="url(#bloodGradient)" stroke-width="1.5"/>
<polygon points="166.60942075402934,169.33291803132684 188.48196982838016,169.59816600132933 188.02657604883257,188.80723231394433 166.99384110261212,188.11479047685205" fill="#1c1c1c" stroke="url(#bloodGradient)" stroke-width="1.5"/>
<polygon points="192.99434488840228,10.067216058152596 214.8256391701378,12.398861309205365 213.60811229141999,31.853118021512206 195.03680944736797,31.115199871655836" fill="#1c1c1c" stroke="url(#bloodGradient)" stroke-width="1.5"/>
<polygon points="193.1427160099645,36.92892102332375 213.7140718341144,37.475795402379546 215.3008833002018,57.513999976597525 193.275095926676,57.794758359274695" fill="#1c1c1c" stroke="url(#bloodGradient)" stroke-width="1.5"/>
<polygon points="195.4233429367588,64.18859842198226 215.60908179058282,62.407388329744805 214.1225697710391,84.58708138968147 195.54231924620183,83.56950140938629" fill="#1c1c1c" stroke="url(#bloodGradient)" stroke-width="1.5"/>
<polygon points="194.40134868278057,90.0679383393315 215.79897628060044,89.1165310090882 215.2242461610299,108.92737308969498 193.0899066760121,111.4036356131943" fill="#1c1c1c" stroke="url(#bloodGradient)" stroke-width="1.5"/>
<polygon points="194.99061571608448,115.8507617667913 214.70045683861767,116.87740004931997 214.0810068673294,135.75700427465802 193.29461401324497,135.5035614486137" fill="#1c1c1c" stroke="url(#bloodGradient)" stroke-width="1.5"/>
<polygon points="194.84701001195603,141.4242706337104 213.08626640429532,141.63939871013153 214.78825524561378,162.11713920194643 193.39397135831695,163.09670897145122" fill="#1c1c1c" stroke="url(#bloodGradient)" stroke-width="1.5"/>
<polygon points="193.00860002221785,166.29947746565085 215.50326070811033,168.83906674381603 213.74710523510325,186.97356411406125 194.08608779873063,188.94620126084396" fill="#1c1c1c" stroke="url(#bloodGradient)" stroke-width="1.5"/>
<polygon points="218.2794169489974,12.718293355560572 238.44801446828703,11.582932601785865 240.80817400832933,33.16435536870192 220.4488841916979,33.596050937199465" fill="#1c1c1c" stroke="url(#bloodGradient)" stroke-width="1.5"/>
<polygon points="218.78876065591479,38.34075072290595 239.13110480804437,36.5808567220331 240.30709068651586,59.71847179262778 219.67281655952345,56.70299197198863" fill="#1c1c1c" stroke="url(#bloodGradient)" stroke-width="1.5"/>
<polygon points="219.41296967283088,64.27979662652548 239.96018676409034,63.83122936385212 238.85838917812387,83.66631766593721 220.4703500507816,85.1359505205478" fill="#1c1c1c" stroke="url(#bloodGradient)" stroke-width="1.5"/>
<polygon points="219.48381175215243,90.05476255387501 241.0815194813073,88.74037676589461 239.43390198351364,108.61908306917958 220.74767831284706,110.29974199926878" fill="#1c1c1c" stroke="url(#bloodGradient)" stroke-width="1.5"/>
<polygon points="219.86530867678158,116.43706511725877 239.28973983751067,115.51116944450075 238.63601024508017,135.42282062560247 220.10759349969288,137.99920557899955" fill="#1c1c1c" stroke="url(#bloodGradient)" stroke-width="1.5"/>
<polygon points="219.4372842108948,142.43345614163644 241.78472300022796,141.80096608194947 241.3995501120825,162.09099237462573 218.40608545507268,161.83555302152297" fill="#1c1c1c" stroke="url(#bloodGradient)" stroke-width="1.5"/>
<polygon points="218.36636255220557,168.78575913718893 239.73178780519115,168.28568787364372 241.66622845075455,186.99654458059138 218.90598175905862,186.47352796026018" fill="#1c1c1c" stroke="url(#bloodGradient)" stroke-width="1.5"/>
<polygon points="244.08814843378022,13.07583119123893 267.4555725193267,12.087946256282175 265.2477662568397,30.979953883314135 244.94046888727829,33.526011305623655" fill="#1c1c1c" stroke="url(#bloodGradient)" stroke-width="1.5"/>
<polygon points="246.20023089607827,37.268131717436134 267.08457642769724,38.68156727881717 265.9052065956752,57.89363175704126 246.244413546439,59.60281845147761" fill="#1c1c1c" stroke="url(#bloodGradient)" stroke-width="1.5"/>
<polygon points="245.13821012637675,62.46368674299408 267.37374824274895,62.13424221087331 267.29251089958836,83.60356873886946 246.81813620668896,82.78080607689147" fill="#1c1c1c" stroke="url(#bloodGradient)" stroke-width="1.5"/>
<polygon points="246.67388067989893,89.52577147115359 264.83848186603336,88.81215731518317 267.00203816311506,109.07318610403725 246.18253323977447,111.01457956040895" fill="#1c1c1c" stroke="url(#bloodGradient)" stroke-width="1.5"/>
<polygon points="247.44755618130728,115.8124691401879 267.67733309322864,116.41238017875696 265.06119738337713,135.21787730684886 244.1998297668734,135.5759111576558" fill="#1c1c1c" stroke="url(#bloodGradient)" stroke-width="1.5"/>
<polygon points="247.56354786625806,141.63737064909 264.93002667770804,142.694091445085 267.4987628231767,162.67992068204455 247.05660018327495,161.8962511729401" fill="#1c1c1c" stroke="url(#bloodGradient)" stroke-width="1.5"/>
<polygon points="245.36637828893265,168.04506695658407 266.64898609761093,166.6893778212972 264.9265173956051,187.88370726449605 244.57494647588106,186.53673503107154" fill="#1c1c1c" stroke="url(#bloodGradient)" stroke-width="1.5"/>
<polygon points="272.72387428726967,12.39232084997847 292.54987719314397,12.723084184857386 291.01537580364015,32.4162965988271 271.49892646071305,32.85800368094615" fill="#1c1c1c" stroke="url(#bloodGradient)" stroke-width="1.5"/>
<polygon points="272.3634576889302,36.67827434877319 292.87627594064224,39.44031824603015 291.2603842127124,57.29138046834919 273.43941849128254,58.970449523779614" fill="#1c1c1c" stroke="url(#bloodGradient)" stroke-width="1.5"/>
<polygon points="272.2714726082438,62.59299059965435 292.483892350745,62.759142164344546 291.34577226808733,83.46632475094954 273.1908566590633,82.56841799146795" fill="#1c1c1c" stroke="url(#bloodGradient)" stroke-width="1.5"/>
<polygon points="270.0343550549982,90.41716014336906 291.1384068261048,89.07791936657998 290.7784930003313,111.53942972029415 271.2513559115046,111.60122272825743" fill="#1c1c1c" stroke="url(#bloodGradient)" stroke-width="1.5"/>
<polygon points="271.3525488035476,116.44467379426622 293.041301448549,117.34525452347434 291.9759024457653,137.17117280347074 271.18965019840044,135.31561354009492" fill="#1c1c1c" stroke="url(#bloodGradient)" stroke-width="1.5"/>
<polygon points="271.11146048624767,143.1806990954879 292.98323597596095,143.51880516171406 293.5278129482366,162.84216738455086 272.94197114604145,160.8017200766952" fill="#1c1c1c" stroke="url(#bloodGradient)" stroke-width="1.5"/>
<polygon points="270.78877975283524,168.4573461122826 293.2911373714325,167.13128314945703 290.6642509921148,188.74529442629833 273.48320943744466,186.57513822221904" fill="#1c1c1c" stroke="url(#bloodGradient)" stroke-width="1.5"/>
<polygon points="298.5007181833283,11.54900496309083 319.76258982276863,11.25990316306046 316.4187133567818,31.014186617931532 297.2027589551164,31.018212126796584" fill="#1c1c1c" stroke="url(#bloodGradient)" stroke-width="1.5"/>
<polygon points="298.37967264324794,39.21923601194683 319.7673008307577,36.889680916865885 318.626336347756,59.36323222802542 297.28592185160676,58.63030525103805" fill="#1c1c1c" stroke="url(#bloodGradient)" stroke-width="1.5"/>
<polygon points="298.1149032145837,62.53139273695056 317.48455056926053,64.24364682693688 319.1405910216322,84.17777365535603 299.0941085049956,82.99884220050055" fill="#1c1c1c" stroke="url(#bloodGradient)" stroke-width="1.5"/>
<polygon points="296.9564777248141,89.8144633430922 318.2513796560054,88.70232754687741 316.7502670286795,111.96475627578356 299.2256400124482,111.91970329489875" fill="#1c1c1c" stroke="url(#bloodGradient)" stroke-width="1.5"/>
<polygon points="296.7306619845565,114.77053728195082 317.1961402495835,117.48635202503792 317.6680138468227,135.73100998129948 298.3965497564744,137.38686713463798" fill="#1c1c1c" stroke="url(#bloodGradient)" stroke-width="1.5"/>
<polygon points="296.5173915294935,143.324215649942 316.892449249529,141.1446227762677 317.01967037581096,160.91512216768015 297.0690844257259,163.36304499904105" fill="#1c1c1c" stroke="url(#bloodGradient)" stroke-width="1.5"/>
<polygon points="296.9725746288018,167.43177778633046 318.3296269402379,169.52313428932237 319.909086186446,188.77384567069512 296.2469169749048,187.4938640786651" fill="#1c1c1c" stroke="url(#bloodGradient)" stroke-width="1.5"/>
<polygon points="324.2331120567604,10.467591451770723 342.7482475701327,10.997557521835517 344.47725166185626,33.216864012585596 322.30904468261747,33.01217744197589" fill="#1c1c1c" stroke="url(#bloodGradient)" stroke-width="1.5"/>
<polygon points="324.48706130906993,37.29036684453115 344.18798223550135,39.49669252666385 344.4285851080232,59.11969227986296 323.9212576701279,57.02530085705338" fill="#1c1c1c" stroke="url(#bloodGradient)" stroke-width="1.5"/>
<polygon points="324.1207135790306,64.93105989665331 343.07462423818856,64.14590222247938 344.32256740358673,82.4582657001162 322.4505547555913,83.23273615391841" fill="#1c1c1c" stroke="url(#bloodGradient)" stroke-width="1.5"/>
<polygon points="323.7915489421773,90.75924227169932 345.3541774607005,88.61276835586743 345.84497645026397,110.36622600657856 325.04788665255546,109.46143975988757" fill="#1c1c1c" stroke="url(#bloodGradient)" stroke-width="1.5"/>
<polygon points="322.59557287956034,116.56727878145229 342.4560940549573,117.03248217226313 343.90384088979226,136.4771326232862 323.2855409956849,135.38856973588562" fill="#1c1c1c" stroke="url(#bloodGradient)" stroke-width="1.5"/>
<polygon points="323.8852407715368,141.01721402243066 342.66337140871366,142.6149899013405 343.0898776329585,161.33316978818357 325.4413276089273,162.9115376874552" fill="#1c1c1c" stroke="url(#bloodGradient)" stroke-width="1.5"/>
<polygon points="323.5810273691303,167.00403429528495 342.75944054774044,169.58422233455707 343.93767886833456,189.47349211816774 322.79710555286323,186.62680289707285" fill="#55CDFC" stroke="url(#bloodGradient)" stroke-width="1.5"/>
<polygon points="349.6512282227948,12.80997373026143 371.5505649045697,12.101127658736505 371.3742515150475,31.234558610013202 349.38243307457856,31.03669356874755" fill="#1c1c1c" stroke="url(#bloodGradient)" stroke-width="1.5"/>
<polygon points="351.5932954689543,36.72039332655106 369.57954695715523,38.76571427431493 368.5415242418153,56.78637421057543 348.3148703216554,58.91730691508923" fill="#1c1c1c" stroke="url(#bloodGradient)" stroke-width="1.5"/>
<polygon points="348.3436400105535,64.69690963141736 370.6649263970351,63.73547017226609 369.91388181451623,83.21225950988867 348.7347353266891,82.78953825071949" fill="#1c1c1c" stroke="url(#bloodGradient)" stroke-width="1.5"/>
<polygon points="351.1356062179175,88.54371600097033 370.6879982564379,91.10714330072716 371.31740669107154,108.6953764329187 350.49904006901943,108.80897605294756" fill="#1c1c1c" stroke="url(#bloodGradient)" stroke-width="1.5"/>
<polygon points="349.50932373858893,117.19342235325371 371.00676435120715,117.45897344701115 370.4227697910776,135.40028361575784 348.5917265880789,135.11428669095739" fill="#1c1c1c" stroke="url(#bloodGradient)" stroke-width="1.5"/>
<polygon points="349.5990822614438,141.91776454178955 369.99622143726486,140.3569037961522 369.82547304710204,160.916873544282 349.92743101365585,161.60617138289047" fill="#1c1c1c" stroke="url(#bloodGradient)" stroke-width="1.5"/>
<polygon points="351.36378870834136,167.42237764029738 371.0427544478056,166.91324727236986 369.4936191354675,187.24844442673088 350.410439381518,189.94960561877608" fill="#1c1c1c" stroke="url(#bloodGradient)" stroke-width="1.5"/>
<polygon points="375.35105820007516,11.693566988999088 397.17369417087633,10.53757751161024 396.13892133865846,33.09877610386346 374.03996696384337,30.656070415786076" fill="#1c1c1c" stroke="url(#bloodGradient)" stroke-width="1.5"/>
<polygon points="374.1017655449291,38.564657604935945 397.06471244938245,36.22859111013737 397.6286336634249,57.34581954866428 376.40734012072306,58.562779521999026" fill="#1c1c1c" stroke="url(#bloodGradient)" stroke-width="1.5"/>
<polygon points="375.0096884193428,62.56811935126555 395.28489951407914,64.08156563807023 397.01079613319206,85.21418876288267 374.3705587289131,82.62774926011838" fill="#1c1c1c" stroke="url(#bloodGradient)" stroke-width="1.5"/>
<polygon points="376.1208408589329,90.236764864372 394.8209150175993,88.63940400252424 395.71802573983405,111.74909302776805 374.9927202994413,111.879799110035" fill="#1c1c1c" stroke="url(#bloodGradient)" stroke-width="1.5"/>
<polygon points="374.64077689645563,115.87526004956838 395.3124136525245,114.86835295108267 397.5303028699005,137.8926789776895 375.2988433985909,134.52292513498693" fill="#1c1c1c" stroke="url(#bloodGradient)" stroke-width="1.5"/>
<polygon points="374.98301584250765,141.69733095668968 396.7884116755006,143.42885354902145 395.82444943309474,161.66362780157323 377.4712766223669,161.38979910827587" fill="#1c1c1c" stroke="url(#bloodGradient)" stroke-width="1.5"/>
<polygon points="375.04676744058435,167.36639353382614 397.24517612044224,167.83383009692662 396.69353378925246,187.974694740272 375.5787352386256,188.2809887203673" fill="#1c1c1c" stroke="url(#bloodGradient)" stroke-width="1.5"/>
<polygon points="400.5893337369483,11.67759090840256 422.10026437503416,12.506959596816088 421.8341674249857,31.763668659088637 401.4230407897146,30.72044026050439" fill="#1c1c1c" stroke="url(#bloodGradient)" stroke-width="1.5"/>
<polygon points="401.7584411847263,36.03568264475777 421.8726018817856,36.76313594574111 421.6218710764147,59.41883280754051 403.5357808269923,59.86348420534369" fill="#1c1c1c" stroke="url(#bloodGradient)" stroke-width="1.5"/>
<polygon points="401.6611235936929,63.11708520481969 423.55253065308773,63.00818447164074 421.1223722825215,85.95360871344043 402.9274509485469,85.40547357753158" fill="#1c1c1c" stroke="url(#bloodGradient)" stroke-width="1.5"/>
<polygon points="403.10975834756164,91.35002288302074 423.1859152133051,88.75376119396827 420.64111218608076,110.10975059150226 402.5455240151505,111.2255256577669" fill="#1c1c1c" stroke="url(#bloodGradient)" stroke-width="1.5"/>
<polygon points="400.25391702970353,115.87929366356629 421.25860199923267,117.09133584513219 421.85072338253826,135.335494425456 401.80938114173506,137.85101499824873" fill="#1c1c1c" stroke="url(#bloodGradient)" stroke-width="1.5"/>
<polygon points="402.94209161758357,140.62832096499287 422.8619216872007,141.72250605675507 422.2659839211426,161.03307178280136 403.5884941122422,160.4432638952453" fill="#1c1c1c" stroke="url(#bloodGradient)" stroke-width="1.5"/>
<polygon points="402.43514652963285,168.15583977939926 421.33067737381805,168.13446918986247 423.8882749741562,189.95027545966252 401.59407606688353,187.35046423588358" fill="#1c1c1c" stroke="url(#bloodGradient)" stroke-width="1.5"/>
<polygon points="429.57458926531604,12.944362242995652 449.79317416231703,11.157250689446963 449.60369771582515,32.6782824664641 429.04121028894514,31.87592002593435" fill="#1c1c1c" stroke="url(#bloodGradient)" stroke-width="1.5"/>
<polygon points="428.0209169285222,36.52563968539938 449.4250084124669,36.84780601265137 448.2053487887919,57.21153151047446 427.42060812774133,57.2371820626829" fill="#1c1c1c" stroke="url(#bloodGradient)" stroke-width="1.5"/>
<polygon points="426.4377402635102,64.50570095577864 446.5002076140846,65.40600149611723 449.8715256150668,82.66298476286623 426.39265737451154,85.41764012014845" fill="#1c1c1c" stroke="url(#bloodGradient)" stroke-width="1.5"/>
<polygon points="427.3106944526094,91.26548244949082 446.80954055358137,90.0564911068007 448.5625749680693,111.85101251841513 426.47565964337065,111.76603488416282" fill="#1c1c1c" stroke="url(#bloodGradient)" stroke-width="1.5"/>
<polygon points="428.43085239139583,117.32254041769491 448.5731261094347,116.8430545501516 448.7681983115397,136.85775112193085 427.66361179210537,136.51425219675284" fill="#1c1c1c" stroke="url(#bloodGradient)" stroke-width="1.5"/>
<polygon points="426.38526264001456,143.3279101166017 446.923501892906,140.03300198728317 447.43279619837244,162.03801850193864 426.1000864048889,162.76654697869404" fill="#1c1c1c" stroke="url(#bloodGradient)" stroke-width="1.5"/>
<polygon points="426.43502310523786,167.47023726413443 446.8794675335944,169.3786032882514 447.60237871284755,189.0475325156555 429.0446158758261,189.80723646673292" fill="#1c1c1c" stroke="url(#bloodGradient)" stroke-width="1.5"/>
<polygon points="452.4837739322121,12.89295463371485 473.6912101426262,12.117613456978741 475.8953396849107,32.30531472180166 452.87832013624603,31.854437979763844" fill="#1c1c1c" stroke="url(#bloodGradient)" stroke-width="1.5"/>
<polygon points="452.3834164170462,38.05126418470663 475.1107542807836,37.53438910915635 473.6800274048664,58.64697117947209 453.11070684713735,59.146982829733524" fill="#1c1c1c" stroke="url(#bloodGradient)" stroke-width="1.5"/>
<polygon points="454.24944335722506,65.44303598774817 474.25074778469155,64.25533830811202 473.92824789098665,84.36853444562301 455.02653478154684,82.72371803935741" fill="#1c1c1c" stroke="url(#bloodGradient)" stroke-width="1.5"/>
<polygon points="453.5573155815486,90.53326968055048 472.6086333019094,88.9652553586566 474.87825942993624,109.47882793067366 455.41393625746497,109.61318635159549" fill="#1c1c1c" stroke="url(#bloodGradient)" stroke-width="1.5"/>
<polygon points="454.76515219784335,115.60804014677474 473.6468984307387,115.00261598309822 472.89888176292584,136.35464032196919 455.24072789244633,135.98581504849025" fill="#1c1c1c" stroke="url(#bloodGradient)" stroke-width="1.5"/>
<polygon points="452.1575865966025,142.56751097579817 472.6692000930469,140.51421143819724 474.16192967240517,162.58272944198205 455.229295975495,163.92939159127425" fill="#1c1c1c" stroke="url(#bloodGradient)" stroke-width="1.5"/>
<polygon points="454.8145321094588,166.74723766895073 473.63844956416636,167.55425943707263 474.13190223058365,189.27060014492662 454.3195400572811,188.48364339380657" fill="#1c1c1c" stroke="url(#bloodGradient)" stroke-width="1.5"/>
<polygon points="479.1318907547952,10.184673829900563 500.8306654210486,10.0132198018328 501.1554241212801,31.087306424437994 479.8313279618517,32.98644384463854" fill="#1c1c1c" stroke="url(#bloodGradient)" stroke-width="1.5"/>
<polygon points="480.32410983644496,37.22966053697768 499.877632639629,37.16923909941731 500.92077456318117,57.121749905322424 478.5749641866366,58.58629324304003" fill="#1c1c1c" stroke="url(#bloodGradient)" stroke-width="1.5"/>
<polygon points="480.8113815983444,65.1820094632489 501.89662073951,62.576732786929306 500.13932814702946,82.78975317143228 479.38448934960604,84.573775101109" fill="#1c1c1c" stroke="url(#bloodGradient)" stroke-width="1.5"/>
<polygon points="478.05280004360515,89.25053606937252 500.67807606783316,90.4827018934168 498.83034603312495,108.63114215390979 480.7924352667543,109.78428390753076" fill="#1c1c1c" stroke="url(#bloodGradient)" stroke-width="1.5"/>
<polygon points="480.35646609683306,116.4998434980679 498.70409684816093,114.67912563298191 500.889799106929,137.74340897486837 481.59694985061986,134.76973198459925" fill="#1c1c1c" stroke="url(#bloodGradient)" stroke-width="1.5"/>
<polygon points="478.28909323337683,140.13173206962117 500.7762585339136,140.64151077604987 500.4731282341687,161.01708163065783 479.7034313587812,163.96939462877742" fill="#1c1c1c" stroke="url(#bloodGradient)" stroke-width="1.5"/>
<polygon points="478.6219966919774,168.5790875622948 499.10124945612847,166.7037628482637 501.2931783553686,188.46547671107723 478.5724235160626,186.4553652033955" fill="#1c1c1c" stroke="url(#bloodGradient)" stroke-width="1.5"/>
<polygon points="505.3607643290657,10.734181401156022 525.7641780327259,11.838214036165681 526.3755124125137,31.764774278223822 505.4448272664281,33.19842902203833" fill="#1c1c1c" stroke="url(#bloodGradient)" stroke-width="1.5"/>
<polygon points="507.4773692579538,37.910047082271845 525.7212901399347,37.40179250132124 526.9969827773622,59.423509148487696 505.8219786346277,57.745053132835494" fill="#1c1c1c" stroke="url(#bloodGradient)" stroke-width="1.5"/>
<polygon points="504.1619913333609,63.687560436663134 525.601315134424,65.15529240566546 527.6777940159737,84.26250467500343 505.519176151675,84.32758114700442" fill="#1c1c1c" stroke="url(#bloodGradient)" stroke-width="1.5"/>
<polygon points="504.6396409516662,90.09535670554814 525.2512659871169,91.21216102894316 526.5501350283273,108.70282379664674 504.59447607406184,108.4760188549856" fill="#1c1c1c" stroke="url(#bloodGradient)" stroke-width="1.5"/>
<polygon points="507.23435792293225,114.35402241808384 527.6658281200421,117.46629122442413 527.9498959564328,137.77989879610988 504.28992409073123,135.99895423632722" fill="#1c1c1c" stroke="url(#bloodGradient)" stroke-width="1.5"/>
<polygon points="506.56786759173514,141.20292028639508 525.9340701576743,140.79288801979976 525.277227222218,161.62590714196008 505.1229693105996,163.31150834114723" fill="#1c1c1c" stroke="url(#bloodGradient)" stroke-width="1.5"/>
<polygon points="507.59699528369157,168.65329799952193 526.9353921742519,166.42150417601258 527.8668880296751,188.1055808477107 505.68450835799564,189.02337048864243" fill="#1c1c1c" stroke="url(#bloodGradient)" stroke-width="1.5"/>
<polygon points="533.2750930155285,11.20916856448824 552.5732828803622,12.649766538302984 551.080414162084,32.32016853528771 530.8024656567279,32.90946273148506" fill="#1c1c1c" stroke="url(#bloodGradient)" stroke-width="1.5"/>
<polygon points="530.9175649111598,36.286670249584155 552.7858159014249,37.73913540962892 550.8461252578401,56.69314594434354 531.8441669841221,58.0220472794411" fill="#1c1c1c" stroke="url(#bloodGradient)" stroke-width="1.5"/>
<polygon points="531.6850162615733,62.0384126559381 552.481976934622,65.38638269411932 551.2934350867552,82.49026050221862 530.5175346386849,82.98781488411875" fill="#1c1c1c" stroke="url(#bloodGradient)" stroke-width="1.5"/>
<polygon points="531.4473034956962,89.45408294605323 553.4038075187833,89.25704969007295 553.3308861134302,111.18439417941433 531.7121078458564,110.85782310417913" fill="#1c1c1c" stroke="url(#bloodGradient)" stroke-width="1.5"/>
<polygon points="531.6273385649555,115.89088357758881 552.2814522236849,117.48030054070841 551.9274415941135,136.85195651581577 530.2742602995269,134.944835354677" fill="#1c1c1c" stroke="url(#bloodGradient)" stroke-width="1.5"/>
<polygon points="533.5544411611047,141.34058071702376 551.397351268176,143.09796223834314 551.3265273233259,162.0485509311369 531.8485392788489,161.60487419308535" fill="#1c1c1c" stroke="url(#bloodGradient)" stroke-width="1.5"/>
<polygon points="532.96591891537,167.23482945769285 553.3900640900752,166.10580798756482 553.5743925676824,187.26316625062157 530.077796871214,187.2106536843472" fill="#1c1c1c" stroke="url(#bloodGradient)" stroke-width="1.5"/>
<polygon points="556.7764818959079,13.317584892876141 577.0350045922761,10.349276456430433 579.2167846717414,33.308398577460856 556.0015758623596,33.44504405103649" fill="#1c1c1c" stroke="url(#bloodGradient)" stroke-width="1.5"/>
<polygon points="559.2554115654412,36.67604453283502 578.5284200791157,36.86516320981415 577.1060837566394,57.02452763269819 557.0431082233788,58.36117804818319" fill="#1c1c1c" stroke="url(#bloodGradient)" stroke-width="1.5"/>
<polygon points="557.7115185498492,62.457182817847645 579.7284886542209,64.92330998733527 576.6123815270861,85.09140985079536 557.0454057595946,85.80486091365808" fill="#1c1c1c" stroke="url(#bloodGradient)" stroke-width="1.5"/>
<polygon points="559.304374079352,90.89034550174793 579.83183829473,90.99212005893438 577.0089674279841,110.16407448746496 558.34145171468,110.92770973839487" fill="#1c1c1c" stroke="url(#bloodGradient)" stroke-width="1.5"/>
<polygon points="557.3308888121587,114.61502332763806 578.4747611573204,117.03568063093925 579.5281880178823,136.93157197628827 559.2444131349791,135.3862319124551" fill="#1c1c1c" stroke="url(#bloodGradient)" stroke-width="1.5"/>
<polygon points="558.5658085260604,142.97690792039563 579.4597214517855,143.3751326182206 579.7522493824931,163.7295076117611 558.6864322027213,160.55491094006933" fill="#1c1c1c" stroke="url(#bloodGradient)" stroke-width="1.5"/>
<polygon points="557.277511720825,168.4646063350911 579.3478640686855,166.881542431802 576.6754538593062,188.89971554191416 557.9239279983144,186.78320478408313" fill="#1c1c1c" stroke="url(#bloodGradient)" stroke-width="1.5"/>
<polygon points="585.2028556371322,10.83192906956903 602.6542115276242,11.553008341420389 605.66723460155,31.22689081940722 583.5578728018207,33.30480206324792" fill="#1c1c1c" stroke="url(#bloodGradient)" stroke-width="1.5"/>
<polygon points="583.8853491141276,39.21445040465617 602.6266768946169,37.775580936473375 604.3821739688569,56.88951567034624 584.6834776208117,58.05076321559396" fill="#1c1c1c" stroke="url(#bloodGradient)" stroke-width="1.5"/>
<polygon points="582.6267558991568,64.828200764879 605.0344388167704,63.572546480154614 605.9992866741201,82.91823123156908 582.8916181576897,82.75942802061077" fill="#1c1c1c" stroke="url(#bloodGradient)" stroke-width="1.5"/>
<polygon points="583.2501143249727,90.66671486439964 605.7477994155254,89.19489663808855 605.5246003844534,109.24973295111111 585.5826236250956,110.88695258979185" fill="#1c1c1c" stroke="url(#bloodGradient)" stroke-width="1.5"/>
<polygon points="583.4803381259861,114.51459274787786 603.8265155519825,116.47830278860124 603.8797241866355,137.20902037230704 582.2792770695529,135.06906567364177" fill="#1c1c1c" stroke="url(#bloodGradient)" stroke-width="1.5"/>
<polygon points="582.5439399268607,143.161605633535 605.3894408542964,142.7199899854862 604.219058455195,162.23348394244155 582.473387203954,160.84923664963694" fill="#1c1c1c" stroke="url(#bloodGradient)" stroke-width="1.5"/>
<polygon points="584.7036637639626,166.0434277311282 604.0077807532656,167.43708163144925 605.0394204053126,186.8154738544697 584.0952555077009,189.13709160489162" fill="#1c1c1c" stroke="url(#bloodGradient)" stroke-width="1.5"/>
<polygon points="610.5894518192052,12.69011712294003 630.9933170659891,12.511505203760267 631.1241884638414,32.30434481675931 609.6624993190665,31.183121443169963" fill="#1c1c1c" stroke="url(#bloodGradient)" stroke-width="1.5"/>
<polygon points="608.7743981757392,37.32282412868186 631.0873622191903,36.16783894260426 630.1856693695331,58.053832911507556 611.5392202599395,57.575123033883756" fill="#1c1c1c" stroke="url(#bloodGradient)" stroke-width="1.5"/>
<polygon points="610.4300478852438,62.812426615627935 629.4894883446385,62.95775453040649 628.4447332209536,84.18491988021951 608.1344968838489,85.63804273098077" fill="#1c1c1c" stroke="url(#bloodGradient)" stroke-width="1.5"/>
<polygon points="611.036002160255,91.26212498967591 629.6837036978404,88.00706741256397 631.734677723393,109.68764927839014 608.9340348533713,111.80119857016854" fill="#1c1c1c" stroke="url(#bloodGradient)" stroke-width="1.5"/>
<polygon points="611.4494163753602,116.96234886501902 630.0347558949896,115.69089766371454 630.6527544472926,136.42316307605037 609.4237256827587,135.75102758956876" fill="#1c1c1c" stroke="url(#bloodGradient)" stroke-width="1.5"/>
<polygon points="609.603565111701,142.9736283397451 631.4099837398435,142.646923279105 628.820645274464,160.65072101649812 609.6915908858579,163.13390583774247" fill="#1c1c1c" stroke="url(#bloodGradient)" stroke-width="1.5"/>
<polygon points="608.9471987356932,166.04979445478358 629.8561777774781,167.7549246849061 629.8013162493818,187.45640611797108 611.0494094109976,188.6866101391061" fill="#1c1c1c" stroke="url(#bloodGradient)" stroke-width="1.5"/>
<polygon points="635.9571830707741,12.325710246495227 657.8391218991516,13.310180780509732 655.1341304043585,32.49892928104461 634.5197801443987,33.96309052937069" fill="#1c1c1c" stroke="url(#bloodGradient)" stroke-width="1.5"/>
<polygon points="636.3574838430081,38.921387135737035 657.610292431512,36.62492250133915 657.932532272608,59.158380714326924 636.0321328245533,57.075813077025096" fill="#F7A8B8" stroke="url(#bloodGradient)" stroke-width="1.5"/>
<polygon points="636.0275087494933,64.72982857448615 657.4084083450522,62.661445951325824 656.9934475260042,85.96861282592937 636.7208454928241,83.26302241963872" fill="#1c1c1c" stroke="url(#bloodGradient)" stroke-width="1.5"/>
<polygon points="637.4544766266602,90.46722699927821 654.4565265337687,91.49990582758701 657.0807905516622,110.58257533140569 635.0757325040587,109.35594548093987" fill="#1c1c1c" stroke="url(#bloodGradient)" stroke-width="1.5"/>
<polygon points="634.7467054338205,114.01779378864104 654.5123657615624,114.83861722238284 654.4222034372114,137.35127495319105 634.6797661246754,134.79575672539883" fill="#1c1c1c" stroke="url(#bloodGradient)" stroke-width="1.5"/>
<polygon points="636.4367604950633,140.36613154285837 655.9455527156503,141.89961984291162 655.0776045944968,162.21898050727484 635.1328624698845,163.8896504175862" fill="#1c1c1c" stroke="url(#bloodGradient)" stroke-width="1.5"/>
<polygon points="636.0213070691125,169.37141545539637 654.8448645347082,168.69137431169742 656.1132878955933,186.489334402911 635.7417720390462,189.37641744027385" fill="#1c1c1c" stroke="url(#bloodGradient)" stroke-width="1.5"/>
<polygon points="662.4003740741231,11.146435288043422 681.7879090975379,12.767133773952157 682.2814700004241,31.38634909379541 662.7270649943773,33.297139663964174" fill="#1c1c1c" stroke="url(#bloodGradient)" stroke-width="1.5"/>
<polygon points="661.4482245381704,36.45833791111784 680.4778794472949,36.07181062098959 683.2028239714402,58.45936003601163 660.9789616863674,56.473178462382045" fill="#1c1c1c" stroke="url(#bloodGradient)" stroke-width="1.5"/>
<polygon points="663.4013977893469,63.17216368243116 681.7081571097692,65.51018935631808 682.8637960714908,84.34457756199131 660.4172136306058,85.54760348610682" fill="#1c1c1c" stroke="url(#bloodGradient)" stroke-width="1.5"/>
<polygon points="660.0852033659903,89.92576885921771 680.739953293912,91.51004539960744 681.0263422386453,108.59389287835677 662.4459928963446,108.74132216060254" fill="#1c1c1c" stroke="url(#bloodGradient)" stroke-width="1.5"/>
<polygon points="662.8955946336773,114.13175059472171 681.0839074888679,116.18038417204127 680.5457338002388,135.3580847023106 661.7792462216327,137.2444775358004" fill="#1c1c1c" stroke="url(#bloodGradient)" stroke-width="1.5"/>
<polygon points="661.0608707433174,142.1372004126808 682.8093204123545,143.31794240132479 683.9575401009404,163.35963278089284 662.7123595896835,162.32292559528352" fill="#1c1c1c" stroke="url(#bloodGradient)" stroke-width="1.5"/>
<polygon points="660.7666532297374,166.62002863220007 683.0133880968032,168.92827689836835 681.7632393684158,186.52197196565223 661.1670747309269,186.58039707938144" fill="#1c1c1c" stroke="url(#bloodGradient)" stroke-width="1.5"/>
<polygon points="689.353920974215,11.749290105754815 706.7187153173187,12.231526680399401 708.847001536512,33.368397760094176 687.3545100226019,31.374030272985383" fill="#55CDFC" stroke="url(#bloodGradient)" stroke-width="1.5"/>
<polygon points="689.012819407011,38.33431611459104 708.035891307184,36.39031986635863 706.4181392718368,59.33306216692905 686.3044224695126,58.09480086950128" fill="#1c1c1c" stroke="url(#bloodGradient)" stroke-width="1.5"/>
<polygon points="686.298038111452,62.96803949470812 709.6356185658819,62.563959747239636 709.904615404997,85.99073836164457 688.9707682844605,84.4334256825901" fill="#1c1c1c" stroke="url(#bloodGradient)" stroke-width="1.5"/>
<polygon points="688.1912957384445,90.75010847753273 707.7095840544407,91.2593129029239 707.7472671958541,110.85128108091224 686.5006777946202,110.95986155982455" fill="#1c1c1c" stroke="url(#bloodGradient)" stroke-width="1.5"/>
<polygon points="687.9561083758413,116.22449814133296 707.4367786528654,114.45360533174541 708.075542445888,134.8615878005745 688.1890107719743,137.33654919695977" fill="#1c1c1c" stroke="url(#bloodGradient)" stroke-width="1.5"/>
<polygon points="687.312192831963,141.35439155765008 709.100433439998,141.43301639795877 709.419287392872,163.54424229508282 687.1005100493181,163.46431681920805" fill="#1c1c1c" stroke="url(#bloodGradient)" stroke-width="1.5"/>
<polygon points="686.6793985411908,169.32821411234875 706.7699426167237,166.51957614969965 709.1219833864722,189.3894776460348 687.2343582795677,186.59645419045813" fill="#1c1c1c" stroke="url(#bloodGradient)" stroke-width="1.5"/>
<polygon points="712.384288344377,12.8867543348481 735.4532254948016,12.12218329455375 734.5724868055587,32.61662191843705 715.5319203802535,31.850278136329937" fill="#1c1c1c" stroke="url(#bloodGradient)" stroke-width="1.5"/>
<polygon points="712.0398135859892,36.72593693551872 732.7224384972538,36.14602967955477 735.3971652464692,58.0264861069161 715.1379504336135,57.4532082509834" fill="#1c1c1c" stroke="url(#bloodGradient)" stroke-width="1.5"/>
<polygon points="713.1974515065295,64.77459894735772 732.5161622214094,62.79239537119664 732.5242432595705,82.65326570440102 713.3281420427957,82.45820853506547" fill="#1c1c1c" stroke="url(#bloodGradient)" stroke-width="1.5"/>
<polygon points="715.3988178659815,91.46916591920692 735.5789111639352,89.34087607058103 732.8004355112788,111.2541366650682 713.45433779976,109.29241789984134" fill="#1c1c1c" stroke="url(#bloodGradient)" stroke-width="1.5"/>
<polygon points="714.7099329296539,116.98095166420565 733.3207887597076,117.30243595930038 733.2686625343399,137.61231728505527 713.0005496298874,136.02718084586388" fill="#1c1c1c" stroke="url(#bloodGradient)" stroke-width="1.5"/>
<polygon points="712.9219964926828,141.39775906293303 733.3478366103387,140.11025803564345 733.9080635704192,161.33846752028262 715.1513148349339,163.83080740640855" fill="#1c1c1c" stroke="url(#bloodGradient)" stroke-width="1.5"/>
<polygon points="713.6195854471689,168.70144914258978 732.4469840145882,169.5234191880043 734.3403780487987,189.21172507539904 714.5577995708574,188.19150531418495" fill="#1c1c1c" stroke="url(#bloodGradient)" stroke-width="1.5"/>
<polygon points="739.4144546928483,10.926577321683842 759.1630490148152,10.978460323089989 759.56404046238,31.75664867450799 740.1520481604057,30.54036925046335" fill="#1c1c1c" stroke="url(#bloodGradient)" stroke-width="1.5"/>
<polygon points="741.4024330420363,36.281060347780134 760.4092549719651,36.66602653185 760.9323709124762,57.93649079085281 738.5313940945267,57.13118327424974" fill="#1c1c1c" stroke="url(#bloodGradient)" stroke-width="1.5"/>
<polygon points="740.0174848371637,65.03410779132163 759.0930263388708,64.66140049804991 761.9619613656126,84.90813066868652 738.6393121938435,84.77847900864678" fill="#1c1c1c" stroke="url(#bloodGradient)" stroke-width="1.5"/>
<polygon points="740.3817521770699,90.7080866440327 760.502620118586,91.2839195904905 761.831769047613,111.3172255316842 741.232530013438,109.04160155042798" fill="#1c1c1c" stroke="url(#bloodGradient)" stroke-width="1.5"/>
<polygon points="738.5509421052013,114.66099305367851 760.1463530101144,115.92970225013555 758.5555685553289,135.71531716050987 740.6315203837185,135.84709103055914" fill="#1c1c1c" stroke="url(#bloodGradient)" stroke-width="1.5"/>
<polygon points="738.9804316825363,142.74467063471488 761.9746998902116,141.56414957581563 761.6324140020639,161.61909238117647 738.9792195642873,163.48233847446193" fill="#1c1c1c" stroke="url(#bloodGradient)" stroke-width="1.5"/>
<polygon points="741.1436175208726,168.52458794393493 758.6811420678259,168.38215306661428 761.3013161131844,188.62944098568673 738.385840828894,188.06721479609757" fill="#1c1c1c" stroke="url(#bloodGradient)" stroke-width="1.5"/>
<polygon points="766.1145390107,11.627001563003406 786.2834460437547,13.18670846320323 784.9401023726982,33.80153489749671 767.3154529151622,33.29195997347843" fill="#1c1c1c" stroke="url(#bloodGradient)" stroke-width="1.5"/>
<polygon points="764.3502908134861,38.08410805216063 786.2863143628452,38.78550503475045 787.5948484071941,56.417454897446625 765.7721477740116,58.31926046883051" fill="#1c1c1c" stroke="url(#bloodGradient)" stroke-width="1.5"/>
<polygon points="765.058646552457,63.29029205431969 787.083970123715,64.45567852674804 785.8661836515706,83.78864542110571 766.2714219106865,82.49542536930123" fill="#1c1c1c" stroke="url(#bloodGradient)" stroke-width="1.5"/>
<polygon points="764.7068214778691,90.80502459631722 784.8116362176802,89.35207464493222 787.0894386370923,111.68363528634659 764.5338443304536,109.85750050351052" fill="#1c1c1c" stroke="url(#bloodGradient)" stroke-width="1.5"/>
<polygon points="764.8824238119334,117.49223372139468 786.8684615943731,116.38238826015076 785.9675896304716,136.91571573677342 764.6471530706416,136.2871206787637" fill="#1c1c1c" stroke="url(#bloodGradient)" stroke-width="1.5"/>
<polygon points="767.2644453960614,142.48959982966394 785.119626985908,140.78218806319535 785.2752673597982,161.93051807561773 766.1642391747721,162.7268904293877" fill="#1c1c1c" stroke="url(#bloodGradient)" stroke-width="1.5"/>
<polygon points="764.1264722898768,169.20085326457306 785.1596624748064,168.54677360568445 785.3702653872035,186.44471180270574 766.8551362014737,189.97745733703252" fill="#1c1c1c" stroke="url(#bloodGradient)" stroke-width="1.5"/>
<polygon points="792.4680749203441,11.0556418920625 811.3846924169434,13.143679075064902 813.378034657857,31.357975933879132 792.6239098831434,30.56060511377718" fill="#1c1c1c" stroke="url(#bloodGradient)" stroke-width="1.5"/>
<polygon points="793.2432390179044,36.16263589390056 813.8052399202832,39.48970112529412 812.4577630350027,59.49853432634511 791.784766851407,57.218395788024885" fill="#1c1c1c" stroke="url(#bloodGradient)" stroke-width="1.5"/>
<polygon points="792.4152464196335,62.993528911101954 810.9775537446344,63.44234393493559 812.5890448351494,82.99880301557938 793.5415996376599,84.92946198150871" fill="#1c1c1c" stroke="url(#bloodGradient)" stroke-width="1.5"/>
<polygon points="790.1264714105471,88.80888278041499 811.8570048358123,91.32811468684118 813.0567674177177,110.34635597846753 793.3691321197188,109.78609136290781" fill="#1c1c1c" stroke="url(#bloodGradient)" stroke-width="1.5"/>
<polygon points="791.4854001026974,116.28785190777486 813.4712679678928,114.83932273998148 813.2649017099399,137.29964679790717 791.2296740969254,137.5988859511823" fill="#1c1c1c" stroke="url(#bloodGradient)" stroke-width="1.5"/>
<polygon points="791.0897596468864,141.74365050685145 811.4096089831812,143.56153937332743 811.0344460330454,161.90543734618512 791.7330182624177,162.2683394319664" fill="#1c1c1c" stroke="url(#bloodGradient)" stroke-width="1.5"/>
<polygon points="792.7092980455168,168.91327509494485 813.7057719247562,166.95782955264258 812.5661184375602,187.95538438763117 790.3283950332633,189.92874872151123" fill="#1c1c1c" stroke="url(#bloodGradient)" stroke-width="1.5"/>
<polygon points="816.8727711467473,13.340347077473458 838.6310366971874,12.561449626578915 838.4059259967146,30.736847178054845 819.2152083600985,30.579427338344317" fill="#1c1c1c" stroke="url(#bloodGradient)" stroke-width="1.5"/>
<polygon points="817.3172540001341,39.39958678939707 839.2655615639643,36.83001622902241 838.727374506133,57.40396291447076 816.6438815728974,56.53683240491306" fill="#1c1c1c" stroke="url(#bloodGradient)" stroke-width="1.5"/>
<polygon points="818.2179573759134,62.082328981046054 839.5837977547552,63.78304431938031 839.3928503251697,84.6649585538944 817.7254513522607,84.53330017689524" fill="#1c1c1c" stroke="url(#bloodGradient)" stroke-width="1.5"/>
<polygon points="818.6780220540453,88.8692914626645 838.7081349083259,88.58676318179035 839.4222734825731,111.48816321881975 819.2262188987714,111.49167079654885" fill="#1c1c1c" stroke="url(#bloodGradient)" stroke-width="1.5"/>
<polygon points="816.6869557615984,116.99118007469102 837.1665589530825,115.52491927138156 839.4323254600314,136.38500752772015 818.4370211940483,136.2403096809186" fill="#1c1c1c" stroke="url(#bloodGradient)" stroke-width="1.5"/>
<polygon points="817.1014963895219,142.54425743901066 839.5883436128665,141.58723252512723 837.2341383958451,162.8862622817319 819.4948421500459,161.73468218824104" fill="#1c1c1c" stroke="url(#bloodGradient)" stroke-width="1.5"/>
<polygon points="816.4342042690234,169.29701480895153 836.5278920132548,166.24613067911497 837.7602981937582,189.84910299024548 818.606570366361,188.979822881755" fill="#1c1c1c" stroke="url(#bloodGradient)" stroke-width="1.5"/>
<polygon points="843.3978996507304,11.284880798689372 863.3339286470489,13.315754101623718 864.7157226820586,32.449452360419414 843.734186875871,31.526966067910365" fill="#1c1c1c" stroke="url(#bloodGradient)" stroke-width="1.5"/>
<polygon points="843.6068044120982,37.37169917165507 865.4321826888342,37.61548943880687 865.3310693208913,58.013091739630994 844.9796185484167,58.59004029887254" fill="#1c1c1c" stroke="url(#bloodGradient)" stroke-width="1.5"/>
<polygon points="842.1190672275659,62.98996093214782 863.9401489377634,64.44425136005471 864.7663853807987,83.23746451456776 843.6052428218284,82.6947467192377" fill="#1c1c1c" stroke="url(#bloodGradient)" stroke-width="1.5"/>
<polygon points="842.9043077775234,88.63700126228638 865.5762682891899,88.00652836783969 865.0142125079844,110.77093755727216 842.4025450939065,111.42166493049083" fill="#1c1c1c" stroke="url(#bloodGradient)" stroke-width="1.5"/>
<polygon points="843.5357137259745,114.29816822304974 865.2407377366311,115.75791479578318 863.4537257706093,136.4252280281312 842.7649410875591,134.92040197282859" fill="#1c1c1c" stroke="url(#bloodGradient)" stroke-width="1.5"/>
<polygon points="843.7681686450552,140.54145968255327 864.7675987508879,140.2311460695553 863.4133690621451,161.28196036264433 843.452946216099,162.29700847435655" fill="#1c1c1c" stroke="url(#bloodGradient)" stroke-width="1.5"/>
<polygon points="844.1203182125528,167.18260643965732 865.9284421909457,167.32644937230003 862.9264320104382,188.69065248209822 844.1927870272775,189.7509022441944" fill="#1c1c1c" stroke="url(#bloodGradient)" stroke-width="1.5"/>
<polygon points="871.4228726989119,11.988835426719866 889.772728877573,10.02156842476745 888.7386988535459,32.936000008107385 868.7688187811821,30.59418396786191" fill="#1c1c1c" stroke="url(#bloodGradient)" stroke-width="1.5"/>
<polygon points="870.9653826866056,38.39429043845569 891.922047929876,37.62851451565962 889.7734558506628,57.75383558214723 868.9566131810037,58.75644399478772" fill="#1c1c1c" stroke="url(#bloodGradient)" stroke-width="1.5"/>
<polygon points="868.3406680179477,64.85922903477771 889.3164509840781,64.4016923833251 890.357417182728,83.38950535565102 869.4364073286843,82.97719205226275" fill="#1c1c1c" stroke="url(#bloodGradient)" stroke-width="1.5"/>
<polygon points="869.5490842265491,88.13010803433117 890.4228602018655,89.41406150109557 891.2436963952323,110.82106613680752 869.5981189648639,111.07577841242804" fill="#1c1c1c" stroke="url(#bloodGradient)" stroke-width="1.5"/>
<polygon points="870.818381535297,116.04779366752489 891.0126230184231,115.77890095572701 888.9369967493448,136.54163929206118 869.6661173360525,134.6972943388349" fill="#1c1c1c" stroke="url(#bloodGradient)" stroke-width="1.5"/>
<polygon points="869.1589545378718,143.29736070207213 891.9882039787295,140.90978970435785 891.6440333778324,162.0762901614192 871.3927928641181,160.555215121568" fill="#1c1c1c" stroke="url(#bloodGradient)" stroke-width="1.5"/>
<polygon points="869.8438871733898,168.61180030124558 889.3811312426596,166.96004726996767 891.1093204598117,189.59479228744556 870.3884957725876,188.13108988973843" fill="#1c1c1c" stroke="url(#bloodGradient)" stroke-width="1.5"/>
<polygon points="894.7348922679944,13.1840959506224 915.7635855878995,10.958212614714554 915.3298435872113,33.40488827523528 894.8969567262161,33.73405102436474" fill="#1c1c1c" stroke="url(#bloodGradient)" stroke-width="1.5"/>
<polygon points="894.6100373372942,37.66872853193535 915.8846212311004,38.87181466006909 914.4454659529795,58.01450454371664 895.3312387783699,58.26420707988629" fill="#1c1c1c" stroke="url(#bloodGradient)" stroke-width="1.5"/>
<polygon points="897.2442928286569,64.77392993862696 916.4052493618502,63.874910962048716 915.7627868763642,85.47259906568664 895.4874539103021,85.17981676333426" fill="#1c1c1c" stroke="url(#bloodGradient)" stroke-width="1.5"/>
<polygon points="896.926020318216,88.03988891491323 915.3930106742607,88.07345593925118 916.994657000091,111.47433750027261 895.2318047943833,109.64621746496245" fill="#1c1c1c" stroke="url(#bloodGradient)" stroke-width="1.5"/>
<polygon points="895.1702008609293,114.0219310113457 915.9118025308436,115.89466269865842 915.9523898306625,135.0624113071786 896.851550622561,134.78475666297302" fill="#1c1c1c" stroke="url(#bloodGradient)" stroke-width="1.5"/>
<polygon points="894.7843024206618,142.09973676054184 916.4952632385731,141.3498311845738 917.6342015432244,163.83068768500473 896.7112222934026,160.79451638891695" fill="#1c1c1c" stroke="url(#bloodGradient)" stroke-width="1.5"/>
<polygon points="897.1775369571784,168.68607986666348 915.5550871110453,167.40024933734455 917.3670716766816,189.02758505764905 895.6858014639361,187.25042550651503" fill="#1c1c1c" stroke="url(#bloodGradient)" stroke-width="1.5"/>
<polygon points="922.3584350918151,12.359215158893663 943.304079974904,12.771343466824131 942.7525540791986,32.874016464611145 920.8327199846874,33.95912338639252" fill="#1c1c1c" stroke="url(#bloodGradient)" stroke-width="1.5"/>
<polygon points="921.370435577261,37.08565185743857 942.8076239949162,38.86410691233236 942.2877391763501,59.5710741482271 921.911726183873,58.99153881873661" fill="#1c1c1c" stroke="url(#bloodGradient)" stroke-width="1.5"/>
<polygon points="920.0699235876498,63.31608448430876 943.7074906001392,62.16236988778552 943.6504012933999,82.617299317806 922.807691845248,84.42978877482123" fill="#1c1c1c" stroke="url(#bloodGradient)" stroke-width="1.5"/>
<polygon points="922.670328617946,90.70958415086633 942.9806025567111,89.80201102806076 943.9718969779333,111.96873423402018 920.9816328269063,109.02951463551459" fill="#1c1c1c" stroke="url(#bloodGradient)" stroke-width="1.5"/>
<polygon points="920.530866112703,117.27792082411146 942.6913890301188,114.70023530512512 940.8805897605032,137.61325594403715 921.0399068379197,136.13368212935336" fill="#1c1c1c" stroke="url(#bloodGradient)" stroke-width="1.5"/>
<polygon points="923.2986596775386,140.12194498088567 941.9281122213586,141.17892646967127 943.3708971354893,162.9365435189268 922.5998844559939,163.96908123573516" fill="#1c1c1c" stroke="url(#bloodGradient)" stroke-width="1.5"/>
<polygon points="920.1124737096135,167.4948102912959 942.5793029639225,166.15166026086257 943.3090627986257,188.3488135452368 923.0313448999078,189.53227660043106" fill="#1c1c1c" stroke="url(#bloodGradient)" stroke-width="1.5"/>
<polygon points="948.2953110228566,10.745358297847531 969.1534104357622,13.297224473514776 966.7661231604129,32.30304726656044 946.6027617670075,31.80275377020393" fill="#1c1c1c" stroke="url(#bloodGradient)" stroke-width="1.5"/>
<polygon points="948.3032832977381,36.40197478505138 967.8489416887976,38.647718905196776 969.5993851663849,57.889834837604674 946.5699778427974,57.90429174759599" fill="#1c1c1c" stroke="url(#bloodGradient)" stroke-width="1.5"/>
<polygon points="946.8318176142799,62.238927207466325 967.3302851069459,62.921438756908806 968.5152017943275,83.1149370642222 947.7251843360585,85.07349378289246" fill="#1c1c1c" stroke="url(#bloodGradient)" stroke-width="1.5"/>
<polygon points="949.0160538835199,90.73552632295545 969.973752081724,90.22577058189563 968.1613473880486,108.55236882112281 948.8729817678436,111.5813869338936" fill="#1c1c1c" stroke="url(#bloodGradient)" stroke-width="1.5"/>
<polygon points="946.2414172452646,114.68798965275433 969.1632258451505,115.45396217337792 966.5947413852681,137.13961444276822 947.6398016259438,135.34339558475597" fill="#1c1c1c" stroke="url(#bloodGradient)" stroke-width="1.5"/>
<polygon points="946.5467345899167,142.63133765044225 968.7108969701419,143.04288082113214 968.1268821122534,162.62808260251919 946.2475210961476,163.3948750399816" fill="#1c1c1c" stroke="url(#bloodGradient)" stroke-width="1.5"/>
<polygon points="946.2317442182535,167.54276857618876 967.0217494908286,168.44290064315481 969.6497243591978,186.82303528890333 946.4248974861325,187.06551820431397" fill="#1c1c1c" stroke="url(#bloodGradient)" stroke-width="1.5"/>
<polygon points="974.5547115960566,11.47432148388216 994.1455591522639,11.158186317229427 994.3778422009883,31.133007847954687 974.3568575426945,30.69428445064264" fill="#1c1c1c" stroke="url(#bloodGradient)" stroke-width="1.5"/>
<polygon points="973.6351352213362,38.54286511088773 995.1665896008651,38.56345634622311 993.7409988591486,58.76077939147574 972.014825095092,59.78002609975585" fill="#1c1c1c" stroke="url(#bloodGradient)" stroke-width="1.5"/>
<polygon points="972.7026427377607,62.27873609542037 992.694606205361,64.05538810541981 994.603642800846,85.90939842766103 974.4442107231632,84.66339089381172" fill="#1c1c1c" stroke="url(#bloodGradient)" stroke-width="1.5"/>
<polygon points="973.516528100097,88.26949727078807 993.5871865542832,89.528189156325 995.3568337800642,111.88835346733123 973.9920035316184,111.94871893645451" fill="#1c1c1c" stroke="url(#bloodGradient)" stroke-width="1.5"/>
<polygon points="973.230776817677,115.86641570728015 993.6467137292882,114.30794558043829 993.1016849812307,134.96616666645718 975.082180778469,135.10472970958048" fill="#1c1c1c" stroke="url(#bloodGradient)" stroke-width="1.5"/>
<polygon points="975.2710976080302,140.5284299249485 993.5556731507497,141.66755466266682 992.8678982634148,162.39196211430865 973.9442106417765,162.48206471443012" fill="#1c1c1c" stroke="url(#bloodGradient)" stroke-width="1.5"/>
<polygon points="972.8526900659604,166.45185285564673 994.3329146514574,166.37317994484218 993.0540531320045,189.76511665778088 975.1322318127415,186.4425037006622" fill="#1c1c1c" stroke="url(#bloodGradient)" stroke-width="1.5"/>
<polygon points="1001.3441064499123,11.52042862893008 1018.7836840360369,12.21620591855243 1021.9448033659049,32.03084699398949 998.6235675218747,30.639988481116504" fill="#1c1c1c" stroke="url(#bloodGradient)" stroke-width="1.5"/>
<polygon points="1000.3034546578574,39.35224441241057 1019.0156800079228,36.70337907279167 1019.3294882665468,59.67230246697989 1000.6711008463434,57.878523630017035" fill="#1c1c1c" stroke="url(#bloodGradient)" stroke-width="1.5"/>
<polygon points="1000.8456726515963,65.41024580564637 1018.4130781162229,64.75244203796751 1020.393193589492,83.79542409942654 1000.3613371172587,84.7238665852542" fill="#1c1c1c" stroke="url(#bloodGradient)" stroke-width="1.5"/>
<polygon points="1000.4940111958534,88.44280007358745 1018.4781620042243,91.09106789619543 1019.2160190093341,109.68495719147109 999.7353270493805,110.90362815192194" fill="#1c1c1c" stroke="url(#bloodGradient)" stroke-width="1.5"/>
<polygon points="1000.7173699716215,115.01011510567021 1019.8062868584257,116.25161468348026 1019.4773066616218,137.85819006472383 998.9423222448792,136.5373561781364" fill="#1c1c1c" stroke="url(#bloodGradient)" stroke-width="1.5"/>
<polygon points="1001.4649912731002,142.1928728197207 1020.3514216009344,142.0703132356658 1018.7930161441642,161.42461639627703 1000.9407746113334,163.2622602036944" fill="#1c1c1c" stroke="url(#bloodGradient)" stroke-width="1.5"/>
<polygon points="1000.9132142008974,166.87249314477918 1018.4750687882507,168.89404217393556 1018.4624183080625,186.41545648317526 999.0083763766655,188.0881723784482" fill="#F7A8B8" stroke="url(#bloodGradient)" stroke-width="1.5"/>
<polygon points="1024.5234787496668,13.57332783999324 1045.8692204144152,12.828471214818904 1047.3543187115856,31.307491577841702 1025.5738618808198,30.402671829992805" fill="#1c1c1c" stroke="url(#bloodGradient)" stroke-width="1.5"/>
<polygon points="1025.4246872724582,39.363402754637995 1045.1395458561515,38.77731108275979 1046.0851390018765,58.604696339027576 1026.5690538545505,59.980368447983615" fill="#1c1c1c" stroke="url(#bloodGradient)" stroke-width="1.5"/>
<polygon points="1024.7870671990486,62.97763405066914 1045.0014569816146,63.834396250776685 1046.8842722488337,83.27396838872119 1026.1162882746298,85.6178661970789" fill="#1c1c1c" stroke="url(#bloodGradient)" stroke-width="1.5"/>
<polygon points="1026.7777876167797,90.66820633335152 1044.5669979606735,90.3865999163527 1045.2469031538935,110.33912162785006 1024.654547236493,110.23970135084059" fill="#1c1c1c" stroke="url(#bloodGradient)" stroke-width="1.5"/>
<polygon points="1027.4306134050537,114.87849541710544 1046.003392683676,115.66733226434764 1045.4161682748143,136.85631827930467 1026.098471692641,135.19196490610645" fill="#1c1c1c" stroke="url(#bloodGradient)" stroke-width="1.5"/>
<polygon points="1026.2758976722625,140.97003875795846 1045.26954377308,142.32948013529415 1047.7108868578218,161.11451624093826 1024.3750310830274,163.0614755037505" fill="#1c1c1c" stroke="url(#bloodGradient)" stroke-width="1.5"/>
<polygon points="1026.1592502501876,168.5135003905479 1045.1284772814822,167.93846291043315 1045.7191876816253,188.18013334300952 1024.8717797793213,189.2463887302164" fill="#1c1c1c" stroke="url(#bloodGradient)" stroke-width="1.5"/>
<polygon points="1052.3443306267654,11.134311694361497 1072.9111807541933,10.457300431887976 1072.6413744224053,32.766784628287304 1052.8885116481322,32.590644647488716" fill="#1c1c1c" stroke="url(#bloodGradient)" stroke-width="1.5"/>
<polygon points="1053.283237660186,37.73694232347185 1073.418074484076,37.0171683758938 1072.889469257325,56.91423231142613 1051.3140514403867,58.24198666438197" fill="#1c1c1c" stroke="url(#bloodGradient)" stroke-width="1.5"/>
<polygon points="1051.533098875207,63.228953099712456 1071.9623311045063,65.01567199853037 1072.4112884562728,85.98500724351646 1052.0420901253478,85.71449901317126" fill="#1c1c1c" stroke="url(#bloodGradient)" stroke-width="1.5"/>
<polygon points="1051.6095665781843,89.67793591557545 1071.719347864506,90.38939654254906 1072.890283754723,109.34289587819109 1053.5688636568257,109.16822134041291" fill="#1c1c1c" stroke="url(#bloodGradient)" stroke-width="1.5"/>
<polygon points="1050.1202132755839,117.0624578879636 1073.873043603688,116.60398310298726 1073.3918764375576,136.77287659945415 1053.1444551831314,135.3348956644038" fill="#1c1c1c" stroke="url(#bloodGradient)" stroke-width="1.5"/>
<polygon points="1052.4577303505816,141.00927076202717 1070.9913493088427,140.54252406838617 1070.948827098206,161.89851051494287 1051.274884024287,161.57365467587235" fill="#1c1c1c" stroke="url(#bloodGradient)" stroke-width="1.5"/>
<polygon points="1052.7815941727592,166.8778347999839 1070.932433882807,168.0899886115125 1072.2212425845132,187.35180897483767 1051.558247856047,186.49727184625914" fill="#1c1c1c" stroke="url(#bloodGradient)" stroke-width="1.5"/>
<polygon points="1079.219396021379,13.176174061994999 1099.00702851393,12.270606242110935 1098.453015763824,30.641147270971537 1077.0027272232364,31.96646661729914" fill="#1c1c1c" stroke="url(#bloodGradient)" stroke-width="1.5"/>
<polygon points="1078.568426701866,37.13932113361402 1097.714562538582,36.83015132189521 1099.4273021588388,58.48384445991112 1076.8712864137228,57.03124114591402" fill="#1c1c1c" stroke="url(#bloodGradient)" stroke-width="1.5"/>
<polygon points="1077.855559675012,64.4749399169545 1096.490887474702,64.19088402905028 1099.806797507407,82.80913795957133 1076.1525339636169,84.84891702959774" fill="#1c1c1c" stroke="url(#bloodGradient)" stroke-width="1.5"/>
<polygon points="1077.3069782390332,89.90581015945484 1099.809882518924,89.32045958471299 1096.8379207509558,110.21784730558618 1077.89648532246,109.13455096170303" fill="#1c1c1c" stroke="url(#bloodGradient)" stroke-width="1.5"/>
<polygon points="1078.7071413506837,117.1743943339081 1099.638035584126,114.89955186986914 1097.6742258734116,137.71998787719528 1077.2151324704223,137.07339677073432" fill="#1c1c1c" stroke="url(#bloodGradient)" stroke-width="1.5"/>
<polygon points="1077.6298558487986,143.32698625685902 1097.5720050896118,143.25875935027838 1098.289812718516,162.6298718464453 1077.8637952089864,162.9119785818227" fill="#1c1c1c" stroke="url(#bloodGradient)" stroke-width="1.5"/>
<polygon points="1077.167516491075,168.30029195175587 1099.852422722769,169.07060809460748 1098.9908960657003,189.54010941263724 1078.4597323459552,189.27082463919035" fill="#1c1c1c" stroke="url(#bloodGradient)" stroke-width="1.5"/>
<polygon points="1105.5182344258062,10.981708904739877 1124.7969777945746,10.89926064857214 1124.7766027389919,30.80986190241408 1102.660910293771,32.94852319994846" fill="#1c1c1c" stroke="url(#bloodGradient)" stroke-width="1.5"/>
<polygon points="1105.4823482603476,36.26873102828098 1125.7643355562582,37.559271280324985 1122.5455201194272,57.67430237842678 1104.813685148835,59.49284650894781" fill="#1c1c1c" stroke="url(#bloodGradient)" stroke-width="1.5"/>
<polygon points="1104.8501673565502,63.91406724621663 1124.9570923184294,62.85896949621647 1122.6002676608136,82.47747540846375 1102.17030011504,83.2647685595055" fill="#1c1c1c" stroke="url(#bloodGradient)" stroke-width="1.5"/>
<polygon points="1103.5153822810137,90.90659721634403 1123.919754985792,88.10251417957612 1125.5264705007135,111.75663256851725 1105.4887062580726,109.38959637417821" fill="#1c1c1c" stroke="url(#bloodGradient)" stroke-width="1.5"/>
<polygon points="1103.845401327135,117.19211361921269 1124.6897931507938,117.27494731265445 1125.6354900812307,137.94118668466703 1103.7610828118309,134.8070629397651" fill="#1c1c1c" stroke="url(#bloodGradient)" stroke-width="1.5"/>
<polygon points="1103.5289415134228,142.29261587007272 1124.5491293465445,141.2046721513483 1124.1035079793658,162.40701776971116 1103.7178499689885,163.71317395728744" fill="#1c1c1c" stroke="url(#bloodGradient)" stroke-width="1.5"/>
<polygon points="1102.10926865149,167.27637970829304 1124.150482186185,169.5756936727309 1124.3638005572477,189.61973332879145 1104.8473029044362,189.94914024278688" fill="#1c1c1c" stroke="url(#bloodGradient)" stroke-width="1.5"/>
<polygon points="1131.079786236972,10.964020084701367 1148.8049133594193,10.205158803362083 1151.767754178088,31.786172264955685 1128.0708011061163,32.074928351385765" fill="#1c1c1c" stroke="url(#bloodGradient)" stroke-width="1.5"/>
<polygon points="1130.599924081099,38.846699228449395 1150.3625826241662,37.797158041672866 1151.46336886394,59.48241756437 1130.6156806707565,59.52004906453646" fill="#1c1c1c" stroke="url(#bloodGradient)" stroke-width="1.5"/>
<polygon points="1131.0854520018304,63.698200299945384 1149.8535820925072,64.11275177771056 1149.4505887697426,83.2761996282292 1128.106196358647,84.88434587331145" fill="#1c1c1c" stroke="url(#bloodGradient)" stroke-width="1.5"/>
<polygon points="1128.2465801692979,90.95414659792378 1149.725102498132,90.1694418531217 1150.676960536418,110.18376543797444 1129.302570611265,109.25734080913323" fill="#1c1c1c" stroke="url(#bloodGradient)" stroke-width="1.5"/>
<polygon points="1129.8750250791968,114.91339775251936 1150.6551864902906,116.21770985612592 1151.285926033668,135.9801884100948 1128.0366431593736,135.88375077442618" fill="#1c1c1c" stroke="url(#bloodGradient)" stroke-width="1.5"/>
<polygon points="1129.121659836976,141.74009645918497 1149.6353698493701,143.47052446899073 1148.641782608403,163.97411256275217 1128.355611975649,162.62649763769122" fill="#1c1c1c" stroke="url(#bloodGradient)" stroke-width="1.5"/>
<polygon points="1130.1229117569908,166.85764504236514 1148.947955367887,168.63325821540747 1149.3818185993212,189.13390559465353 1128.0084669947998,187.46823478616835" fill="#1c1c1c" stroke="url(#bloodGradient)" stroke-width="1.5"/>
<polygon points="1155.7163046962767,10.423394552075802 1177.532845333466,13.377974809663067 1176.7159593648662,33.623127019520325 1154.9742873272214,32.19437728543252" fill="#1c1c1c" stroke="url(#bloodGradient)" stroke-width="1.5"/>
<polygon points="1154.2090984902286,37.344582288400844 1175.3324989638168,36.76468999213191 1177.7399683760302,57.24257331485269 1156.3656055660583,59.0304727823012" fill="#1c1c1c" stroke="url(#bloodGradient)" stroke-width="1.5"/>
<polygon points="1157.4880270352176,64.5218558574219 1175.5324467172275,63.48019033090918 1176.2462954731595,83.83560214395142 1154.821409933434,84.60999742520724" fill="#1c1c1c" stroke="url(#bloodGradient)" stroke-width="1.5"/>
<polygon points="1156.6775294835834,89.48137275673395 1175.4525342727493,88.63593242085206 1177.3482211872015,110.45347586211814 1154.7832820454046,109.51831296760564" fill="#1c1c1c" stroke="url(#bloodGradient)" stroke-width="1.5"/>
<polygon points="1154.124619221327,117.11806106723317 1174.7844201206597,116.3137098093003 1175.699026489025,134.8222020570277 1155.3844786705056,134.99813589771236" fill="#1c1c1c" stroke="url(#bloodGradient)" stroke-width="1.5"/>
<polygon points="1156.9862141844512,140.48251529903695 1177.1612604507761,141.85275137043106 1175.6767430290847,162.95313921856697 1155.4994584897604,162.32974538676064" fill="#1c1c1c" stroke="url(#bloodGradient)" stroke-width="1.5"/>
<polygon points="1156.6732138019893,166.02528605789814 1175.0305669864856,168.15487612087517 1177.4931185306755,188.07891512456914 1154.401553163099,186.6397712554944" fill="#1c1c1c" stroke="url(#bloodGradient)" stroke-width="1.5"/>
<polygon points="1180.1856865394068,12.569778251890364 1200.515216842568,11.070482514948775 1200.8797135547236,31.58818673819123 1182.3826152249142,32.538879988094294" fill="#1c1c1c" stroke="url(#bloodGradient)" stroke-width="1.5"/>
<polygon points="1182.7295635434155,36.48408101873385 1202.1680781148746,36.48799274404194 1201.9043977309825,59.755164248149306 1180.3536342873406,58.88201653841796" fill="#1c1c1c" stroke="url(#bloodGradient)" stroke-width="1.5"/>
<polygon points="1182.2443097627106,64.83365430354922 1202.2576399508869,63.51906665888658 1202.1342414293892,85.9889639296783 1180.1028309636724,82.9337613683326" fill="#1c1c1c" stroke="url(#bloodGradient)" stroke-width="1.5"/>
<polygon points="1183.4664548177093,88.68358612001475 1201.201641462751,88.5941937799019 1203.7101270330647,111.6187752090341 1182.246396640319,109.3394352424265" fill="#1c1c1c" stroke="url(#bloodGradient)" stroke-width="1.5"/>
<polygon points="1182.7809022489369,114.0661748108401 1203.7325731087572,115.42785420492831 1203.5875382999614,136.63167167192705 1183.1023762532789,135.33536481744147" fill="#1c1c1c" stroke="url(#bloodGradient)" stroke-width="1.5"/>
<polygon points="1182.7362225530758,141.32753731522587 1200.866770347197,142.94946917774587 1202.3376550548794,161.03665365600446 1183.363669188633,162.26611526067805" fill="#1c1c1c" stroke="url(#bloodGradient)" stroke-width="1.5"/>
<polygon points="1180.526900731282,166.40727745764687 1203.5560879069224,167.08389109412326 1201.645017926836,187.49339999645494 1183.4018490809294,186.83789845790358" fill="#1c1c1c" stroke="url(#bloodGradient)" stroke-width="1.5"/>
<polygon points="1208.0040726001284,11.670672934718718 1229.6576124249436,12.727118500181902 1229.1717575077282,33.58155354911461 1208.8276130378133,33.607730231999184" fill="#1c1c1c" stroke="url(#bloodGradient)" stroke-width="1.5"/>
<polygon points="1208.3493200371229,39.511123725811 1229.845046710303,39.303454153679624 1228.1399861538848,58.16636470200832 1208.8346425200484,56.790889397660145" fill="#1c1c1c" stroke="url(#bloodGradient)" stroke-width="1.5"/>
<polygon points="1209.4766741125945,64.34519297557058 1228.4216036230532,64.13754776842399 1226.7854600217133,84.5980243160811 1209.5766735682394,83.11971636510323" fill="#1c1c1c" stroke="url(#bloodGradient)" stroke-width="1.5"/>
<polygon points="1206.5979348108413,90.09592638283327 1228.8660002513589,90.41140651207617 1227.1774757476671,111.18217629622306 1207.7962219697067,111.11915634484966" fill="#1c1c1c" stroke="url(#bloodGradient)" stroke-width="1.5"/>
<polygon points="1208.9191800599924,114.8487577067447 1228.9949751208417,116.15452575439232 1229.8510061510522,135.43964174620612 1208.058910925295,135.37627360405554" fill="#1c1c1c" stroke="url(#bloodGradient)" stroke-width="1.5"/>
<polygon points="1206.083356694471,142.4534865664715 1228.9270439075935,140.9624004768598 1227.4162710792662,163.26597905026586 1209.3306677777077,163.30949300649394" fill="#1c1c1c" stroke="url(#bloodGradient)" stroke-width="1.5"/>
<polygon points="1209.2663466479873,169.07587260464064 1227.6121470710773,166.72189971231464 1227.113883300727,188.07509898342332 1206.2534899277077,189.78947423899305" fill="#1c1c1c" stroke="url(#bloodGradient)" stroke-width="1.5"/>
<polygon points="1233.9402570361756,13.413163954661131 1252.9739619703205,11.871841413636004 1254.9704750085166,32.797949533912046 1233.6371484594924,31.66478964088724" fill="#1c1c1c" stroke="url(#bloodGradient)" stroke-width="1.5"/>
<polygon points="1234.0662499079258,36.92502585022666 1255.484968246999,39.43348570409511 1253.8801749962709,57.85097895627901 1232.4690514879067,58.94294316626567" fill="#1c1c1c" stroke="url(#bloodGradient)" stroke-width="1.5"/>
<polygon points="1232.9905686162479,63.91664327039969 1252.5698519624173,64.15557460677152 1255.5784380819441,82.44220231870229 1234.5316286558507,83.66897671984657" fill="#1c1c1c" stroke="url(#bloodGradient)" stroke-width="1.5"/>
<polygon points="1235.5570172471707,89.33467923527105 1252.8254857836562,89.46791413144815 1254.921187737438,111.85221063474401 1232.0395032608506,111.71918640260161" fill="#1c1c1c" stroke="url(#bloodGradient)" stroke-width="1.5"/>
<polygon points="1234.2099361860412,114.84543343945583 1254.9173806496158,114.6763176099615 1252.7640621925311,136.05150073754294 1235.5724228455583,136.41048344634046" fill="#1c1c1c" stroke="url(#bloodGradient)" stroke-width="1.5"/>
<polygon points="1233.1331379823887,141.73177119205255 1255.065279592556,142.411747749482 1252.6592876359466,163.6995864424964 1234.8208634232437,163.66673497592072" fill="#55CDFC" stroke="url(#bloodGradient)" stroke-width="1.5"/>
<polygon points="1234.1671855179445,168.37520515016922 1255.7326021578626,168.71304175021865 1252.4400656869545,189.21259568410292 1234.9593812402254,187.37837870736047" fill="#1c1c1c" stroke="url(#bloodGradient)" stroke-width="1.5"/>
<polygon points="1261.1140367058624,11.486891029880903 1279.8143004095855,11.15098208102386 1280.1153399135512,31.657375193451433 1260.360268199705,33.624728871248756" fill="#1c1c1c" stroke="url(#bloodGradient)" stroke-width="1.5"/>
<polygon points="1259.9458680600678,37.83846848694688 1280.6674440847391,38.79834527643399 1281.4348625569721,58.5658161690868 1258.1971283141597,57.178382361252034" fill="#1c1c1c" stroke="url(#bloodGradient)" stroke-width="1.5"/>
<polygon points="1260.7013441198544,63.69290623513469 1281.1718709663653,63.24783877957143 1279.3851265085646,83.6751718333011 1258.5863490040679,85.62158425929037" fill="#F7A8B8" stroke="url(#bloodGradient)" stroke-width="1.5"/>
<polygon points="1258.5086138164631,89.59512356763761 1279.1436634270074,89.7415968326727 1280.9004719751554,108.79898660023905 1259.7336373592857,111.02721520436894" fill="#1c1c1c" stroke="url(#bloodGradient)" stroke-width="1.5"/>
<polygon points="1260.0350811075023,116.55051056871217 1280.5881056640183,116.91918244736632 1279.513521816555,135.60077698143647 1260.0784843365784,137.55461204668475" fill="#FFFFFF" stroke="url(#bloodGradient)" stroke-width="1.5"/>
<polygon points="1259.3082038098237,140.15415117950565 1280.0856594148406,142.9626737990034 1281.003692770191,162.41248807733464 1260.2047778134258,163.86337003363445" fill="#1c1c1c" stroke="url(#bloodGradient)" stroke-width="1.5"/>
<polygon points="1260.9611584438692,169.59708482258702 1280.8406936898054,166.85427136890607 1279.293829768015,187.96124115923539 1258.5481360036797,188.77821650953604" fill="#55CDFC" stroke="url(#bloodGradient)" stroke-width="1.5"/>
<polygon points="1285.9445208455052,12.984510293135914 1307.8532637140408,10.479106038520063 1304.8739300415318,30.772996955686658 1284.5921244909323,31.908515394736288" fill="#1c1c1c" stroke="url(#bloodGradient)" stroke-width="1.5"/>
<polygon points="1284.4659248760256,38.10119112582572 1305.47378138166,37.82072410088153 1307.8427881223217,58.942197380064826 1284.7009442329804,58.668105493663674" fill="#1c1c1c" stroke="url(#bloodGradient)" stroke-width="1.5"/>
<polygon points="1285.1705719051763,62.204913049173 1304.9236669654338,64.81268715838779 1306.410921454092,83.38821635124854 1285.3792363643865,83.92272941900293" fill="#1c1c1c" stroke="url(#bloodGradient)" stroke-width="1.5"/>
<polygon points="1285.7119714157802,88.10136043266196 1305.7092163205393,88.54449723340072 1307.0636460786384,111.92335474857353 1286.2039899688702,110.07475926379881" fill="#1c1c1c" stroke="url(#bloodGradient)" stroke-width="1.5"/>
<polygon points="1286.1347725212938,116.85829231583776 1307.0888973238953,114.29226921077228 1305.1974518214263,135.2897208845234 1286.0571412689055,135.55928807343832" fill="#1c1c1c" stroke="url(#bloodGradient)" stroke-width="1.5"/>
<polygon points="1287.5120002735866,141.06583266851013 1305.467196453793,141.16118994194846 1306.6963199354623,162.3118174479354 1284.2698277450734,160.66288372389786" fill="#1c1c1c" stroke="url(#bloodGradient)" stroke-width="1.5"/>
<polygon points="1285.7266042550161,168.8845962136921 1305.9466311773285,167.14803054384143 1305.373473011625,188.68590739242526 1284.7574935148887,188.60306432623844" fill="#1c1c1c" stroke="url(#bloodGradient)" stroke-width="1.5"/>
<polygon points="1311.257965496179,11.402703626181744 1333.0228418593392,11.80813316574169 1330.875571919609,32.795395021944614 1312.0804646902104,33.16526866460003" fill="#1c1c1c" stroke="url(#bloodGradient)" stroke-width="1.5"/>
<polygon points="1312.9641462947177,38.16058864331721 1333.4210495254918,36.055398002167536 1332.699860993742,56.86933228778328 1310.4890639604398,58.01909489807849" fill="#1c1c1c" stroke="url(#bloodGradient)" stroke-width="1.5"/>
<polygon points="1313.1239838236802,63.8005114455394 1332.7654122186664,65.49243019454505 1331.408662899109,85.78729168006959 1311.0626967855903,83.67068734585615" fill="#1c1c1c" stroke="url(#bloodGradient)" stroke-width="1.5"/>
<polygon points="1311.5576074854423,88.42858645877783 1331.6350556080715,88.95243008831777 1332.062635113874,111.32723593358392 1313.5100324324958,108.90947764035545" fill="#1c1c1c" stroke="url(#bloodGradient)" stroke-width="1.5"/>
<polygon points="1312.9295163874444,115.60169955752283 1333.9203509917406,116.51621365466681 1332.9783169748443,137.28919110021485 1311.729173804759,137.4431457551144" fill="#1c1c1c" stroke="url(#bloodGradient)" stroke-width="1.5"/>
<polygon points="1313.2282924892313,141.9189816293168 1333.11839337684,142.44816421856203 1330.7070479245986,162.7673742919372 1312.6591943750564,162.5274601663814" fill="#1c1c1c" stroke="url(#bloodGradient)" stroke-width="1.5"/>
<polygon points="1311.158817089728,168.8695838298312 1333.2335758715533,169.29739191990072 1333.7638498221047,189.52555076117733 1311.450739194696,187.84585276290687" fill="#1c1c1c" stroke="url(#bloodGradient)" stroke-width="1.5"/>
<polygon points="1336.060518779725,12.992017154185008 1358.5467526691377,12.73373036415202 1359.0023277279208,31.091665620278977 1336.9877544997446,33.66998459762984" fill="#1c1c1c" stroke="url(#bloodGradient)" stroke-width="1.5"/>
<polygon points="1337.8844461712333,38.69211309519402 1359.8862283355388,37.22761825947335 1359.7435377730708,59.702174242720496 1338.7319422215169,59.208705024307804" fill="#1c1c1c" stroke="url(#bloodGradient)" stroke-width="1.5"/>
<polygon points="1339.393559188745,63.66136702163521 1358.1218734691206,62.56886600156314 1359.6549543199872,82.48144525861167 1336.0437495676108,84.13411658225316" fill="#1c1c1c" stroke="url(#bloodGradient)" stroke-width="1.5"/>
<polygon points="1336.7519521954998,90.79584472580873 1358.8043052740136,88.56351054197056 1359.8113907358795,110.88781477253103 1337.7578636757098,109.97995511678755" fill="#1c1c1c" stroke="url(#bloodGradient)" stroke-width="1.5"/>
<polygon points="1336.7497511401089,115.1532747359415 1357.58481463411,115.98224535576011 1359.526021897991,137.8481862597389 1338.3165503527814,136.2167422133078" fill="#1c1c1c" stroke="url(#bloodGradient)" stroke-width="1.5"/>
<polygon points="1337.9224526362157,141.84009900572738 1357.571439701726,140.79174865620968 1356.9233168721337,160.62260572161796 1336.2186812074622,162.3363873077121" fill="#1c1c1c" stroke="url(#bloodGradient)" stroke-width="1.5"/>
<polygon points="1339.5844777465397,168.30717103825813 1357.2937323840767,167.5237286228648 1358.2337341131224,187.11575118235427 1339.2987897952678,188.44601552159313" fill="#1c1c1c" stroke="url(#bloodGradient)" stroke-width="1.5"/>
<polygon points="1365.1980739421122,10.497316605680897 1384.5539028231062,11.197065190475746 1384.370093142691,33.091410322204 1363.9959431982095,32.53817605999901" fill="#1c1c1c" stroke="url(#bloodGradient)" stroke-width="1.5"/>
<polygon points="1365.2619622940683,37.11399470731078 1385.5741374293664,37.22387224328742 1385.5566088175283,58.28348699676355 1364.0229177111264,58.26175966246404" fill="#1c1c1c" stroke="url(#bloodGradient)" stroke-width="1.5"/>
<polygon points="1364.3893544336672,65.39814130114999 1382.937538931162,62.344900403929906 1384.836999502115,82.49551123175691 1363.3110517346513,84.87319242550929" fill="#1c1c1c" stroke="url(#bloodGradient)" stroke-width="1.5"/>
<polygon points="1362.56568824316,89.63041960806281 1383.8132332916175,88.66390929249523 1383.2754449312877,109.84833988178433 1364.411704138256,109.76346225271058" fill="#FFFFFF" stroke="url(#bloodGradient)" stroke-width="1.5"/>
<polygon points="1363.3901379459999,117.33907728231658 1382.97734555525,115.5905311881344 1385.2965790619376,137.00936364217335 1362.0150600494082,135.30744797122273" fill="#1c1c1c" stroke="url(#bloodGradient)" stroke-width="1.5"/>
<polygon points="1363.8680054695558,140.10083571089544 1383.581833152417,143.57499165126876 1383.609992128981,161.9287201924777 1363.7830365374932,161.77500357301233" fill="#FFFFFF" stroke="url(#bloodGradient)" stroke-width="1.5"/>
<rect x="10" y="10" width="1376" height="180" fill="url(#ukFlag)" mask="url(#fractureMask)" opacity="0.3"/>
<path d="M10 20 L750 30" stroke="#8B0000" stroke-width="3" opacity="0.25">
      <animate attributeName="opacity" values="0.25;0.6;0.25" dur="5s" repeatCount="indefinite" begin="0s"/>
    </path>
<path d="M100 0 L90 180" stroke="#8B0000" stroke-width="3" opacity="0.25">
      <animate attributeName="opacity" values="0.25;0.6;0.25" dur="6s" repeatCount="indefinite" begin="1s"/>
    </path>
<path d="M300 10 L310 170" stroke="#8B0000" stroke-width="3" opacity="0.25">
      <animate attributeName="opacity" values="0.25;0.6;0.25" dur="7s" repeatCount="indefinite" begin="2s"/>
    </path>
<path d="M400 20 L410 160" stroke="#8B0000" stroke-width="3" opacity="0.25">
      <animate attributeName="opacity" values="0.25;0.6;0.25" dur="8s" repeatCount="indefinite" begin="3s"/>
    </path>
<path d="M600 0 L590 180" stroke="#8B0000" stroke-width="3" opacity="0.25">
      <animate attributeName="opacity" values="0.25;0.6;0.25" dur="9s" repeatCount="indefinite" begin="4s"/>
    </path>
<text x="10" y="130" fill="#8B0000" font-weight="bold" font-size="18" filter="url(#glitchFilter)" opacity="0.85">TEAR DOWN THE EMPIRE</text>
<text x="10" y="148" fill="#8B0000" font-weight="bold" font-size="18" filter="url(#glitchFilter)" opacity="0.85">REVOLT AGAINST REFORM UK</text>
<text x="10" y="166" fill="#8B0000" font-weight="bold" font-size="18" filter="url(#glitchFilter)" opacity="0.85">TRANS LIBERATION NOW</text>
</svg>